<svg
  id="noun_support_1255962"
  xmlns="http://www.w3.org/2000/svg"
  width="30"
  height="24"
  viewBox="0 0 30 24"
>
  <g id="Group_11081" data-name="Group 11081" transform="translate(0 0)">
    <path
      id="Path_8017"
      data-name="Path 8017"
      d="M22.613,23.011l-.253-.049L17.565,25.9l1.469-4.162-.445-.274a7.962,7.962,0,0,1-4.16-6.685c0-4.68,4.83-8.486,10.768-8.486a11.43,11.43,0,0,1,9.5,4.5,12.787,12.787,0,0,1,1.616.168C34.478,7.463,30.186,5,25.2,5,18.538,5,13.12,9.388,13.12,14.782a9.1,9.1,0,0,0,4.336,7.5l-2.348,6.652,7.507-4.6a14.76,14.76,0,0,0,2.582.234c.185,0,.369,0,.552-.011a8.58,8.58,0,0,1-.98-1.295A13.733,13.733,0,0,1,22.613,23.011Z"
      transform="translate(-13.12 -5)"
      fill="$black"
    />
    <path
      id="Path_8018"
      data-name="Path 8018"
      d="M51.125,23.056c-4.742,0-8.6,3.174-8.6,7.076s3.858,7.076,8.6,7.076a10.271,10.271,0,0,0,2.634-.345l6.386,2.8-2.612-4.808a6.366,6.366,0,0,0,2.192-4.722C59.725,26.23,55.867,23.056,51.125,23.056ZM57.17,36.929l-3.315-1.453-.228.066a8.962,8.962,0,0,1-2.5.358c-4.02,0-7.29-2.587-7.29-5.767s3.271-5.767,7.29-5.767,7.291,2.587,7.291,5.767A5.2,5.2,0,0,1,56.3,34.189l-.429.342Z"
      transform="translate(-30.145 -15.663)"
      fill="$black"
    />
    <circle
      id="Ellipse_422"
      data-name="Ellipse 422"
      cx="0.967"
      cy="0.967"
      r="0.967"
      transform="translate(15.914 13.846)"
      fill="$black"
    />
    <circle
      id="Ellipse_423"
      data-name="Ellipse 423"
      cx="0.967"
      cy="0.967"
      r="0.967"
      transform="translate(20.036 13.846)"
      fill="$black"
    />
    <circle
      id="Ellipse_424"
      data-name="Ellipse 424"
      cx="0.967"
      cy="0.967"
      r="0.967"
      transform="translate(24.148 13.846)"
      fill="$black"
    />
  </g>
</svg>
