<svg xmlns="http://www.w3.org/2000/svg" xmlns:xlink="http://www.w3.org/1999/xlink" width="30" height="24" viewBox="0 0 30 24">
  <defs>
    <clipPath id="clip-path">
      <rect id="Rectangle_149917" data-name="Rectangle 149917" width="30" height="24" transform="translate(231 16)" fill="$black"/>
    </clipPath>
  </defs>
  <g id="job" transform="translate(-231 -16)" clip-path="url(#clip-path)">
    <path id="job-2" data-name="job" d="M1090.283-5449.6h-21.765a2.129,2.129,0,0,1-2.118-2.136V-5468.9a.574.574,0,0,1,.571-.577h7.216v-.985a2.13,2.13,0,0,1,2.119-2.136h6.188a2.129,2.129,0,0,1,2.118,2.136v.985h7.22a.556.556,0,0,1,.568.6v17.146A2.129,2.129,0,0,1,1090.283-5449.6Zm-22.345-14.56h0l-.4.064v12.358a.981.981,0,0,0,.976.983h21.765a.981.981,0,0,0,.976-.983v-12.358l-.4-.064-1.234,3.735a2.118,2.118,0,0,1-2.009,1.461h-4.555v.983a.575.575,0,0,1-.571.578h-6.188a.575.575,0,0,1-.571-.578v-.983h-4.556a2.118,2.118,0,0,1-2.009-1.461l-1.233-3.735Zm8.938,3.637v1.968h5.048v-1.968Zm-.569-1.153h6.188a.574.574,0,0,1,.571.576v.984h4.555a.974.974,0,0,0,.926-.672l2.491-7.538h-23.274l2.49,7.538a.977.977,0,0,0,.926.672h4.556v-.984A.574.574,0,0,1,1076.306-5461.675Zm0-9.77a.981.981,0,0,0-.978.982v.985h8.143v-.985a.98.98,0,0,0-.976-.982Z" transform="translate(-833.4 5488.6)" fill="$black"/>
  </g>
</svg>
