<svg xmlns="http://www.w3.org/2000/svg" xmlns:xlink="http://www.w3.org/1999/xlink" width="50" height="30" viewBox="0 0 30 30">
  <defs>
    <clipPath id="clip-path">
      <rect id="Rectangle_148553" data-name="Rectangle 148553" width="30" height="30" transform="translate(160 418)" fill="#6E00E5"/>
    </clipPath>
  </defs>
  <g id="beauty" transform="translate(-160 -418)" clip-path="url(#clip-path)">
    <path id="Path_8319" data-name="Path 8319" d="M194.8,101.715a9.567,9.567,0,0,0-7.007-2.822,2.508,2.508,0,0,0-2.409,2l-1.533,7.45-9.579,9.571a2.231,2.231,0,0,0,0,3.147l1.177,1.176a2.228,2.228,0,0,0,3.15,0l9.382-9.374,7.681-1.724a2.493,2.493,0,0,0,1.958-2.4v-.026A9.59,9.59,0,0,0,194.8,101.715ZM182.84,116.421l-5.019,5.015a.989.989,0,0,1-1.268.08l-1.479-1.248a1.109,1.109,0,0,1,0-1.561l5.028-5.022Zm13.661-7.628a1.376,1.376,0,0,1-1.077,1.253l-7.358,1.653-.242-.242,3.621-1.412a.562.562,0,0,0-.446-1.032l-4.029,1.589-.119-.118,1.715-1.714a.562.562,0,0,0-.4-.957.59.59,0,0,0-.4.167l-1.714,1.713-.108-.108,1.822-3.866a.563.563,0,0,0-1.031-.453l-1.644,3.462-.136-.135,1.538-7.472a1.386,1.386,0,0,1,1.327-1.1h.171a8.515,8.515,0,0,1,8.514,8.346q0,.167,0,.333l0,.1Zm-9.483,3.451-3.387,3.384-2.739-2.737,3.387-3.383Z" transform="translate(-10.627 322.111)" fill="#6E00E5"/>
  </g>
</svg>
