<svg xmlns="http://www.w3.org/2000/svg" xmlns:xlink="http://www.w3.org/1999/xlink" width="50" height="30" viewBox="0 0 30 30">
  <defs>
    <clipPath id="clip-path">
      <rect id="Rectangle_148551" data-name="Rectangle 148551" width="30" height="30" transform="translate(160 328)" fill="#6E00E5"/>
    </clipPath>
  </defs>
  <g id="construction" transform="translate(-160 -328)" clip-path="url(#clip-path)">
    <g id="Mask_Group_29" data-name="Mask Group 29" transform="translate(64.994 230.042)">
      <g id="technics" transform="translate(99.006 101.958)">
        <g id="Group_4951" data-name="Group 4951">
          <g id="Group_4950" data-name="Group 4950">
            <g id="Path_5472" data-name="Path 5472">
              <path id="Path_8317" data-name="Path 8317" d="M120.424,119.033a2.984,2.984,0,0,0-.332-.392l-1.187-1.186c-.6-.613-.684-.684-.7-.7l-5.421-4L115,110.527l.091.03a4.432,4.432,0,0,0,5.482-6.083.515.515,0,0,0-.684-.241.714.714,0,0,0-.141.1l-1.69,1.689a.8.8,0,0,1-1.127,0,.814.814,0,0,1,0-1.126l1.69-1.689a.5.5,0,0,0,0-.714.361.361,0,0,0-.141-.1,4.421,4.421,0,0,0-6.075,5.48l.03.08-2.515,2.514-.1-.07q-.075-.06-.121-.09a20.293,20.293,0,0,1-2.092-2.152l-2.273-2.413.573-.573a.529.529,0,0,0,0-.724.61.61,0,0,0-.1-.07l-3.5-2.1a2.159,2.159,0,0,0-1.65-.241,2.133,2.133,0,0,0-1.338,1,2.164,2.164,0,0,0,0,2.242l2.092,3.489a.5.5,0,0,0,.7.181.347.347,0,0,0,.091-.08l.553-.553,2.293,2.433c1.841,1.951,1.841,1.951,2,2.162l.181.211-.08.121L105,115.383l-.091-.03a4.432,4.432,0,0,0-5.482,6.083.519.519,0,0,0,.684.241.714.714,0,0,0,.141-.1l1.69-1.689a.793.793,0,0,1,1.116,1.126l-1.69,1.689a.51.51,0,0,0,0,.724.714.714,0,0,0,.141.1,4.44,4.44,0,0,0,5.9-2.091,4.474,4.474,0,0,0,.181-3.4l-.03-.08L109.531,116l4.265,5.178,1.78,1.78a3.388,3.388,0,0,0,2.364,1,2.9,2.9,0,0,0,1.75-.553A3.126,3.126,0,0,0,120.424,119.033Zm-14.353-8.707-2.927-3.1a.5.5,0,0,0-.714-.02l-.483.463-1.75-2.936a1.112,1.112,0,0,1-.131-.875,1.124,1.124,0,0,1,.533-.714,1.144,1.144,0,0,1,1.187,0l2.937,1.76-.463.463a.5.5,0,0,0-.01.7c1.207,1.287,2.092,2.222,2.746,2.916a26.393,26.393,0,0,0,1.941,2.021.618.618,0,0,1,.131.09l.121.1-1.217,1.217-.1-.131a1.231,1.231,0,0,1-.08-.121C107.68,112.025,107.68,112.025,106.071,110.325Zm.533,7.149a.526.526,0,0,0-.1.583,3.424,3.424,0,0,1-1.609,4.545,3.405,3.405,0,0,1-1.468.332,3.891,3.891,0,0,1-.483-.03l-.282-.04,1.127-1.126a1.82,1.82,0,0,0,0-2.574,1.81,1.81,0,0,0-2.565,0l-1.127,1.126-.04-.282a3.4,3.4,0,0,1,2.887-3.851,3.333,3.333,0,0,1,1.951.292.5.5,0,0,0,.583-.1l7.926-7.913a.526.526,0,0,0,.1-.583,3.413,3.413,0,0,1,3.551-4.846l.282.04-1.116,1.126a1.825,1.825,0,0,0-.563,1.277,1.8,1.8,0,0,0,.513,1.3,1.822,1.822,0,0,0,2.565.04l1.177-1.166.04.282a3.416,3.416,0,0,1-2.9,3.851,3.445,3.445,0,0,1-1.951-.3.508.508,0,0,0-.573.1Zm3.712-2.139,1.729-1.853,1.871,1.388-2.183,2.192-.915-1.106Zm9.051,7.005a1.753,1.753,0,0,1-.141.121l.01.01-.141.1a2.181,2.181,0,0,1-1.2.352,2.149,2.149,0,0,1-1.6-.694l-1.72-1.719-2.2-2.664,2.374-2.363,2.8,2.061,1.821,1.82A2.1,2.1,0,0,1,119.368,122.341Z" transform="translate(-99.006 -101.958)" fill="#6E00E5"/>
            </g>
          </g>
        </g>
      </g>
    </g>
  </g>
</svg>
