<svg xmlns="http://www.w3.org/2000/svg" xmlns:xlink="http://www.w3.org/1999/xlink" width="50" height="30" viewBox="0 0 30 30">
  <defs>
    <clipPath id="clip-path">
      <rect id="Rectangle_148548" data-name="Rectangle 148548" width="30" height="30" transform="translate(160 193)" fill="rgb(102, 34, 224)"/>
    </clipPath>
  </defs>
  <g id="electronics" transform="translate(-160 -193)" clip-path="url(#clip-path)">
    <g id="Mask_Group_27" data-name="Mask Group 27" transform="translate(137.23 60.08)">
      <g id="cpu" transform="translate(25.77 135.92)">
        <g id="Group_4947" data-name="Group 4947" transform="translate(6.4 6.4)">
          <g id="Group_4946" data-name="Group 4946">
            <g id="Path_5470" data-name="Path 5470">
              <path id="Path_8308" data-name="Path 8308" d="M42.52,141.99H32.35a.514.514,0,0,0-.51.52v10.17a.514.514,0,0,0,.52.51H42.52a.514.514,0,0,0,.52-.51V142.51A.516.516,0,0,0,42.52,141.99Zm-9.65,1.03h9.14v9h-.14v.14h-9Z" transform="translate(-31.84 -141.99)" fill="rgb(102, 34, 224)"/>
            </g>
          </g>
        </g>
        <g id="Group_4949" data-name="Group 4949">
          <g id="Group_4948" data-name="Group 4948">
            <g id="Path_5471" data-name="Path 5471">
              <path id="Path_8309" data-name="Path 8309" d="M49.379,146.676a.672.672,0,0,0,.237-.134.574.574,0,0,0,.154-.38.529.529,0,0,0-.535-.524h-2.3v-2.416h2.3a.53.53,0,1,0,0-1.059h-2.3v-1.594a1.812,1.812,0,0,0-1.81-1.81H43.528v-2.3a.53.53,0,1,0-1.059,0v2.3H40.022v-2.3a.53.53,0,1,0-1.059,0v2.3H36.505v-2.3a.525.525,0,1,0-1.049,0v2.3H33.071v-2.3a.53.53,0,1,0-1.059,0v2.3H30.418a1.812,1.812,0,0,0-1.81,1.81v1.594H26.3a.527.527,0,0,0-.535.535.529.529,0,0,0,.535.524h2.3v2.447H26.3a.53.53,0,1,0,0,1.059h2.3v2.458H26.3a.525.525,0,1,0,0,1.049h2.3v2.386H26.3a.53.53,0,1,0,0,1.059h2.3v1.594a1.812,1.812,0,0,0,1.81,1.81h1.594v2.3a.529.529,0,0,0,.524.535.544.544,0,0,0,.535-.535v-2.3h2.447v2.3a.53.53,0,1,0,1.059,0v-2.3h2.447v2.3a.538.538,0,0,0,.535.535.529.529,0,0,0,.524-.535v-2.3h2.386v2.3a.53.53,0,1,0,1.059,0v-2.3h1.594a1.812,1.812,0,0,0,1.81-1.81v-1.594h2.3a.53.53,0,1,0,0-1.059h-2.3v-2.447h2.3a.53.53,0,1,0,0-1.059h-2.3v-2.447Zm-3.465,8.6h-.041a.746.746,0,0,1-.74.751H30.418a.748.748,0,0,1-.751-.751v-14.7a.74.74,0,0,1,.74-.751H45.163a.753.753,0,0,1,.751.74Z" transform="translate(-25.77 -135.92)" fill="rgb(102, 34, 224)"/>
            </g>
          </g>
        </g>
      </g>
    </g>
  </g>
</svg>
