<svg xmlns="http://www.w3.org/2000/svg" xmlns:xlink="http://www.w3.org/1999/xlink" width="50" height="30" viewBox="0 0 30 30">
  <defs>
    <clipPath id="clip-path">
      <rect id="Rectangle_148549" data-name="Rectangle 148549" width="30" height="30" transform="translate(160 238)" fill="rgb(102, 34, 224)"/>
    </clipPath>
  </defs>
  <g id="household-appliances" transform="translate(-160 -238)" clip-path="url(#clip-path)">
    <g id="Mask_Group_28" data-name="Mask Group 28" transform="translate(136.45 140.87)">
      <g id="washing-machine" transform="translate(28.55 101.13)">
        <g id="Group_11348" data-name="Group 11348">
          <path id="Path_8310" data-name="Path 8310" d="M47.465,101.13H29.635a1.074,1.074,0,0,0-1.085,1.059v19.362a1.08,1.08,0,0,0,1.085,1.059h1.276l.03.108a.518.518,0,0,0,.613.4.507.507,0,0,0,.412-.4l.03-.108H45.1l.03.108a.517.517,0,0,0,.613.4.507.507,0,0,0,.412-.4l.03-.108h1.276a1.08,1.08,0,0,0,1.085-1.059V102.189A1.074,1.074,0,0,0,47.465,101.13Zm.03,20.45H29.6V106.806H47.5Zm0-15.8H29.6V102.15H47.5Z" transform="translate(-28.55 -101.13)" fill="rgb(102, 34, 224)"/>
        </g>
        <g id="Group_11349" data-name="Group 11349" transform="translate(16.24 2.56)">
          <path id="Path_8311" data-name="Path 8311" d="M46.1,104.383a.7.7,0,1,1-.706-.693A.7.7,0,0,1,46.1,104.383Z" transform="translate(-44.881 -103.853)" fill="rgb(102, 34, 224)"/>
        </g>
        <g id="Group_11350" data-name="Group 11350" transform="translate(13.494 2.56)">
          <path id="Path_8312" data-name="Path 8312" d="M43.367,104.383a.7.7,0,0,1-.693.693.693.693,0,0,1,0-1.387A.7.7,0,0,1,43.367,104.383Z" transform="translate(-42.151 -103.853)" fill="rgb(102, 34, 224)"/>
        </g>
        <g id="Group_11351" data-name="Group 11351" transform="translate(5.446 2.56)">
          <path id="Path_8313" data-name="Path 8313" d="M35.357,104.383a.693.693,0,1,1-.693-.693A.7.7,0,0,1,35.357,104.383Z" transform="translate(-34.127 -103.853)" fill="rgb(102, 34, 224)"/>
        </g>
        <g id="Group_11352" data-name="Group 11352" transform="translate(2.549 2.397)">
          <path id="Path_8314" data-name="Path 8314" d="M32.637,104.383a.7.7,0,0,1-.693.693.693.693,0,0,1,0-1.387A.7.7,0,0,1,32.637,104.383Z" transform="translate(-31.25 -103.69)" fill="rgb(102, 34, 224)"/>
        </g>
        <g id="Group_11353" data-name="Group 11353" transform="translate(3.806 6.7)">
          <path id="Path_8315" data-name="Path 8315" d="M45.77,114.35a.523.523,0,0,0-.37-.16h-.68l-.01-.13a6.263,6.263,0,0,0-6.19-5.59,4.872,4.872,0,0,0-.66.04,6.237,6.237,0,1,0,6.85,6.86l.01-.13h.68a.516.516,0,0,0,.52-.52A.5.5,0,0,0,45.77,114.35Zm-2.53,2.49a5.188,5.188,0,0,1-9.83-1.15l-.02-.09.08-.05c1.04-.63,2.43-.18,4.04.36v-.01l.06.03a13.361,13.361,0,0,0,4.1.88h.02a6.007,6.007,0,0,0,1.39-.17l.28-.06Zm.43-1.58-.01.08-.08.03a4.712,4.712,0,0,1-1.92.39,12.284,12.284,0,0,1-3.77-.83,13.773,13.773,0,0,0-2.61-.7,4.045,4.045,0,0,0-1.76.14l-.2.07.02-.22a5.177,5.177,0,0,1,5.1-4.69h.07a5.19,5.19,0,0,1,5.18,5.18C43.69,114.89,43.68,115.08,43.67,115.26Z" transform="translate(-32.266 -108.47)" fill="rgb(102, 34, 224)"/>
        </g>
      </g>
    </g>
  </g>
</svg>
