<svg xmlns="http://www.w3.org/2000/svg" xmlns:xlink="http://www.w3.org/1999/xlink" width="50" height="30" viewBox="0 0 30 30">
  <defs>
    <clipPath id="clip-path">
      <rect id="Rectangle_148560" data-name="Rectangle 148560" width="30" height="30" transform="translate(160 597)" fill="#2463bf"/>
    </clipPath>
  </defs>
  <g id="transport" transform="translate(-160 -597)" clip-path="url(#clip-path)">
    <g id="Mask_Group_23" data-name="Mask Group 23" transform="translate(68.75 429.34)">
      <g id="car" transform="translate(93.25 172.66)">
        <g id="Group_4931" data-name="Group 4931">
          <g id="Group_4930" data-name="Group 4930">
            <g id="Path_5461" data-name="Path 5461">
              <path id="Path_8325" data-name="Path 8325" d="M118.272,180.147l-.01-.01-.591-.641-2.008-5.392a2.236,2.236,0,0,0-2.079-1.445H99.263a2.24,2.24,0,0,0-2.089,1.445l-2,5.371-.826.763a3.057,3.057,0,0,0-1.1,2.35v7.864a2.232,2.232,0,0,0,2.232,2.208H96.96a2.216,2.216,0,0,0,2.222-2.208V189.2h14.126v1.251a2.232,2.232,0,0,0,2.232,2.208h1.478a2.232,2.232,0,0,0,2.232-2.208v-8.067A3.15,3.15,0,0,0,118.272,180.147ZM98.01,174.4a1.348,1.348,0,0,1,1.243-.855h14.34a1.333,1.333,0,0,1,1.243.855l1.8,4.852h-1.57l-.02-.1a3.727,3.727,0,0,0-7.369,0l-.02.1H96.206Zm16.154,4.852h-5.606l.031-.142a2.84,2.84,0,0,1,5.555,0ZM98.3,190.452a1.343,1.343,0,0,1-1.335,1.322H95.482a1.33,1.33,0,0,1-1.335-1.322v-1.668l.173.1a2.126,2.126,0,0,0,1.162.315H98.3Zm-2.813-2.146h-.02a1.288,1.288,0,0,1-.917-.376,1.268,1.268,0,0,1-.4-.926v-4.415a2.178,2.178,0,0,1,.785-1.679l.01-.02.805-.743h21.3l.581.61c.01.01.01.02.02.031a2.216,2.216,0,0,1,.693,1.6V187a1.317,1.317,0,0,1-1.325,1.3H95.482Zm22.861,2.258a1.347,1.347,0,0,1-1.335,1.211H115.53a1.343,1.343,0,0,1-1.335-1.322V189.2h2.813a2.1,2.1,0,0,0,1.162-.315l.183-.1Z" transform="translate(-93.25 -172.66)" fill="#2463bf"/>
            </g>
          </g>
        </g>
        <g id="Group_4933" data-name="Group 4933" transform="translate(3.59 9.989)">
          <g id="Group_4932" data-name="Group 4932">
            <g id="Path_5462" data-name="Path 5462">
              <path id="Path_8326" data-name="Path 8326" d="M100.39,182.44H96.27a.429.429,0,0,0-.43.44v2.85a.435.435,0,0,0,.43.44h4.12a.444.444,0,0,0,.44-.44v-2.86A.435.435,0,0,0,100.39,182.44Zm-.43,2.86H96.71v-1.99h3.25Z" transform="translate(-95.84 -182.44)" fill="#2463bf"/>
            </g>
          </g>
        </g>
        <g id="Group_4935" data-name="Group 4935" transform="translate(17.41 9.989)">
          <g id="Group_4934" data-name="Group 4934">
            <g id="Path_5463" data-name="Path 5463">
              <path id="Path_8327" data-name="Path 8327" d="M115.73,182.44h-4.12a.437.437,0,0,0-.44.44v2.85a.444.444,0,0,0,.44.44h4.12a.444.444,0,0,0,.44-.44v-2.86A.442.442,0,0,0,115.73,182.44Zm-.44,2.86h-3.24v-1.99h3.25Z" transform="translate(-111.17 -182.44)" fill="#2463bf"/>
            </g>
          </g>
        </g>
        <g id="Group_4937" data-name="Group 4937" transform="translate(9.905 11.413)">
          <g id="Group_4936" data-name="Group 4936">
            <g id="Path_5464" data-name="Path 5464">
              <path id="Path_8328" data-name="Path 8328" d="M106.91,184.3c0,.24-.129.44-.285.44h-3.43c-.162,0-.285-.2-.285-.44s.123-.43.285-.43h3.43C106.781,183.87,106.91,184.06,106.91,184.3Z" transform="translate(-101.91 -183.87)" fill="#2463bf"/>
            </g>
          </g>
        </g>
      </g>
    </g>
  </g>
</svg>
