<svg xmlns="http://www.w3.org/2000/svg" xmlns:xlink="http://www.w3.org/1999/xlink" width="50" height="30" viewBox="0 0 30 30">
  <defs>
    <clipPath id="clip-path">
      <rect id="Rectangle_2038" data-name="Rectangle 2038" width="30" height="30" transform="translate(160 507)" fill="rgb(102, 34, 224)"/>
    </clipPath>
  </defs>
  <g id="weapons" transform="translate(-160 -507)" clip-path="url(#clip-path)">
    <g id="Path_5455" data-name="Path 5455" transform="translate(27.86 370.41)">
      <path id="Path_5479" data-name="Path 5479" d="M158.58,142.59a.56.56,0,0,0-.56.554V144h-18.04a1.289,1.289,0,0,1-.463-.117.735.735,0,0,1-.41-.767.5.5,0,0,0-.172-.352.645.645,0,0,0-.41-.149.56.56,0,0,0-.539.533,2.1,2.1,0,0,0,.129.725l.043.16-.151.043a1.969,1.969,0,0,0-1.433,1.886v.853H135.7a.56.56,0,0,0-.56.554v2.813a.56.56,0,0,0,.56.554.7.7,0,0,1,.5.224.643.643,0,0,1,.151.533s-.032.256-.927,6.831a1.968,1.968,0,0,0,1.649,2.249,3.08,3.08,0,0,0,.313.021h5.442a.553.553,0,0,0,.56-.554v-5.083h.862a3.407,3.407,0,0,0,3.341-2.686l.022-.128h6.7a.554.554,0,0,0,.56-.554v-.853h3.707a.554.554,0,0,0,.56-.554v-7.034A.554.554,0,0,0,158.58,142.59ZM146.4,152.341a2.286,2.286,0,0,1-2.155,1.513h-.862v-1.716h3.093Zm7.35-1.311H142.824a.56.56,0,0,0-.56.554v7.9h-4.893a.882.882,0,0,1-.657-.3.839.839,0,0,1-.183-.693c.011-.1.119-.874.927-6.831a1.745,1.745,0,0,0-.41-1.417,1.77,1.77,0,0,0-.69-.49l-.1-.032v-1.8h17.491Zm4.268-1.4h-3.147v-1.716h3.147Zm0-2.824H137.683v-.853a.86.86,0,0,1,.862-.853h19.474Z" fill="rgb(102, 34, 224)"/>
    </g>
  </g>
</svg>
