<svg id="dashboard" xmlns="http://www.w3.org/2000/svg" width="19.83" height="19.83" viewBox="0 0 19.83 19.83">
    <path id="Контур_8055" data-name="Контур 8055" d="M7.643,6.61h-6.2A1.448,1.448,0,0,1,0,5.164V1.446A1.447,1.447,0,0,1,1.446,0h6.2A1.448,1.448,0,0,1,9.089,1.446V5.164A1.448,1.448,0,0,1,7.643,6.61Zm-6.2-5.371a.207.207,0,0,0-.207.207V5.164a.207.207,0,0,0,.207.207h6.2a.207.207,0,0,0,.207-.207V1.446a.207.207,0,0,0-.207-.207Zm0,0" transform="translate(0 0)" fill="$black"/>
    <path id="Контур_8056" data-name="Контур 8056" d="M7.643,224.9h-6.2A1.447,1.447,0,0,1,0,223.454v-8.676a1.448,1.448,0,0,1,1.446-1.446h6.2a1.448,1.448,0,0,1,1.446,1.446v8.676A1.448,1.448,0,0,1,7.643,224.9Zm-6.2-10.328a.207.207,0,0,0-.207.207v8.676a.207.207,0,0,0,.207.207h6.2a.207.207,0,0,0,.207-.207v-8.676a.207.207,0,0,0-.207-.207Zm0,0" transform="translate(0 -205.07)" fill="$black"/>
    <path id="Контур_8057" data-name="Контур 8057" d="M284.975,347.942h-6.2a1.447,1.447,0,0,1-1.446-1.446v-3.718a1.448,1.448,0,0,1,1.446-1.446h6.2a1.448,1.448,0,0,1,1.446,1.446V346.5A1.447,1.447,0,0,1,284.975,347.942Zm-6.2-5.371a.207.207,0,0,0-.207.207V346.5a.207.207,0,0,0,.207.207h6.2a.207.207,0,0,0,.207-.207v-3.718a.207.207,0,0,0-.207-.207Zm0,0" transform="translate(-266.591 -328.112)" fill="$black"/>
    <path id="Контур_8058" data-name="Контур 8058" d="M284.975,11.568h-6.2a1.448,1.448,0,0,1-1.446-1.446V1.446A1.447,1.447,0,0,1,278.778,0h6.2a1.447,1.447,0,0,1,1.446,1.446v8.676A1.448,1.448,0,0,1,284.975,11.568Zm-6.2-10.328a.207.207,0,0,0-.207.207v8.676a.207.207,0,0,0,.207.207h6.2a.207.207,0,0,0,.207-.207V1.446a.207.207,0,0,0-.207-.207Zm0,0" transform="translate(-266.591 0)" fill="$black"/>
</svg>
