<svg xmlns="http://www.w3.org/2000/svg" width="25" height="16.664" viewBox="0 0 25 16.664">
    <path id="gift-card" d="M2.687,16.665A2.643,2.643,0,0,1,0,14.085V2.606A2.643,2.643,0,0,1,2.687.028c3.543-.037,3.661-.037,19.624,0A2.644,2.644,0,0,1,25,2.606V14.085a2.644,2.644,0,0,1-2.688,2.58ZM6.8,15.687h15.51a1.638,1.638,0,0,0,1.668-1.6V11.076H7.514L9.057,12.6a.47.47,0,0,1,0,.687.512.512,0,0,1-.358.145.517.517,0,0,1-.364-.145L6.8,11.773Zm-5.782-1.6a1.646,1.646,0,0,0,1.673,1.6H5.778V11.767L4.195,13.284a.508.508,0,0,1-.357.145.514.514,0,0,1-.364-.145.475.475,0,0,1,0-.691l1.579-1.516H1.019Zm9.412-5.454A1.979,1.979,0,0,1,9.739,10.1H23.98v-7.5a1.636,1.636,0,0,0-1.668-1.6H6.8V7.263a2.136,2.136,0,0,1,1.522-.624A2.054,2.054,0,0,1,10.431,8.631ZM1.019,2.606v7.5H2.833a1.97,1.97,0,0,1-.687-1.472A2.055,2.055,0,0,1,4.254,6.639a2.16,2.16,0,0,1,1.055.275,1.968,1.968,0,0,1,.47.349V1.006H2.687A1.643,1.643,0,0,0,1.019,2.606ZM7.258,8.443l-.3,1.463,1.565-.283a1.037,1.037,0,0,0,.878-1A1.059,1.059,0,0,0,8.424,7.62c-.036,0-.067,0-.1,0A1.086,1.086,0,0,0,7.258,8.443Zm-4.091.188a1.033,1.033,0,0,0,.878.993l1.564.283-.3-1.463A1,1,0,0,0,4.8,7.76a1.122,1.122,0,0,0-.55-.145H4.238A1.057,1.057,0,0,0,3.167,8.631Z" fill="$black"/>
</svg>
