<svg xmlns="http://www.w3.org/2000/svg" width="18.333" height="20" viewBox="0 0 18.333 20">
    <g id="user" transform="translate(0)">
        <g id="Сгруппировать_12054" transform="translate(0 11.553)">
            <g id="Сгруппировать_12053" >
                <g id="Сгруппировать_12052" >
                    <path id="Контур_8916"  d="M26.96,18.75c-5.914,0-9.17,2.816-9.17,7.923a.524.524,0,0,0,.518.523h17.3a.52.52,0,0,0,.518-.523C36.123,21.566,32.867,18.75,26.96,18.75Zm-8.121,7.4.012-.237c.3-4.061,3.028-6.117,8.109-6.117s7.807,2.056,8.1,6.117l.019.237Z" transform="translate(-17.79 -18.75)" fill="$black"/>
                </g>
            </g>
        </g>
        <g id="Сгруппировать_12057"  transform="translate(4.467)">
            <g id="Сгруппировать_12056" >
                <g id="Сгруппировать_12055" >
                    <path id="Контур_8917"  d="M29.813.35a4.651,4.651,0,0,0-4.7,4.809,4.929,4.929,0,0,0,4.7,5.12,4.933,4.933,0,0,0,4.7-5.12A4.654,4.654,0,0,0,29.813.35Zm0,8.889a3.894,3.894,0,0,1-3.663-4.08,3.661,3.661,0,1,1,7.319,0A3.889,3.889,0,0,1,29.813,9.239Z" transform="translate(-25.11 -0.35)" fill="$black"/>
                </g>
            </g>
        </g>
    </g>
</svg>
