<svg xmlns="http://www.w3.org/2000/svg" width="18.33" height="19.167" viewBox="0 0 18.33 19.167">
    <g id="Сгруппировать_10700" data-name="Сгруппировать 10700" transform="translate(0)">
        <g id="Сгруппировать_10712" data-name="Сгруппировать 10712">
            <g id="Сгруппировать_10711" data-name="Сгруппировать 10711">
                <g id="Сгруппировать_10710" data-name="Сгруппировать 10710">
                    <path id="Контур_6613" data-name="Контур 6613" d="M256.829,260.9a.644.644,0,0,1-.649.643h-7.287a2.27,2.27,0,0,1-2.263-2.272V244.652a2.27,2.27,0,0,1,2.263-2.272h7.287a.643.643,0,1,1,0,1.286h-7.287a.984.984,0,0,0-.973.985v14.623a.984.984,0,0,0,.973.985h7.287A.644.644,0,0,1,256.829,260.9Z" transform="translate(-246.63 -242.38)" fill="$black"/>
                </g>
            </g>
        </g>
        <g id="Сгруппировать_10715" data-name="Сгруппировать 10715" transform="translate(6.48 4.059)">
            <g id="Сгруппировать_10714" data-name="Сгруппировать 10714">
                <g id="Сгруппировать_10713" data-name="Сгруппировать 10713">
                    <path id="Контур_6614" data-name="Контур 6614" d="M266.27,252.345a.575.575,0,0,1-.179.425l-4.6,4.51a.618.618,0,0,1-.847,0,.6.6,0,0,1,.008-.85l3.551-3.483h-9.185a.6.6,0,0,1,0-1.2H264.2l-3.551-3.483a.6.6,0,0,1-.008-.85.614.614,0,0,1,.427-.178.6.6,0,0,1,.42.17l4.6,4.51A.6.6,0,0,1,266.27,252.345Z" transform="translate(-254.42 -247.24)" fill="$black"/>
                </g>
            </g>
        </g>
    </g>
</svg>
