<svg xmlns="http://www.w3.org/2000/svg" width="21.928" height="17.684" viewBox="0 0 21.928 17.684">
    <g id="noun_support_1255962" transform="translate(0)">
        <g id="Сгруппировать_11081" data-name="Сгруппировать 11081" transform="translate(0 0)">
            <path id="Контур_8017" data-name="Контур 8017" d="M20.04,18.271l-.184-.036-3.5,2.167,1.071-3.067-.324-.2a5.875,5.875,0,0,1-3.033-4.926c0-3.448,3.521-6.253,7.85-6.253a8.3,8.3,0,0,1,6.928,3.318,9.226,9.226,0,0,1,1.178.124A9.028,9.028,0,0,0,21.925,5c-4.855,0-8.8,3.233-8.8,7.208a6.718,6.718,0,0,0,3.161,5.527l-1.712,4.9,5.473-3.393a10.649,10.649,0,0,0,1.883.173c.135,0,.269,0,.4-.008a6.316,6.316,0,0,1-.714-.954A9.91,9.91,0,0,1,20.04,18.271Z" transform="translate(-13.12 -5)" fill="$black"/>
            <path id="Контур_8018" data-name="Контур 8018" d="M48.8,23.056c-3.457,0-6.269,2.314-6.269,5.159s2.812,5.159,6.269,5.159a7.488,7.488,0,0,0,1.92-.251l4.655,2.041-1.9-3.505a4.641,4.641,0,0,0,1.6-3.443C55.065,25.37,52.252,23.056,48.8,23.056ZM53.2,33.169,50.784,32.11l-.166.048a6.533,6.533,0,0,1-1.823.261c-2.931,0-5.315-1.886-5.315-4.2s2.384-4.2,5.315-4.2,5.315,1.886,5.315,4.2a3.792,3.792,0,0,1-1.545,2.958l-.313.25Z" transform="translate(-33.443 -17.479)" fill="$black"/>
            <circle id="Эллипс_422" data-name="Эллипс 422" cx="0.705" cy="0.705" r="0.705" transform="translate(11.634 10.212)" fill="$black"/>
            <circle id="Эллипс_423" data-name="Эллипс 423" cx="0.705" cy="0.705" r="0.705" transform="translate(14.648 10.212)" fill="$black"/>
            <circle id="Эллипс_424" data-name="Эллипс 424" cx="0.705" cy="0.705" r="0.705" transform="translate(17.661 10.212)" fill="$black"/>
        </g>
    </g>
</svg>
