<svg width="24" height="24" viewBox="0 0 24 24" fill="none" xmlns="http://www.w3.org/2000/svg">
  <g transform="translate(3, 3)">
    <path d="M9.05829 8.62197L16.3284 15.7401C16.4978 15.9041 16.7244 15.9957 16.9602 15.9957C17.196 15.9957 17.4226 15.9041 17.592 15.7401L18.1279 15.2154C18.2106 15.1349 18.2763 15.0387 18.3212 14.9323C18.3661 14.826 18.3892 14.7118 18.3892 14.5964C18.3892 14.481 18.3661 14.3667 18.3212 14.2604C18.2763 14.1541 18.2106 14.0578 18.1279 13.9773L12.0223 7.99813L18.1343 2.01413C18.217 1.93364 18.2827 1.83739 18.3276 1.73107C18.3725 1.62474 18.3956 1.5105 18.3956 1.39509C18.3956 1.27968 18.3725 1.16544 18.3276 1.05912C18.2827 0.952795 18.217 0.856546 18.1343 0.776057L17.5984 0.251397C17.429 0.0874111 17.2024 -0.00426849 16.9666 -0.00426846C16.7308 -0.00426843 16.5042 0.0874112 16.3348 0.251397L9.05829 7.3759C8.97588 7.45689 8.91042 7.55348 8.86574 7.66004C8.82106 7.7666 8.79805 7.88099 8.79805 7.99653C8.79805 8.11208 8.82106 8.22647 8.86574 8.33303C8.91042 8.43959 8.97588 8.53618 9.05829 8.61717L9.05829 8.62197Z" fill="#1D1D1D" fill-opacity="0.7"/>
    <path d="M0.260073 8.62197L7.53014 15.7401C7.69959 15.9041 7.92616 15.9957 8.16197 15.9957C8.39778 15.9957 8.62434 15.9041 8.79379 15.7401L9.32966 15.2154C9.41237 15.1349 9.47812 15.0387 9.52301 14.9323C9.5679 14.826 9.59102 14.7118 9.59102 14.5964C9.59102 14.481 9.5679 14.3667 9.52301 14.2604C9.47811 14.1541 9.41237 14.0578 9.32966 13.9773L3.22409 7.99813L9.33605 2.01413C9.41877 1.93364 9.48451 1.83739 9.5294 1.73107C9.57429 1.62474 9.59741 1.5105 9.59741 1.39509C9.59741 1.27968 9.57429 1.16544 9.5294 1.05912C9.48451 0.952795 9.41877 0.856546 9.33605 0.776057L8.8002 0.251397C8.63075 0.0874111 8.40417 -0.00426849 8.16836 -0.00426846C7.93255 -0.00426843 7.70599 0.0874112 7.53653 0.251397L0.260073 7.3759C0.177661 7.45689 0.112203 7.55348 0.0675219 7.66004C0.0228394 7.7666 -0.000172725 7.88099 -0.00017271 7.99653C-0.000172695 8.11208 0.0228395 8.22647 0.067522 8.33303C0.112204 8.43959 0.177661 8.53618 0.260073 8.61717L0.260073 8.62197Z" fill="#1D1D1D" fill-opacity="0.7"/>
  </g>
</svg>
