<svg width="24" height="24" viewBox="0 0 24 24" fill="none" xmlns="http://www.w3.org/2000/svg">
  <g transform="translate(3, 3)">
  <path d="M9.33734 7.37804L2.06727 0.259939C1.89782 0.0959531 1.67125 0.00427239 1.43544 0.0042724C1.19964 0.00427241 0.973071 0.0959531 0.803618 0.25994L0.267751 0.7846C0.18504 0.865089 0.119297 0.961337 0.0744064 1.06766C0.0295159 1.17398 0.00639483 1.28822 0.00639484 1.40363C0.00639484 1.51905 0.0295159 1.63329 0.0744065 1.73961C0.119297 1.84593 0.18504 1.94218 0.267751 2.02267L6.37332 8.00187L0.261357 13.9859C0.178645 14.0664 0.112903 14.1626 0.0680123 14.2689C0.0231217 14.3753 6.33169e-07 14.4895 6.38214e-07 14.6049C6.43259e-07 14.7203 0.0231217 14.8346 0.0680123 14.9409C0.112903 15.0472 0.178646 15.1435 0.261357 15.2239L0.797212 15.7486C0.966664 15.9126 1.19324 16.0043 1.42905 16.0043C1.66486 16.0043 1.89142 15.9126 2.06088 15.7486L9.33734 8.62411C9.41975 8.54312 9.48521 8.44652 9.52989 8.33997C9.57457 8.23341 9.59758 8.11902 9.59758 8.00347C9.59758 7.88793 9.57457 7.77354 9.52989 7.66698C9.48521 7.56042 9.41975 7.46383 9.33734 7.38284L9.33734 7.37804Z" fill="#1D1D1D" fill-opacity="0.7"/>
  <path d="M18.1354 7.37804L10.8654 0.259939C10.6959 0.0959531 10.4693 0.00427239 10.2335 0.0042724C9.99773 0.00427241 9.77117 0.0959531 9.60171 0.25994L9.06585 0.7846C8.98314 0.865089 8.91739 0.961337 8.8725 1.06766C8.82761 1.17398 8.80449 1.28822 8.80449 1.40363C8.80449 1.51905 8.82761 1.63329 8.8725 1.73961C8.91739 1.84593 8.98314 1.94218 9.06585 2.02267L15.1714 8.00187L9.05945 13.9859C8.97674 14.0664 8.911 14.1626 8.86611 14.2689C8.82122 14.3753 8.7981 14.4895 8.7981 14.6049C8.7981 14.7203 8.82122 14.8346 8.86611 14.9409C8.911 15.0472 8.97674 15.1435 9.05945 15.2239L9.59531 15.7486C9.76476 15.9126 9.99134 16.0043 10.2271 16.0043C10.463 16.0043 10.6895 15.9126 10.859 15.7486L18.1354 8.62411C18.2178 8.54312 18.2833 8.44652 18.328 8.33997C18.3727 8.23341 18.3957 8.11902 18.3957 8.00347C18.3957 7.88793 18.3727 7.77354 18.328 7.66698C18.2833 7.56042 18.2178 7.46383 18.1354 7.38284L18.1354 7.37804Z" fill="#1D1D1D" fill-opacity="0.7"/>
</g>
</svg>
