<svg xmlns="http://www.w3.org/2000/svg" width="20" height="13" viewBox="0 0 20 13">
    <g id="united-kingdom_1_" data-name="united-kingdom (1)" transform="translate(0 -85.33)">
        <rect id="Прямоугольник_2281" data-name="Прямоугольник 2281" width="20" height="13" transform="translate(0 85.33)" fill="#f0f0f0"/>
        <path id="Контур_6082" data-name="Контур 6082" d="M11.25,85.33H8.75v5.281H0v2.437H8.75V98.33h2.5V93.049H20V90.611H11.25Z" fill="#d80027"/>
        <g id="Сгруппировать_5115" data-name="Сгруппировать 5115" transform="translate(12.132 93.959)">
            <path id="Контур_6083" data-name="Контур 6083" d="M393.785,315.358l4.642,2.579v-2.579Z" transform="translate(-390.56 -315.358)" fill="#0052b4"/>
            <path id="Контур_6084" data-name="Контур 6084" d="M311.652,315.358l7.868,4.371v-1.236l-5.643-3.135Z" transform="translate(-311.652 -315.358)" fill="#0052b4"/>
            <path id="Контур_6085" data-name="Контур 6085" d="M317.424,348.205,311.652,345v3.207Z" transform="translate(-311.652 -343.834)" fill="#0052b4"/>
        </g>
        <path id="Контур_6086" data-name="Контур 6086" d="M311.652,315.358l7.868,4.371v-1.236l-5.643-3.135Z" transform="translate(-299.52 -221.399)" fill="#f0f0f0"/>
        <path id="Контур_6087" data-name="Контур 6087" d="M311.652,315.358l7.868,4.371v-1.236l-5.643-3.135Z" transform="translate(-299.52 -221.399)" fill="#d80027"/>
        <g id="Сгруппировать_5116" data-name="Сгруппировать 5116" transform="translate(0 93.959)">
            <path id="Контур_6088" data-name="Контур 6088" d="M3.548,315.356,0,317.327v-1.971Z" transform="translate(0 -315.356)" fill="#0052b4"/>
            <path id="Контур_6089" data-name="Контур 6089" d="M32.358,329.51v3.815H25.491Z" transform="translate(-24.49 -328.954)" fill="#0052b4"/>
        </g>
        <path id="Контур_6090" data-name="Контур 6090" d="M5.643,315.358,0,318.493v1.236H0l7.868-4.371Z" transform="translate(0 -221.399)" fill="#d80027"/>
        <g id="Сгруппировать_5117" data-name="Сгруппировать 5117" transform="translate(0 85.33)">
            <path id="Контур_6091" data-name="Контур 6091" d="M4.642,133.537,0,130.958v2.579Z" transform="translate(0 -129.166)" fill="#0052b4"/>
            <path id="Контур_6092" data-name="Контур 6092" d="M7.868,89.7,0,85.33v1.236L5.643,89.7Z" transform="translate(0 -85.33)" fill="#0052b4"/>
            <path id="Контур_6093" data-name="Контур 6093" d="M53.366,85.33l5.772,3.207V85.33Z" transform="translate(-51.27 -85.33)" fill="#0052b4"/>
        </g>
        <path id="Контур_6094" data-name="Контур 6094" d="M7.868,89.7,0,85.33v1.236L5.643,89.7Z" fill="#f0f0f0"/>
        <path id="Контур_6095" data-name="Контур 6095" d="M7.868,89.7,0,85.33v1.236L5.643,89.7Z" fill="#d80027"/>
        <g id="Сгруппировать_5118" data-name="Сгруппировать 5118" transform="translate(12.132 85.33)">
            <path id="Контур_6096" data-name="Контур 6096" d="M421.659,148.417l3.548-1.971v1.971Z" transform="translate(-417.339 -144.046)" fill="#0052b4"/>
            <path id="Контур_6097" data-name="Контур 6097" d="M311.652,89.146V85.331h6.867Z" transform="translate(-311.652 -85.331)" fill="#0052b4"/>
        </g>
        <path id="Контур_6098" data-name="Контур 6098" d="M313.877,89.7l5.643-3.135V85.33h0L311.652,89.7Z" transform="translate(-299.52)" fill="#d80027"/>
    </g>
</svg>
