<svg xmlns="http://www.w3.org/2000/svg" xmlns:xlink="http://www.w3.org/1999/xlink" width="24" height="24" viewBox="0 0 24 24">
  <defs>
    <clipPath id="clip-path">
      <rect id="Прямоугольник_2167" data-name="Прямоугольник 2167" width="24" height="24" fill="#222222"/>
    </clipPath>
  </defs>
  <g id="attach" clip-path="url(#clip-path)">
    <path id="Контур_5874" data-name="Контур 5874" d="M3.947,22.676A4.019,4.019,0,0,1,0,18.639V5.373a5.315,5.315,0,1,1,10.63-.058V18.026a.664.664,0,0,1-.664.664h0a.664.664,0,0,1-.664-.664V5.366a3.986,3.986,0,1,0-7.972-.051V18.65a2.658,2.658,0,1,0,5.315.04V8A1.347,1.347,0,0,0,5.355,6.644,1.33,1.33,0,0,0,3.986,7.972V18.026a.664.664,0,0,1-.664.664h0a.664.664,0,0,1-.664-.664V8.013a2.658,2.658,0,1,1,5.315-.04V18.69A3.991,3.991,0,0,1,3.947,22.676Z" transform="translate(13.087 -0.476) rotate(30)" fill="#222222"/>
  </g>
</svg>
