<svg xmlns="http://www.w3.org/2000/svg" width="26" height="24" viewBox="0 0 26 24" fill="none">
  <path d="M24.91 4.78999C24.8591 4.71889 24.792 4.66094 24.7143 4.62094C24.6366 4.58094 24.5504 4.56005 24.463 4.56H3.687L3.34 0.542999C3.3301 0.398304 3.26662 0.2625 3.16196 0.162094C3.0573 0.0616883 2.91897 0.00389093 2.77399 0H0.599991C0.440861 0 0.288257 0.0632136 0.175735 0.175735C0.0632136 0.288257 0 0.440876 0 0.600006C0 0.759136 0.0632136 0.91174 0.175735 1.02426C0.288257 1.13678 0.440861 1.2 0.599991 1.2H2.24799L2.28799 1.67999C2.30799 1.83699 2.31799 1.98 2.32799 2.118C2.33799 2.191 2.33799 2.26401 2.34799 2.34801C2.35623 2.39958 2.35957 2.4518 2.35799 2.504L2.45799 3.56799C2.61699 5.51899 2.94399 9.27601 3.51999 16.058C3.61788 17.0542 4.10259 17.9723 4.87 18.615L5.25699 18.938L4.94899 19.345C4.62777 19.7762 4.43011 20.2868 4.37726 20.8218C4.3244 21.3569 4.41834 21.8963 4.64899 22.382C4.8406 22.8278 5.15002 23.2131 5.54402 23.4964C5.93803 23.7797 6.40175 23.9503 6.88541 23.99C7.36906 24.0297 7.8544 23.9369 8.28931 23.7216C8.72422 23.5063 9.09227 23.1767 9.35399 22.768C9.60857 22.385 9.7707 21.948 9.82762 21.4916C9.88454 21.0352 9.83469 20.5718 9.68199 20.138L9.444 19.438H16.7L16.462 20.138C16.3086 20.5722 16.2593 21.0363 16.3178 21.4931C16.3763 21.9498 16.5411 22.3865 16.799 22.768C17.0376 23.1445 17.3673 23.4547 17.7576 23.6699C18.148 23.885 18.5863 23.9982 19.032 23.999C19.7731 23.9652 20.4726 23.647 20.9851 23.1106C21.4975 22.5742 21.7835 21.8608 21.7835 21.119C21.7835 20.3771 21.4975 19.6638 20.9851 19.1274C20.4726 18.591 19.7731 18.2728 19.032 18.239H7.112C6.61799 18.2322 6.13737 18.0774 5.73219 17.7947C5.32702 17.512 5.01589 17.1143 4.83899 16.653L4.56099 15.975L22.329 14.875C22.4514 14.8644 22.5673 14.8151 22.6601 14.7345C22.7528 14.6538 22.8175 14.5458 22.845 14.426L25.019 5.29601C25.0378 5.20876 25.0378 5.1185 25.019 5.03125C25.0002 4.944 24.9631 4.86175 24.91 4.78999ZM19.034 19.44C19.3704 19.421 19.7047 19.5034 19.9938 19.6765C20.2828 19.8496 20.5133 20.1055 20.6552 20.4111C20.7972 20.7166 20.8442 21.0578 20.7902 21.3903C20.7361 21.7229 20.5835 22.0316 20.3521 22.2764C20.1206 22.5213 19.821 22.691 19.492 22.7637C19.163 22.8364 18.8198 22.8086 18.5067 22.6841C18.1937 22.5595 17.9252 22.3438 17.7361 22.065C17.547 21.7861 17.4459 21.4569 17.446 21.12C17.4352 20.6872 17.596 20.2677 17.8933 19.953C18.1906 19.6383 18.6003 19.4539 19.033 19.44H19.034ZM7.112 19.44C7.44776 19.4236 7.78073 19.5082 8.06795 19.6829C8.35517 19.8575 8.58346 20.1143 8.72337 20.4199C8.86329 20.7256 8.90841 21.0662 8.85291 21.3977C8.7974 21.7293 8.64382 22.0366 8.41199 22.28C8.18015 22.5234 7.88069 22.6918 7.55225 22.7634C7.2238 22.835 6.88144 22.8065 6.56932 22.6817C6.2572 22.5569 5.98964 22.3414 5.80118 22.063C5.61272 21.7846 5.51199 21.4562 5.51199 21.12C5.50668 20.9046 5.54384 20.6903 5.62138 20.4893C5.69893 20.2883 5.81533 20.1045 5.96391 19.9485C6.1125 19.7925 6.29036 19.6673 6.48735 19.58C6.68434 19.4928 6.89661 19.4452 7.112 19.44ZM21.843 13.711L4.55099 14.775L3.78699 5.759H23.724L21.843 13.711Z" fill="white"/>
</svg>