<svg xmlns="http://www.w3.org/2000/svg" width="40" height="40" viewBox="0 0 40 40" fill="none">
<mask id="mask0_1547_7461" style="mask-type:luminance" maskUnits="userSpaceOnUse" x="0" y="-1" width="40" height="41">
<path d="M40 -0.0839844H0V39.7701H40V-0.0839844Z" fill="white"/>
</mask>
<g mask="url(#mask0_1547_7461)">
<path d="M32.2287 7.65464C31.0084 6.43067 29.5507 5.46706 27.9445 4.82254C26.3383 4.17801 24.6172 3.86607 22.886 3.9057C22.1276 3.91989 21.3965 4.19063 20.8128 4.67344C20.2291 5.15625 19.8276 5.82244 19.6741 6.56264L17.63 16.4598L4.85805 29.1745C4.30349 29.7299 3.99219 30.4815 3.99219 31.2649C3.99219 32.0483 4.30349 32.7999 4.85805 33.3552L6.42739 34.9175C6.98445 35.4722 7.7398 35.7839 8.52738 35.7839C9.31497 35.7839 10.0703 35.4722 10.6274 34.9175L23.1367 22.4644L33.3781 20.1742C34.1103 20.0139 34.7667 19.6117 35.2406 19.033C35.7146 18.4542 35.9782 17.7327 35.9887 16.9858V16.9513C36.0254 15.2289 35.7111 13.517 35.0649 11.9191C34.4186 10.3212 33.4538 8.87043 32.2287 7.65464ZM16.282 27.1911L9.59005 33.8534C9.36564 34.0661 9.07323 34.1934 8.7641 34.2128C8.45496 34.2323 8.14883 34.1426 7.89937 33.9597L5.92739 32.3018C5.65308 32.0259 5.49917 31.6532 5.49917 31.2649C5.49917 30.8765 5.65308 30.5039 5.92739 30.228L12.6314 23.5564L16.282 27.1911ZM34.4967 17.0576C34.4705 17.4525 34.3163 17.8283 34.0574 18.1285C33.7984 18.4287 33.4487 18.637 33.0607 18.7221L23.25 20.9181L22.9274 20.5966L27.7554 18.7208C27.9379 18.6422 28.0815 18.4947 28.1548 18.3106C28.2281 18.1264 28.2249 17.9209 28.1461 17.7391C28.0672 17.5573 27.9191 17.4141 27.7343 17.3411C27.5495 17.2681 27.3432 17.2713 27.1607 17.3498L21.7887 19.4608L21.63 19.304L23.9167 17.027C24.0206 16.9222 24.0911 16.7891 24.1193 16.6445C24.1475 16.4999 24.1321 16.3503 24.0751 16.2143C24.018 16.0784 23.9219 15.9624 23.7989 15.8807C23.6758 15.7991 23.5312 15.7556 23.3834 15.7557C23.1838 15.7595 22.9931 15.8388 22.8501 15.9775L20.5647 18.2532L20.4207 18.1097L22.8501 12.9738C22.9302 12.7922 22.9345 12.5863 22.8623 12.4015C22.79 12.2166 22.647 12.0679 22.4647 11.9881C22.2824 11.9083 22.0758 11.9039 21.8902 11.9759C21.7047 12.0479 21.5555 12.1904 21.4754 12.372L19.2834 16.9712L19.1021 16.7919L21.1527 6.86554C21.2387 6.4587 21.4604 6.09284 21.7817 5.82751C22.1029 5.56217 22.5049 5.41299 22.9221 5.40422H23.15C26.1223 5.40399 28.9761 6.56506 31.0986 8.6381C33.2211 10.7111 34.4431 13.5308 34.5021 16.4916C34.5021 16.6395 34.5021 16.787 34.5021 16.934V17.0669L34.4967 17.0576ZM21.8527 21.6421L17.3367 26.1377L13.6847 22.5016L18.2007 18.0074L21.8527 21.6421Z" fill="rgb(102, 34, 224)"/>
</g>
</svg>