<svg xmlns="http://www.w3.org/2000/svg" width="40" height="40" viewBox="0 0 40 40" fill="none">
<mask id="mask0_1547_7567" style="mask-type:luminance" maskUnits="userSpaceOnUse" x="0" y="-1" width="40" height="41">
<path d="M40 -0.0839844H0V39.7701H40V-0.0839844Z" fill="white"/>
</mask>
<g mask="url(#mask0_1547_7567)">
<path d="M35.2227 7.88672H4.77738C4.5692 7.88917 4.37049 7.97374 4.22478 8.1219C4.07908 8.27006 3.99826 8.46974 4.00004 8.67716V14.5889C3.99786 14.7978 4.0781 14.9992 4.22348 15.1498C4.36886 15.3003 4.56777 15.388 4.77738 15.3939H5.90671V32.3386C5.90423 32.4405 5.92204 32.5419 5.95911 32.6369C5.99618 32.7319 6.05178 32.8187 6.12269 32.8922C6.1936 32.9656 6.27842 33.0244 6.37225 33.0651C6.46608 33.1057 6.56707 33.1275 6.66938 33.129H33.316C33.5242 33.1265 33.7229 33.042 33.8686 32.8938C34.0143 32.7456 34.0952 32.546 34.0934 32.3386V15.3926H35.224C35.4337 15.3867 35.6326 15.299 35.7779 15.1484C35.9233 14.9979 36.0036 14.7965 36.0014 14.5875V8.67584C35.9994 8.46946 35.9171 8.27188 35.7719 8.1247C35.6266 7.97752 35.4298 7.89221 35.2227 7.88672ZM32.556 31.5468H7.44671V15.3926H32.5534L32.556 31.5468ZM34.4627 13.7971H5.54004V9.46626H34.46L34.4627 13.7971Z" fill="#6E00E5"/>
<path d="M23.1264 18.2275H16.8731C16.2347 18.2738 15.6375 18.5591 15.2016 19.0261C14.7657 19.4931 14.5234 20.1072 14.5234 20.745C14.5234 21.3828 14.7657 21.9969 15.2016 22.4639C15.6375 22.9309 16.2347 23.2162 16.8731 23.2625H23.1264C23.4569 23.2629 23.7842 23.1973 24.0888 23.0696C24.3934 22.9418 24.6692 22.7544 24.8998 22.5185C25.1367 22.2861 25.3248 22.009 25.453 21.7033C25.5812 21.3977 25.647 21.0696 25.6464 20.7383C25.6429 20.0735 25.3763 19.4369 24.9045 18.9668C24.4326 18.4967 23.7937 18.231 23.1264 18.2275ZM23.1264 21.8144H16.8731C16.5884 21.8144 16.3154 21.7018 16.1141 21.5012C15.9129 21.3006 15.7998 21.0286 15.7998 20.745C15.7998 20.4614 15.9129 20.1894 16.1141 19.9888C16.3154 19.7883 16.5884 19.6756 16.8731 19.6756H23.1264C23.4111 19.6756 23.6841 19.7883 23.8854 19.9888C24.0867 20.1894 24.1998 20.4614 24.1998 20.745C24.1998 21.0286 24.0867 21.3006 23.8854 21.5012C23.6841 21.7018 23.4111 21.8144 23.1264 21.8144Z" fill="#6E00E5"/>
</g>
</svg>