<svg xmlns="http://www.w3.org/2000/svg" width="40" height="40" viewBox="0 0 40 40" fill="none">
<path d="M26.1234 31.55C26.0737 31.5056 26.0287 31.4562 25.9887 31.4028L19.4066 23.99L12.8246 31.4028C12.7836 31.4547 12.7393 31.5041 12.6918 31.55C12.2226 32.0194 11.5859 32.2829 10.9223 32.283C10.2587 32.2831 9.62204 32.0197 9.15274 31.5505C8.68344 31.0814 8.42041 30.4448 8.42032 29.7812C8.42022 29.1177 8.68357 28.4813 9.15274 28.012C9.19881 27.9623 9.2487 27.9159 9.30117 27.873L16.8871 21.148C16.4501 20.6539 15.7519 19.875 15.5609 19.658C14.67 20.0921 13.6652 20.2371 12.6879 20.0725C11.7106 19.9079 10.8094 19.442 10.1098 18.74C8.75543 17.4467 7.76681 15.8184 7.24453 14.02C7.00563 13.3294 6.95394 12.5876 7.0961 11.8709C7.23826 11.1541 7.56875 10.488 8.05313 9.94092C8.40158 9.60718 8.81318 9.34681 9.26407 9.17505C9.71495 9.00329 10.1959 8.92362 10.6781 8.94092C11.1691 8.94564 11.6577 9.00969 12.1332 9.13184C13.9315 9.65416 15.5593 10.6432 16.852 11.998C17.5559 12.6967 18.0232 13.5984 18.1879 14.5764C18.3526 15.5544 18.2063 16.5593 17.7699 17.45L19.4066 18.9009L21.1234 17.3809C20.9207 16.7693 20.8911 16.1134 21.0395 15.4863C21.1878 14.8593 21.508 14.2858 21.9633 13.8298L27.9066 7.87988C27.9592 7.82745 28.0216 7.78588 28.0902 7.75757C28.1589 7.72926 28.2328 7.71472 28.307 7.71484C28.4568 7.71567 28.6007 7.7749 28.7074 7.87988C28.8127 7.9864 28.8715 8.13027 28.8715 8.28003C28.8715 8.42979 28.8127 8.57342 28.7074 8.67993L22.7582 14.625C22.4149 14.9691 22.1861 15.411 22.1039 15.8901C22.0217 16.3693 22.0902 16.8622 22.2992 17.301C22.3513 17.4113 22.3665 17.5353 22.3422 17.6548C22.3179 17.7743 22.2555 17.8827 22.1645 17.9639L18.3109 21.385L18.2582 21.437L10.0297 28.729C10.0007 28.759 9.97266 28.7809 9.94766 28.8069C9.82004 28.9348 9.71943 29.0867 9.65078 29.2539C9.58213 29.4211 9.54836 29.6003 9.54922 29.781C9.54792 30.1474 9.69017 30.4994 9.94766 30.76C10.2064 31.018 10.5569 31.1628 10.9223 31.1628C11.2876 31.1628 11.6382 31.018 11.8969 30.76C11.9219 30.734 11.948 30.7041 11.975 30.6741L11.9828 30.665L20.7211 20.823C20.7211 20.823 20.7211 20.823 20.7211 20.814L22.7387 18.541C22.7922 18.4829 22.8578 18.4363 22.9301 18.4043C23.0023 18.3723 23.0796 18.3555 23.1586 18.355C23.2421 18.3543 23.3249 18.3721 23.4008 18.407C23.8387 18.616 24.3306 18.6845 24.809 18.603C25.2874 18.5216 25.7286 18.2941 26.0727 17.9519L32.0238 12.002C32.1302 11.8964 32.2744 11.8371 32.4242 11.8369C32.5351 11.8379 32.643 11.8718 32.7348 11.9341C32.8266 11.9963 32.8979 12.0841 32.9398 12.1868C32.9818 12.2894 32.993 12.4023 32.9711 12.511C32.9492 12.6197 32.8952 12.7194 32.8168 12.7979L26.8734 18.7429C26.5513 19.0668 26.1666 19.3235 25.7445 19.4983C25.3224 19.673 24.8713 19.7624 24.4145 19.761C24.0407 19.7611 23.6678 19.7013 23.3129 19.584L21.9281 21.147L29.5102 27.876C29.562 27.9188 29.6113 27.9652 29.6566 28.0149C29.889 28.2471 30.0739 28.523 30.1996 28.8264C30.3254 29.1299 30.389 29.4552 30.3891 29.7837C30.3891 30.1122 30.3253 30.4375 30.1996 30.741C30.0739 31.0445 29.8889 31.3202 29.6566 31.5525C29.4244 31.7848 29.1496 31.969 28.8461 32.0947C28.5426 32.2205 28.2176 32.2854 27.8891 32.2854C27.5606 32.2854 27.2355 32.2206 26.932 32.095C26.6285 31.9693 26.3518 31.7852 26.1195 31.553L26.1234 31.55ZM20.1606 23.1409L26.8422 30.6709C26.864 30.7 26.8884 30.7275 26.9145 30.7529C27.1744 31.0129 27.5273 31.1593 27.8949 31.1599C28.0755 31.1609 28.2533 31.126 28.4203 31.0574C28.5873 30.9887 28.7399 30.8877 28.8676 30.76C29.1256 30.5005 29.2699 30.1494 29.2699 29.7834C29.2699 29.4175 29.1256 29.0664 28.8676 28.8069C28.8426 28.7809 28.8166 28.759 28.7816 28.729L28.7738 28.72L21.1859 21.9871L20.1606 23.1409ZM16.1078 18.5769L17.7231 20.3999L18.559 19.655L16.6918 17.9971C16.592 17.9091 16.5258 17.7885 16.5063 17.657C16.4867 17.5254 16.5146 17.3911 16.5844 17.2778C17.0157 16.5809 17.198 15.7585 17.102 14.9446C17.0059 14.1306 16.6368 13.3732 16.0551 12.7959C14.9065 11.583 13.4583 10.6957 11.8559 10.2239C11.471 10.1242 11.0757 10.0718 10.6781 10.0679C10.3432 10.0517 10.007 10.1025 9.6918 10.217C9.37659 10.3316 9.08868 10.5075 8.84219 10.7349C8.50152 11.149 8.2738 11.6451 8.18399 12.1738C8.09418 12.7025 8.14568 13.2456 8.33047 13.749C8.80296 15.3511 9.68853 16.7999 10.9008 17.949C11.2366 18.29 11.6369 18.5605 12.0785 18.7449C12.5201 18.9293 12.9945 19.0239 13.473 19.023C14.1492 19.0207 14.8116 18.8318 15.3871 18.4771C15.4739 18.4217 15.5752 18.3931 15.6781 18.395C15.7584 18.394 15.8386 18.4097 15.9125 18.4412C15.9864 18.4727 16.0529 18.5183 16.1078 18.5769ZM25.807 16.0959C25.7018 15.9894 25.643 15.8458 25.643 15.696C25.643 15.5463 25.7018 15.4024 25.807 15.2959L30.6 10.5068C30.651 10.4537 30.7137 10.4117 30.7816 10.3833C30.8496 10.3549 30.9228 10.3409 30.9965 10.342C31.0708 10.3411 31.1445 10.3552 31.2133 10.3835C31.282 10.4119 31.3428 10.4538 31.3949 10.5068C31.4998 10.6136 31.5588 10.7573 31.559 10.907C31.5579 11.0565 31.4991 11.1997 31.3949 11.3069L26.6059 16.0959C26.4986 16.2002 26.357 16.2593 26.2074 16.261C26.0567 16.2619 25.9104 16.2028 25.8031 16.0969L25.807 16.0959ZM24.5082 14.814C24.4039 14.707 24.3441 14.5635 24.3441 14.4141C24.3441 14.2646 24.4039 14.1209 24.5082 14.0139L29.3031 9.22485C29.355 9.17276 29.4169 9.13148 29.4848 9.10327C29.5526 9.07506 29.6242 9.06055 29.6977 9.06055C29.7712 9.06055 29.8446 9.07506 29.9125 9.10327C29.9804 9.13148 30.0423 9.17276 30.0941 9.22485C30.1465 9.27665 30.1869 9.33852 30.2152 9.40649C30.2436 9.47447 30.2582 9.54719 30.2582 9.62085C30.2582 9.69451 30.2436 9.76748 30.2152 9.83545C30.1869 9.90342 30.1465 9.96505 30.0941 10.0168L25.3051 14.8101C25.1987 14.9156 25.0545 14.9747 24.9047 14.9749C24.7539 14.9764 24.6081 14.9194 24.4984 14.8159L24.5082 14.814Z" fill="#6E00E5"/>
</svg>