<svg xmlns="http://www.w3.org/2000/svg" viewBox="0 0 43.219 63.874">
    <g id="employee" transform="translate(-24.048 -0.001)">
        <path id="Объединение_3" data-name="Объединение 3" d="M-14508.009-5192.128a1.016,1.016,0,0,1-.976-1.052l.825-20.627a4.82,4.82,0,0,0-.193-1.588l-3.3,3.3a4.939,4.939,0,0,0-1.457,3.513v15.445a1.015,1.015,0,0,1-1.016,1.015,1.017,1.017,0,0,1-1.015-1.015v-15.445a6.968,6.968,0,0,1,2.052-4.951l3.721-3.721a5.478,5.478,0,0,0-1.932-1.632l-4.763-1.841-4.139,6.208a3.006,3.006,0,0,1-2.21,1.329c-.1.007-.2.014-.295.014a3,3,0,0,1-1.56-.441,29.755,29.755,0,0,0-3.118-3.21c-.241.081-2.5,2.662-3.115,3.21a2.993,2.993,0,0,1-1.559.441c-.1,0-.2-.007-.3-.014a3.006,3.006,0,0,1-2.209-1.329l-4.141-6.211-5.426,2.092a4.945,4.945,0,0,0-1.972,1.384l3.721,3.721a6.962,6.962,0,0,1,2.052,4.951c0,16-.456,16.46-1.015,16.46a1.015,1.015,0,0,1-1.016-1.015v-15.445a4.939,4.939,0,0,0-1.457-3.513l-3.3-3.3a4.98,4.98,0,0,0-.193,1.588l.825,20.627a1.014,1.014,0,0,1-.976,1.052.155.155,0,0,1-.04,0,1.014,1.014,0,0,1-1.015-.975l-.825-20.627a7,7,0,0,1,4.477-6.81l5.813-2.242,2.968-2.968a1.009,1.009,0,0,1,.7-.3v-2.424a10.945,10.945,0,0,1-2.8-5.525s0,0,0,0a2.787,2.787,0,0,1-.777-.055,3.1,3.1,0,0,1-2.406-3.078v-.767a3.107,3.107,0,0,1,1.749-2.833,26.563,26.563,0,0,1-.752-6.244c0-4.918,3.516-5.809,4.75-5.97a14.216,14.216,0,0,1,8.18-3.023c4.775-.259,8.529,1.026,10.859,3.713,2.413,2.79,3.184,6.967,2.23,12.094a3.13,3.13,0,0,1,.949,2.253v.777a3.105,3.105,0,0,1-2.409,3.078,2.791,2.791,0,0,1-.778.055s0,0,0,0a10.939,10.939,0,0,1-2.8,5.525v2.424a1.006,1.006,0,0,1,.7.3l2.969,2.968,5.1,1.967h0l.018.007.049.019.038.016a7.377,7.377,0,0,1,4.376,7.042l-.825,20.627a1.016,1.016,0,0,1-1.015.975A.175.175,0,0,1-14508.009-5192.128Zm-17.885-25.871,2.5,2.5a.97.97,0,0,0,.793.281.967.967,0,0,0,.715-.431l4.174-6.258-1.73-1.734Zm-11.151-3.907,4.173,6.258a.978.978,0,0,0,.72.431.978.978,0,0,0,.789-.281l2.5-2.5-6.448-5.641Zm3.7-2.713,5.967,5.225,5.967-5.225v-2.158a10.941,10.941,0,0,1-5.967,1.767,10.941,10.941,0,0,1-5.967-1.767Zm-2.833-9.753a8.948,8.948,0,0,0,8.8,7.332,8.945,8.945,0,0,0,8.8-7.332,2.031,2.031,0,0,1,2.106-1.65.943.943,0,0,0,.264-.018,1.086,1.086,0,0,0,.785-1.088v-.777a1.058,1.058,0,0,0-.8-1.052,2.336,2.336,0,0,0-.818.059,1.7,1.7,0,0,1-1.968-1.008l-.789-1.9c-2.734.551-11.141,1.731-15.357-3.523a1.016,1.016,0,0,1,.156-1.428,1.012,1.012,0,0,1,1.425.157c4.162,5.178,14.028,2.662,14.127,2.633a1.019,1.019,0,0,1,1.194.591l1.015,2.447a4.387,4.387,0,0,1,.982-.069c.708-4.276.073-7.7-1.854-9.925-1.9-2.194-5.087-3.239-9.213-3.016a12.056,12.056,0,0,0-7.168,2.713,1.019,1.019,0,0,1-.7.281,3.516,3.516,0,0,0-1.617.515,3.785,3.785,0,0,0-1.522,3.458,24.3,24.3,0,0,0,.777,6.073,2.991,2.991,0,0,1,1.19.643,5.791,5.791,0,0,0,1.128-1.3,1.014,1.014,0,0,1,1.4-.318,1.018,1.018,0,0,1,.318,1.4,7.7,7.7,0,0,1-2.082,2.194,1.449,1.449,0,0,1-1.245.2,1.457,1.457,0,0,1-.727-.511.981.981,0,0,0-.964-.369,1.069,1.069,0,0,0-.792,1.066v.767a1.081,1.081,0,0,0,.785,1.088.9.9,0,0,0,.259.018c.048,0,.092,0,.139,0A2.032,2.032,0,0,1-14536.18-5234.372Z" transform="translate(14573.391 5256)"/>
    </g>
</svg>