<svg xmlns="http://www.w3.org/2000/svg" width="40" height="40" viewBox="0 0 40 40" fill="none">
<mask id="mask0_1547_7517" style="mask-type:luminance" maskUnits="userSpaceOnUse" x="0" y="-1" width="40" height="41">
<path d="M40 -0.0839844H0V39.7701H40V-0.0839844Z" fill="white"/>
</mask>
<g mask="url(#mask0_1547_7517)">
<path d="M36.0294 16.5042L36.0161 16.4909L35.2281 15.6394L32.5507 8.47629C32.3375 7.91467 31.9585 7.43059 31.4637 7.0879C30.9688 6.74521 30.3814 6.55998 29.7787 6.55664H10.6841C10.0793 6.55803 9.48925 6.74231 8.9919 7.08508C8.49455 7.42785 8.11336 7.91298 7.89873 8.47629L5.23207 15.6115L4.13073 16.6251C3.67142 17.0065 3.30194 17.4838 3.04847 18.0233C2.79501 18.5629 2.66377 19.1513 2.66406 19.747V30.1941C2.67249 30.975 2.98975 31.721 3.54695 32.2702C4.10414 32.8194 4.85629 33.1274 5.64007 33.1274H7.61339C8.39656 33.1295 9.14853 32.8217 9.70406 32.2717C10.2596 31.7217 10.5732 30.9744 10.5761 30.1941V28.5309H29.4107V30.1928C29.4192 30.9737 29.7364 31.7197 30.2936 32.2689C30.8508 32.8181 31.603 33.1261 32.3867 33.1261H34.3574C35.1412 33.1261 35.8933 32.8181 36.4505 32.2689C37.0077 31.7197 37.325 30.9737 37.3334 30.1928V19.476C37.3255 18.9191 37.206 18.3694 36.9821 17.8591C36.7582 17.3488 36.4343 16.8882 36.0294 16.5042ZM9.0134 8.8695C9.14448 8.5371 9.37232 8.25134 9.66764 8.04894C9.96297 7.84654 10.3123 7.73675 10.6707 7.73367H29.7907C30.1498 7.73403 30.5003 7.84276 30.7962 8.04551C31.092 8.24827 31.3193 8.53553 31.4481 8.8695L33.8481 15.3153H31.7547L31.7281 15.1824C31.5491 14.012 30.9552 12.9442 30.0539 12.1726C29.1526 11.401 28.0037 10.9768 26.8154 10.9768C25.6271 10.9768 24.4782 11.401 23.5769 12.1726C22.6756 12.9442 22.0817 14.012 21.9027 15.1824L21.8761 15.3153H6.60806L9.0134 8.8695ZM30.5521 15.3153H23.0774L23.1187 15.1266C23.2996 14.2817 23.7661 13.5242 24.4401 12.9808C25.1142 12.4374 25.955 12.1409 26.8221 12.1409C27.6891 12.1409 28.53 12.4374 29.204 12.9808C29.878 13.5242 30.3445 14.2817 30.5254 15.1266L30.5521 15.3153ZM9.40007 30.1941C9.39275 30.6606 9.20233 31.1057 8.8696 31.434C8.53687 31.7623 8.08831 31.9476 7.62006 31.9504H5.64273C5.1731 31.9521 4.72195 31.7682 4.38824 31.439C4.05454 31.1097 3.86555 30.662 3.86273 30.1941V27.9782L4.09339 28.1111C4.55858 28.3964 5.09661 28.5417 5.64273 28.5296H9.40007V30.1941ZM5.64939 27.3432H5.62273C5.39592 27.3445 5.1711 27.3011 4.96124 27.2153C4.75139 27.1296 4.56066 27.0033 4.40007 26.8437C4.23143 26.6859 4.09708 26.4953 4.00534 26.2837C3.9136 26.0722 3.86643 25.844 3.86673 25.6136V19.7484C3.86581 19.3228 3.95913 18.9022 4.14005 18.5166C4.32096 18.1311 4.58502 17.7901 4.91339 17.5179L4.92673 17.4913L6.00006 16.5042H34.4001L35.1747 17.3146C35.1881 17.3279 35.1881 17.3412 35.2014 17.3558C35.4917 17.6294 35.7232 17.9589 35.882 18.3242C36.0408 18.6896 36.1236 19.0832 36.1254 19.4813V25.6082C36.1194 26.0702 35.9303 26.511 35.5993 26.8346C35.2684 27.1581 34.8224 27.3381 34.3587 27.3353H5.64273L5.64939 27.3432ZM36.1307 30.3429C36.0859 30.7828 35.8793 31.1906 35.5506 31.4876C35.2219 31.7847 34.7945 31.95 34.3507 31.9517H32.3734C31.9051 31.949 31.4566 31.7636 31.1239 31.4353C30.7911 31.107 30.6007 30.662 30.5934 30.1955V28.5309H34.3441C34.8904 28.545 35.429 28.3996 35.8934 28.1124L36.1374 27.9796L36.1307 30.3429Z" fill="#6E00E5"/>
<path d="M13.52 19.8282H8.02665C7.95017 19.828 7.87443 19.843 7.8039 19.8725C7.73337 19.902 7.6695 19.9452 7.61604 19.9997C7.56259 20.0542 7.52065 20.1189 7.4927 20.1898C7.46475 20.2607 7.45135 20.3365 7.45331 20.4127V24.1988C7.45243 24.2747 7.46657 24.35 7.49491 24.4205C7.52325 24.4909 7.56523 24.5551 7.61847 24.6094C7.67171 24.6637 7.73516 24.707 7.8052 24.7368C7.87524 24.7667 7.95048 24.7825 8.02665 24.7834H13.52C13.6751 24.782 13.8236 24.7199 13.9333 24.6106C14.043 24.5013 14.1053 24.3534 14.1067 24.1988V20.3994C14.1058 20.3235 14.0899 20.2485 14.06 20.1787C14.03 20.109 13.9866 20.0457 13.9321 19.9927C13.8776 19.9397 13.8132 19.8978 13.7425 19.8696C13.6718 19.8414 13.5962 19.8273 13.52 19.8282ZM12.9467 23.6276H8.61332V20.9839H12.9467V23.6276Z" fill="#6E00E5"/>
<path d="M31.9589 19.8281H26.4656C26.3884 19.8276 26.3119 19.8424 26.2405 19.8716C26.169 19.9007 26.1041 19.9438 26.0496 19.9982C25.995 20.0525 25.9518 20.1172 25.9225 20.1884C25.8932 20.2595 25.8784 20.3358 25.8789 20.4127V24.1988C25.8803 24.3534 25.9426 24.5013 26.0523 24.6106C26.162 24.7199 26.3104 24.7819 26.4656 24.7833H31.9589C32.1141 24.7819 32.2625 24.7199 32.3722 24.6106C32.4819 24.5013 32.5442 24.3534 32.5456 24.1988V20.3994C32.5414 20.2469 32.4779 20.102 32.3684 19.9954C32.2589 19.8888 32.112 19.8288 31.9589 19.8281ZM31.3723 23.6276H27.0523V20.9839H31.3856L31.3723 23.6276Z" fill="#6E00E5"/>
<path d="M22.5404 22.291C22.5404 22.6098 22.3684 22.8755 22.1604 22.8755H17.587C17.371 22.8755 17.207 22.6098 17.207 22.291C17.207 21.9721 17.371 21.7197 17.587 21.7197H22.1604C22.3684 21.7197 22.5404 21.9721 22.5404 22.291Z" fill="#6E00E5"/>
</g>
</svg>