<svg xmlns="http://www.w3.org/2000/svg" width="25" height="24" viewBox="0 0 25 24">
  <g id="basket" transform="translate(-243.41 -244.5)">
    <path id="Path_16" data-name="Path 16" d="M268.286,249.29a.55.55,0,0,0-.447-.23H247.063l-.347-4.017a.583.583,0,0,0-.566-.543h-2.174a.6.6,0,0,0,0,1.2h1.648l.04.48c.02.157.03.3.04.438.01.073.01.146.02.23a.83.83,0,0,1,.01.156l.1,1.064c.159,1.951.486,5.708,1.062,12.49a3.823,3.823,0,0,0,1.35,2.557l.387.323-.308.407a2.959,2.959,0,0,0-.3,3.037,2.672,2.672,0,0,0,4.705.386,2.97,2.97,0,0,0,.328-2.63l-.238-.7h7.256l-.238.7a2.945,2.945,0,0,0,.337,2.63,2.649,2.649,0,0,0,2.233,1.231,2.883,2.883,0,0,0,0-5.76H250.488a2.471,2.471,0,0,1-2.273-1.586l-.278-.678,17.768-1.1a.581.581,0,0,0,.516-.449l2.174-9.13A.628.628,0,0,0,268.286,249.29Zm-5.876,14.65a1.683,1.683,0,1,1-1.588,1.68A1.64,1.64,0,0,1,262.409,263.94Zm-11.922,0a1.682,1.682,0,1,1-1.6,1.68A1.64,1.64,0,0,1,250.488,263.94Zm14.731-5.729-17.292,1.064-.764-9.016H267.1Z" fill="$black"/>
  </g>
</svg>
