<svg
        xmlns="http://www.w3.org/2000/svg"
        width="20.5"
        height="20.5"
        viewBox="0 0 20.5 20.5"
>
    <path
            id="Объединение_50"
            d="M-3110.353,11863.457a.561.561,0,0,1-.334-.517v-3.132a4.794,4.794,0,0,1-3.008-1.569,5.121,5.121,0,0,1-1.306-3.449l.01-6.721a5.166,5.166,0,0,1,1.421-3.579,4.72,4.72,0,0,1,3.439-1.489h10.783a4.706,4.706,0,0,1,3.434,1.489,5.155,5.155,0,0,1,1.413,3.584v6.716a4.972,4.972,0,0,1-4.857,5.07h-6.255l-4.149,3.482a.541.541,0,0,1-.381.158A.5.5,0,0,1-3110.353,11863.457Zm-3.549-15.383-.01,6.718a4,4,0,0,0,1.159,2.863,3.664,3.664,0,0,0,2.609,1.089.555.555,0,0,1,.546.558v2.355l3.392-2.756a.537.537,0,0,1,.376-.157h6.472a3.87,3.87,0,0,0,3.771-3.954v-6.716a3.822,3.822,0,0,0-3.761-3.957h-10.783A3.83,3.83,0,0,0-3113.9,11848.074Zm11.284,3.358a1.239,1.239,0,0,1,1.214-1.257,1.237,1.237,0,0,1,1.214,1.257,1.236,1.236,0,0,1-1.214,1.256A1.238,1.238,0,0,1-3102.617,11851.433Zm-3.347,0a1.238,1.238,0,0,1,1.214-1.257,1.183,1.183,0,0,1,.86.372,1.266,1.266,0,0,1,.354.885,1.236,1.236,0,0,1-1.214,1.256A1.238,1.238,0,0,1-3105.964,11851.433Zm-3.347,0a1.238,1.238,0,0,1,1.214-1.257,1.182,1.182,0,0,1,.86.372,1.268,1.268,0,0,1,.354.885,1.236,1.236,0,0,1-1.214,1.256A1.238,1.238,0,0,1-3109.311,11851.433Z"
            transform="translate(3115.001 -11843.001)"
            fill="rgb(102, 34, 224)"
    />
</svg>