<svg xmlns="http://www.w3.org/2000/svg" xmlns:xlink="http://www.w3.org/1999/xlink" width="36" height="30" viewBox="0 0 36 30">
  <defs>
    <clipPath id="clip-path">
      <rect id="Прямоугольник_147729" data-name="Прямоугольник 147729" width="36" height="30" transform="translate(160 476)" fill="$black"/>
    </clipPath>
  </defs>
  <g id="comment" transform="translate(-160 -476)" clip-path="url(#clip-path)">
    <g id="Сгруппировать_10504" data-name="Сгруппировать 10504" transform="translate(-79.49 234.121)">
      <path id="Контур_5912" data-name="Контур 5912" d="M266.69,248.88H248.54a2.051,2.051,0,0,0-2.05,2.04v12.57a2.053,2.053,0,0,0,2.05,2.05h18.15a2.053,2.053,0,0,0,2.05-2.05V250.92A2.051,2.051,0,0,0,266.69,248.88Zm-18.44,1.35a.929.929,0,0,1,.29-.05h18.15a.982.982,0,0,1,.29.05l.07.04-.06.05-9.38,8.13-.03-.03-9.41-8.15Zm19.19,13.26a.749.749,0,0,1-.75.75H248.54a.743.743,0,0,1-.75-.75V251.65l.08.07,9.32,8.07a.652.652,0,0,0,.85,0l9.4-8.14Z" fill="$black"/>
    </g>
  </g>
</svg>
