<svg xmlns="http://www.w3.org/2000/svg" width="40" height="40" viewBox="0 0 40 40" fill="none">
<mask id="mask0_1547_7429" style="mask-type:luminance" maskUnits="userSpaceOnUse" x="0" y="-1" width="40" height="41">
<path d="M40 -0.0839844H0V39.7701H40V-0.0839844Z" fill="white"/>
</mask>
<g mask="url(#mask0_1547_7429)">
<path d="M33.8905 27.9135C33.7582 27.7276 33.6101 27.5533 33.4478 27.3927L31.8651 25.8172C31.0651 25.0028 30.9531 24.9085 30.9318 24.8872L23.7038 19.5734L26.6584 16.6135L26.7798 16.6534C27.8812 17.0424 29.0737 17.0972 30.2065 16.811C31.3392 16.5248 32.3613 15.9104 33.1437 15.0455C33.926 14.1806 34.4334 13.1039 34.6017 11.9517C34.7699 10.7995 34.5916 9.62351 34.0891 8.57229C34.0102 8.40989 33.8701 8.28512 33.6993 8.22516C33.5285 8.16519 33.3408 8.17489 33.1771 8.25214C33.1093 8.28867 33.0462 8.33328 32.9891 8.38498L30.7358 10.6288C30.536 10.8263 30.2659 10.9372 29.9844 10.9372C29.703 10.9372 29.4329 10.8263 29.2331 10.6288C29.0396 10.4275 28.9317 10.1595 28.9317 9.88084C28.9317 9.60214 29.0396 9.3342 29.2331 9.13292L31.4865 6.88912C31.5497 6.82729 31.6 6.75349 31.6343 6.67205C31.6687 6.59062 31.6864 6.50318 31.6864 6.41486C31.6864 6.32653 31.6687 6.2391 31.6343 6.15766C31.6 6.07623 31.5497 6.00243 31.4865 5.94059C31.4355 5.88179 31.371 5.83621 31.2985 5.80775C30.2442 5.30312 29.0631 5.12238 27.9055 5.28851C26.7479 5.45463 25.666 5.96012 24.7975 6.74066C23.9291 7.5212 23.3133 8.5415 23.0286 9.67175C22.7438 10.802 22.8029 11.9911 23.1984 13.0878L23.2384 13.194L19.8851 16.5338L19.7518 16.4408C19.6851 16.3877 19.6313 16.3478 19.5904 16.3213C18.5911 15.4382 17.6588 14.4826 16.8011 13.4624L13.7704 10.2568L14.5344 9.49558C14.6572 9.3653 14.7255 9.19334 14.7255 9.01468C14.7255 8.83601 14.6572 8.66405 14.5344 8.53377C14.4932 8.49841 14.4486 8.46726 14.4011 8.44078L9.73445 5.65099C9.40736 5.45497 9.04441 5.32571 8.66672 5.27075C8.28903 5.21579 7.90414 5.2362 7.53445 5.33082C7.16267 5.42127 6.81305 5.58556 6.5065 5.81383C6.19996 6.0421 5.94281 6.32966 5.75045 6.65929C5.47746 7.10841 5.33313 7.62345 5.33313 8.14851C5.33313 8.67357 5.47746 9.18861 5.75045 9.63773L8.53979 14.2728C8.58374 14.3511 8.64318 14.4198 8.71452 14.4747C8.78586 14.5295 8.86761 14.5693 8.95485 14.5918C9.04208 14.6143 9.13298 14.6189 9.22206 14.6054C9.31114 14.5919 9.39655 14.5605 9.47312 14.5132C9.5195 14.4852 9.56058 14.4492 9.59446 14.4069L10.3318 13.6723L13.3891 16.9045C15.8438 19.4963 15.8438 19.4963 16.0558 19.7766L16.2971 20.0569L16.1905 20.2177L13.3251 23.0646L13.2038 23.0247C12.1023 22.6358 10.9099 22.5809 9.77711 22.8671C8.64437 23.1533 7.62222 23.7677 6.8399 24.6326C6.05757 25.4976 5.5502 26.5742 5.38191 27.7264C5.21363 28.8786 5.39199 30.0546 5.89445 31.1058C5.97443 31.2672 6.1146 31.3911 6.28502 31.4509C6.45543 31.5108 6.64258 31.5018 6.80645 31.426C6.87429 31.3894 6.93741 31.3448 6.99445 31.2931L9.24779 29.0493C9.4487 28.862 9.71501 28.7601 9.99014 28.7652C10.2653 28.7704 10.5275 28.8822 10.7212 29.0769C10.915 29.2717 11.0248 29.534 11.0276 29.8081C11.0303 30.0823 10.9256 30.3467 10.7358 30.5452L8.48245 32.789C8.41875 32.852 8.3682 32.9269 8.3337 33.0094C8.2992 33.092 8.28145 33.1805 8.28145 33.2699C8.28145 33.3593 8.2992 33.4478 8.3337 33.5304C8.3682 33.6129 8.41875 33.6878 8.48245 33.7508C8.53948 33.8025 8.60262 33.8471 8.67045 33.8836C10.0841 34.5497 11.7048 34.6314 13.1787 34.1109C14.6525 33.5905 15.8599 32.5101 16.5371 31.1058C17.2119 29.6907 17.2986 28.0675 16.7784 26.589L16.7384 26.4827L19.3664 23.8842L25.0531 30.7631L27.4264 33.1277C28.2616 33.9653 29.3936 34.4424 30.5785 34.4562C31.4155 34.4695 32.2343 34.2117 32.9118 33.7216C33.36 33.4052 33.7411 33.0037 34.0331 32.5401C34.3251 32.0766 34.5222 31.56 34.6132 31.0203C34.7041 30.4805 34.6871 29.9282 34.5631 29.395C34.439 28.8618 34.2105 28.3583 33.8905 27.9135ZM14.7531 16.3465L10.8504 12.2282C10.7902 12.1634 10.7175 12.1112 10.6368 12.0747C10.556 12.0382 10.4687 12.0181 10.38 12.0157C10.2914 12.0132 10.2031 12.0284 10.1204 12.0603C10.0377 12.0923 9.96227 12.1403 9.89845 12.2017L9.25445 12.8168L6.92112 8.91637C6.81372 8.74484 6.74281 8.55316 6.71276 8.35322C6.68272 8.15327 6.69418 7.94931 6.74645 7.75396C6.79377 7.55594 6.88121 7.36965 7.00342 7.20654C7.12563 7.04342 7.28003 6.90692 7.45712 6.80543C7.69568 6.66118 7.96939 6.58491 8.24845 6.58491C8.5275 6.58491 8.80122 6.66118 9.03979 6.80543L12.9558 9.14354L12.3385 9.75862C12.2145 9.88103 12.1437 10.047 12.1412 10.2209C12.1387 10.3947 12.2047 10.5627 12.3251 10.6886C13.9345 12.3983 15.1145 13.6404 15.9865 14.5624C16.8008 15.5023 17.6647 16.3986 18.5744 17.2472C18.6376 17.2794 18.6963 17.3196 18.7491 17.3668L18.9105 17.4996L17.2878 19.1164L17.1545 18.9423C17.1158 18.8909 17.0801 18.8372 17.0478 18.7816C16.8984 18.6036 16.8984 18.6049 14.7531 16.3465ZM15.4638 25.8437C15.3662 25.9446 15.3013 26.0724 15.2775 26.2106C15.2537 26.3487 15.2722 26.4907 15.3304 26.6182C15.8442 27.7032 15.907 28.9464 15.5052 30.0772C15.1034 31.208 14.2695 32.1349 13.1851 32.6561C12.5739 32.9468 11.9051 33.0975 11.2278 33.0972C11.0125 33.0972 10.7974 33.0839 10.5838 33.0573L10.2078 33.0042L11.7105 31.5083C11.9358 31.2838 12.1146 31.0173 12.2365 30.7239C12.3585 30.4306 12.4213 30.1161 12.4213 29.7986C12.4213 29.4811 12.3585 29.1666 12.2365 28.8733C12.1146 28.5799 11.9358 28.3134 11.7105 28.0889C11.4862 27.8645 11.2197 27.6865 10.9263 27.5651C10.6328 27.4436 10.3182 27.3811 10.0005 27.3811C9.68269 27.3811 9.36806 27.4436 9.07461 27.5651C8.78116 27.6865 8.51468 27.8645 8.29045 28.0889L6.78778 29.5847L6.73445 29.2101C6.64946 28.6223 6.68164 28.0235 6.82918 27.4481C6.97671 26.8727 7.23669 26.3319 7.59423 25.8567C7.95177 25.3815 8.39986 24.9812 8.91285 24.6788C9.42583 24.3764 9.99364 24.1777 10.5838 24.0941C11.4703 23.959 12.3772 24.0942 13.1851 24.4821C13.312 24.5452 13.4558 24.5663 13.5956 24.5425C13.7354 24.5186 13.8639 24.4509 13.9624 24.3492L24.5304 13.837C24.6281 13.7361 24.693 13.6083 24.7167 13.4702C24.7405 13.3321 24.7221 13.1901 24.6638 13.0625C24.3112 12.3236 24.1659 11.5034 24.2433 10.6889C24.3206 9.87439 24.6177 9.09589 25.103 8.43595C25.5884 7.77601 26.2439 7.25921 27.0001 6.94035C27.7564 6.62148 28.5851 6.51244 29.3984 6.62476L29.7744 6.67789L28.2864 8.17376C27.8205 8.61782 27.5505 9.22796 27.5358 9.87021C27.5285 10.189 27.5852 10.506 27.7027 10.8026C27.8202 11.0991 27.996 11.3693 28.2198 11.5972C28.6676 12.0536 29.2783 12.3152 29.9188 12.3251C30.5593 12.3351 31.1778 12.0926 31.6398 11.6504L33.2091 10.1014L33.2625 10.476C33.428 11.6649 33.1141 12.8707 32.3894 13.8295C31.6647 14.7883 30.5883 15.422 29.3958 15.5919C28.5082 15.7147 27.604 15.5762 26.7944 15.1934C26.6688 15.1349 26.5281 15.1163 26.3915 15.1401C26.2548 15.1639 26.1288 15.2288 26.0304 15.3262L15.4638 25.8437ZM20.4131 23.0021L22.7184 20.5405L25.2131 22.3844L22.3025 25.2964L21.0825 23.8271L20.4131 23.0021ZM32.4811 32.3081C32.4213 32.3649 32.3586 32.4186 32.2931 32.4688L32.3064 32.4821L32.1185 32.615C31.6424 32.9231 31.0862 33.0857 30.5184 33.0826C30.1179 33.086 29.7211 33.0057 29.3537 32.8469C28.9862 32.6881 28.6563 32.4543 28.3851 32.1606L26.0918 29.877L23.1584 26.3379L26.3238 23.1988L30.0571 25.9367L32.4851 28.3545C32.7462 28.6139 32.9533 28.9221 33.0945 29.2614C33.2357 29.6008 33.3082 29.9645 33.308 30.3319C33.3077 30.6992 33.2347 31.0629 33.093 31.402C32.9513 31.7411 32.7425 32.0491 32.4811 32.3081Z" fill="#6E00E5"/>
</g>
</svg>