<svg id="delete" xmlns="http://www.w3.org/2000/svg" width="17" height="18" viewBox="0 0 17 18">
  <path id="Контур_5592" data-name="Контур 5592" d="M30.344,2.967H26.312v-1.7A1.129,1.129,0,0,0,25.182.14h-5.4a1.134,1.134,0,0,0-1.13,1.131v1.7H14.616a.64.64,0,0,0,0,1.279h1.137l1.13,12.876a1.138,1.138,0,0,0,1.123,1.018h8.948a1.157,1.157,0,0,0,1.13-1.025L29.207,4.246h1.137a.64.64,0,0,0,0-1.279ZM19.927,1.419H25.04V2.967H19.927Zm8,2.933L26.827,16.861H18.14L17.031,4.246h10.9Z" transform="translate(-13.98 -0.14)" fill="$black"/>
</svg>
