<svg width="12" height="8" viewBox="0 0 12 8" fill="none" xmlns="http://www.w3.org/2000/svg">
<path d="M6.10861 7.21562L11.1519 2.06469C11.2681 1.94463 11.333 1.78411 11.333 1.61704C11.333 1.44996 11.2681 1.28944 11.1519 1.16938L10.7801 0.789711C10.7231 0.731109 10.6549 0.684529 10.5796 0.652724C10.5043 0.620918 10.4233 0.604537 10.3415 0.604537C10.2598 0.604537 10.1788 0.620918 10.1035 0.652724C10.0282 0.684529 9.95998 0.731109 9.90295 0.789711L5.66661 5.11558L1.42688 0.78518C1.36985 0.726578 1.30166 0.679999 1.22633 0.648193C1.151 0.616388 1.07006 0.600006 0.988285 0.600006C0.906514 0.600006 0.825574 0.616388 0.750243 0.648193C0.674911 0.679999 0.606719 0.726578 0.549691 0.78518L0.177963 1.16484C0.0617771 1.2849 -0.0031786 1.44543 -0.0031786 1.6125C-0.0031786 1.77958 0.0617771 1.9401 0.177963 2.06016L5.22575 7.21562C5.28314 7.27401 5.35157 7.32039 5.42707 7.35204C5.50257 7.3837 5.58361 7.40001 5.66548 7.40001C5.74735 7.40001 5.82839 7.3837 5.90389 7.35204C5.97939 7.32039 6.04783 7.27401 6.10521 7.21562H6.10861Z" fill="#1D1D1D"/>
</svg>
