<svg xmlns="http://www.w3.org/2000/svg" width="40" height="40" viewBox="0 0 40 40" fill="none">
<mask id="mask0_1547_7473" style="mask-type:luminance" maskUnits="userSpaceOnUse" x="0" y="-1" width="40" height="41">
<path d="M40 -0.0839844H0V39.7701H40V-0.0839844Z" fill="white"/>
</mask>
<g mask="url(#mask0_1547_7473)">
<path d="M26.5683 10.2576C26.4751 10.3954 26.3553 10.5134 26.2159 10.6046C26.0765 10.6959 25.9202 10.7585 25.7563 10.7889C25.5927 10.8261 25.4233 10.8298 25.2583 10.7999C25.0933 10.77 24.9361 10.7071 24.7961 10.615C24.6562 10.5228 24.5365 10.4034 24.4441 10.2639C24.3518 10.1244 24.2888 9.96766 24.2589 9.80321C24.1977 9.49914 24.252 9.18323 24.4114 8.91685C24.5709 8.65047 24.824 8.45266 25.1216 8.36183L25.2549 8.31134C25.5879 8.24857 25.9323 8.31967 26.2129 8.5091C26.4935 8.69853 26.6874 8.99088 26.7523 9.32231C26.7862 9.48252 26.7874 9.6479 26.7558 9.80858C26.7241 9.96926 26.6604 10.122 26.5683 10.2576Z" fill="#6E00E5"/>
<path d="M35.3051 10.9342H35.2638L31.6878 10.448L31.6465 10.2673C31.3342 8.97018 30.7124 7.76727 29.8339 6.7607C28.9554 5.75412 27.8461 4.97359 26.6002 4.48539C25.3543 3.99719 24.0085 3.81572 22.6772 3.95639C21.3458 4.09705 20.0682 4.5557 18.9528 5.29339C17.8373 6.03108 16.917 7.02606 16.2699 8.19382C15.6228 9.36159 15.268 10.6677 15.2358 12.0012C15.2035 13.3347 15.4946 14.6563 16.0844 15.8538C16.6742 17.0513 17.5454 18.0894 18.6238 18.8798L18.8745 19.0737L18.6385 19.2823C17.2226 20.5287 15.3681 21.1644 13.4823 21.0498C11.5964 20.9353 9.83324 20.0798 8.57981 18.6712C8.46915 18.5463 8.35715 18.4055 8.24648 18.2727C8.19222 18.1985 8.12375 18.1358 8.04502 18.0881C7.9663 18.0405 7.87888 18.0088 7.78781 17.995C7.75227 17.9829 7.71456 17.9783 7.67714 17.9817C7.53372 17.9865 7.39477 18.0327 7.27715 18.1146C7.2508 18.1288 7.22729 18.1477 7.20781 18.1704C6.24088 19.0131 5.45794 20.0447 4.90749 21.2012C4.35705 22.3577 4.05083 23.6145 4.00781 24.8938C4.00781 30.8945 10.6172 35.7872 18.7411 35.7872C26.8252 35.7872 33.4078 30.8971 33.4078 24.8831C33.3743 23.5426 33.0498 22.2252 32.4567 21.0214C31.8636 19.8177 31.0158 18.7562 29.9718 17.91L29.7625 17.7439L29.9291 17.55C30.1901 17.2443 30.4272 16.9192 30.6385 16.5775L30.7225 16.4447L30.8558 16.458C31.4994 16.4889 32.1427 16.3931 32.7491 16.1761C33.3555 15.9591 33.913 15.6251 34.3898 15.1933C34.8665 14.7615 35.2532 14.2403 35.5276 13.6594C35.8021 13.0786 35.9589 12.4496 35.9891 11.8083L36.0025 11.6423C36.0032 11.4566 35.9304 11.278 35.7998 11.1455C35.6693 11.0129 35.4915 10.937 35.3051 10.9342ZM29.1971 15.8376L29.3505 15.9904L29.2251 16.171C28.9392 16.5775 28.6131 16.9545 28.2518 17.2962C28.185 17.3574 28.1309 17.431 28.0927 17.513C28.0545 17.595 28.0328 17.6836 28.029 17.7739C28.0251 17.8642 28.0392 17.9544 28.0703 18.0393C28.1015 18.1242 28.1491 18.2021 28.2105 18.2687C28.232 18.3072 28.2664 18.3368 28.3078 18.3524C29.401 19.0758 30.3065 20.0472 30.9499 21.1868C31.5933 22.3265 31.9563 23.6019 32.0091 24.9084C31.9437 26.2343 31.5642 27.5259 30.9016 28.6776C30.2391 29.8293 29.3123 30.8084 28.1971 31.5348L27.7971 31.8271V31.7992C25.198 33.499 22.1555 34.402 19.0465 34.3963H18.7265C12.9251 34.3963 7.81848 31.7155 6.01048 27.7287C5.42962 26.4347 5.25693 24.9955 5.51527 23.6015C5.77361 22.2075 6.45078 20.9246 7.45714 19.9226L7.63848 19.7141L7.83315 19.908C8.61356 20.7039 9.54387 21.3385 10.5708 21.7756C11.5978 22.2127 12.7011 22.4437 13.8178 22.4553C14.9345 22.4669 16.0425 22.2589 17.0783 21.8432C18.1142 21.4276 19.0576 20.8124 19.8545 20.0329C20.0824 19.8151 20.2962 19.583 20.4945 19.3381C20.609 19.1922 20.6638 19.0085 20.6478 18.824C20.6365 18.7337 20.607 18.6466 20.5612 18.5678C20.5154 18.4891 20.4542 18.4203 20.3811 18.3657C20.3522 18.3381 20.3194 18.3149 20.2838 18.2966C19.2547 17.7587 18.3772 16.9726 17.7312 16.01C17.0853 15.0475 16.6916 13.9391 16.5859 12.786C16.4803 11.6329 16.6661 10.4718 17.1265 9.40868C17.5868 8.34551 18.307 7.41412 19.2214 6.69948C20.1358 5.98483 21.2152 5.50968 22.3612 5.31737C23.5071 5.12506 24.6832 5.22172 25.7821 5.59853C26.8809 5.97533 27.8676 6.62029 28.6521 7.47455C29.4366 8.32882 29.9939 9.3652 30.2731 10.4892L30.3145 10.6831L30.1331 10.7801C29.6257 11.0397 29.2 11.4338 28.9028 11.919C28.6057 12.4042 28.4487 12.9617 28.4491 13.53V14.1411C28.4503 14.4595 28.5174 14.7742 28.646 15.0657C28.7747 15.3571 28.9623 15.619 29.1971 15.8349V15.8376ZM34.4838 12.531C34.2438 13.2696 33.7752 13.9134 33.1453 14.3702C32.5153 14.827 31.7563 15.0733 30.9771 15.0737C30.9078 15.0737 30.8238 15.0604 30.7411 15.0604L30.5051 15.0192C30.3133 14.9659 30.1443 14.8514 30.0239 14.6933C29.9036 14.5352 29.8384 14.3422 29.8385 14.1438V13.5327C29.8387 13.0922 30.0095 12.6687 30.3152 12.3505C30.621 12.0323 31.0381 11.8438 31.4798 11.8243L34.5825 12.2414L34.4838 12.531Z" fill="#6E00E5"/>
<path d="M24.8411 22.8525C24.3232 22.5653 23.7404 22.4144 23.1478 22.4141C22.6899 22.4133 22.2365 22.5047 21.815 22.6827C21.3934 22.8608 21.0123 23.1219 20.6944 23.4503C18.9078 25.164 15.6011 25.5094 13.7744 25.5626C13.5973 25.5713 13.4303 25.6474 13.3078 25.7751C13.1888 25.9063 13.1224 26.0765 13.1211 26.2533C13.1344 26.3065 13.1344 26.3596 13.1478 26.4128C13.6409 27.6608 14.5213 28.7193 15.6606 29.4338C16.7998 30.1483 18.1384 30.4815 19.4811 30.3849C21.1334 30.4164 22.7682 30.0423 24.2411 29.2956C24.834 29.0342 25.3512 28.6282 25.7451 28.1151C26.1389 27.602 26.3966 26.9982 26.4944 26.3596C26.625 25.676 26.5354 24.9688 26.2385 24.3389C25.9416 23.7091 25.4525 23.1888 24.8411 22.8525ZM25.1744 26.1471L25.1611 26.2666C25.0544 27.6084 22.8544 29.0564 19.4944 29.0564H19.2544C18.4697 29.0575 17.6935 28.8935 16.9767 28.5754C16.2599 28.2572 15.6185 27.7919 15.0944 27.2098L14.7344 26.8246L15.2544 26.798C17.5821 26.6955 19.8157 25.8528 21.6278 24.3935C21.9527 24.0479 22.3867 23.8238 22.8574 23.7585C23.3282 23.6932 23.8071 23.7908 24.2144 24.0348C24.6678 24.2739 25.2544 24.7655 25.1744 26.1471Z" fill="#6E00E5"/>
</g>
</svg>