<svg xmlns="http://www.w3.org/2000/svg" width="40" height="40" viewBox="0 0 40 40" fill="none">
<mask id="mask0_1547_7382" style="mask-type:luminance" maskUnits="userSpaceOnUse" x="0" y="-1" width="40" height="41">
<path d="M40 -0.015625H0V39.8385H40V-0.015625Z" fill="white"/>
</mask>
<g mask="url(#mask0_1547_7382)">
<path d="M26.7713 12.4727H13.2113C13.1211 12.4734 13.0319 12.4918 12.9488 12.5269C12.8658 12.562 12.7905 12.6132 12.7273 12.6774C12.6641 12.7415 12.6143 12.8175 12.5806 12.9009C12.547 12.9844 12.5302 13.0736 12.5313 13.1635V26.674C12.532 26.7639 12.5505 26.8528 12.5858 26.9355C12.621 27.0183 12.6723 27.0933 12.7367 27.1563C12.8012 27.2192 12.8774 27.2689 12.9611 27.3024C13.0449 27.3359 13.1344 27.3526 13.2246 27.3515H26.7713C26.8615 27.3526 26.9511 27.3359 27.0348 27.3024C27.1185 27.2689 27.1948 27.2192 27.2592 27.1563C27.3236 27.0933 27.3749 27.0183 27.4102 26.9355C27.4454 26.8528 27.4639 26.7639 27.4646 26.674V13.1635C27.4653 13.0726 27.4479 12.9824 27.4133 12.8983C27.3787 12.8142 27.3277 12.7377 27.2631 12.6734C27.1986 12.6091 27.1219 12.5583 27.0375 12.5238C26.953 12.4894 26.8625 12.472 26.7713 12.4727ZM13.9046 13.841H26.0913V25.7972H25.9046V25.9832H13.9046V13.841Z" fill="#6E00E5"/>
<path d="M35.4781 18.2588C35.5945 18.2216 35.7021 18.161 35.7941 18.0808C35.9226 17.9435 35.9957 17.7637 35.9994 17.576C35.9986 17.4836 35.9794 17.3923 35.9431 17.3072C35.9067 17.2222 35.8539 17.1452 35.7877 17.0805C35.7214 17.0159 35.643 16.9648 35.5569 16.9304C35.4709 16.896 35.3788 16.8788 35.2861 16.8799H32.2194V13.6703H35.2861C35.3814 13.6744 35.4765 13.6593 35.5658 13.6258C35.6551 13.5923 35.7366 13.5411 35.8055 13.4754C35.8744 13.4097 35.9292 13.3308 35.9667 13.2434C36.0042 13.156 36.0235 13.0619 36.0235 12.9669C36.0235 12.8718 36.0042 12.7778 35.9667 12.6904C35.9292 12.603 35.8744 12.524 35.8055 12.4583C35.7366 12.3926 35.6551 12.3414 35.5658 12.3079C35.4765 12.2744 35.3814 12.2593 35.2861 12.2634H32.2194V10.1458C32.2187 9.50834 31.9642 8.89714 31.5118 8.44636C31.0594 7.99557 30.4459 7.74202 29.8061 7.74132H27.6768V4.68583C27.6809 4.59088 27.6657 4.49608 27.6321 4.40714C27.5985 4.3182 27.5472 4.23696 27.4812 4.16831C27.4152 4.09967 27.336 4.04505 27.2483 4.00773C27.1606 3.97041 27.0662 3.95117 26.9708 3.95117C26.8754 3.95117 26.781 3.97041 26.6933 4.00773C26.6055 4.04505 26.5263 4.09967 26.4603 4.16831C26.3944 4.23696 26.343 4.3182 26.3094 4.40714C26.2758 4.49608 26.2606 4.59088 26.2648 4.68583V7.74132H23.0021V4.68583C23.0062 4.59088 22.9911 4.49608 22.9574 4.40714C22.9238 4.3182 22.8725 4.23696 22.8065 4.16831C22.7406 4.09967 22.6613 4.04505 22.5736 4.00773C22.4859 3.97041 22.3915 3.95117 22.2961 3.95117C22.2007 3.95117 22.1063 3.97041 22.0186 4.00773C21.9309 4.04505 21.8517 4.09967 21.7857 4.16831C21.7197 4.23696 21.6684 4.3182 21.6348 4.40714C21.6012 4.49608 21.586 4.59088 21.5901 4.68583V7.74132H18.3128V4.68583C18.3169 4.59177 18.3019 4.49784 18.2686 4.40972C18.2353 4.3216 18.1844 4.24111 18.1191 4.1731C18.0538 4.10508 17.9753 4.05097 17.8884 4.01399C17.8015 3.97701 17.7079 3.95794 17.6134 3.95794C17.5189 3.95794 17.4254 3.97701 17.3385 4.01399C17.2516 4.05097 17.1731 4.10508 17.1078 4.1731C17.0424 4.24111 16.9916 4.3216 16.9583 4.40972C16.925 4.49784 16.91 4.59177 16.9141 4.68583V7.74132H13.7341V4.68583C13.7382 4.59088 13.7231 4.49608 13.6894 4.40714C13.6558 4.3182 13.6045 4.23696 13.5385 4.16831C13.4726 4.09967 13.3933 4.04505 13.3056 4.00773C13.2179 3.97041 13.1235 3.95117 13.0281 3.95117C12.9327 3.95117 12.8383 3.97041 12.7506 4.00773C12.6629 4.04505 12.5836 4.09967 12.5177 4.16831C12.4517 4.23696 12.4004 4.3182 12.3668 4.40714C12.3332 4.49608 12.318 4.59088 12.3221 4.68583V7.74132H10.1968C9.55693 7.74202 8.9435 7.99557 8.49107 8.44636C8.03863 8.89714 7.78414 9.50834 7.78344 10.1458V12.2634H4.7061C4.61203 12.262 4.51863 12.2794 4.43143 12.3146C4.34423 12.3498 4.26502 12.4021 4.19849 12.4684C4.13197 12.5347 4.07948 12.6136 4.04414 12.7005C4.0088 12.7874 3.99133 12.8804 3.99277 12.9742C3.99364 13.0666 4.01279 13.1579 4.04913 13.2429C4.08547 13.3279 4.13828 13.405 4.20453 13.4696C4.27079 13.5343 4.3492 13.5853 4.43526 13.6197C4.52133 13.6542 4.61336 13.6713 4.7061 13.6703H7.77277V16.9211H4.7061C4.61081 16.9169 4.51566 16.9321 4.4264 16.9655C4.33713 16.999 4.25559 17.0502 4.1867 17.1159C4.1178 17.1816 4.06297 17.2606 4.02552 17.348C3.98806 17.4354 3.96875 17.5294 3.96875 17.6245C3.96875 17.7195 3.98806 17.8136 4.02552 17.901C4.06297 17.9884 4.1178 18.0673 4.1867 18.133C4.25559 18.1988 4.33713 18.2499 4.4264 18.2834C4.51566 18.3169 4.61081 18.332 4.7061 18.3279H7.77277V21.5933H4.7061C4.6117 21.5892 4.51743 21.6041 4.42899 21.6373C4.34055 21.6705 4.25977 21.7211 4.19151 21.7862C4.12324 21.8513 4.06892 21.9296 4.03181 22.0162C3.99469 22.1027 3.97556 22.1959 3.97556 22.2901C3.97556 22.3842 3.99469 22.4774 4.03181 22.564C4.06892 22.6506 4.12324 22.7288 4.19151 22.7939C4.25977 22.859 4.34055 22.9097 4.42899 22.9428C4.51743 22.976 4.6117 22.991 4.7061 22.9868H7.77277V26.1566H4.7061C4.61081 26.1525 4.51566 26.1676 4.4264 26.2011C4.33713 26.2346 4.25559 26.2857 4.1867 26.3514C4.1178 26.4172 4.06297 26.4961 4.02552 26.5835C3.98806 26.6709 3.96875 26.765 3.96875 26.86C3.96875 26.955 3.98806 27.0491 4.02552 27.1365C4.06297 27.2239 4.1178 27.3028 4.1867 27.3686C4.25559 27.4343 4.33713 27.4854 4.4264 27.5189C4.51566 27.5524 4.61081 27.5675 4.7061 27.5634H7.77277V29.681C7.77348 30.3185 8.02797 30.9297 8.4804 31.3805C8.93284 31.8313 9.54626 32.0848 10.1861 32.0855H12.3114V35.141C12.3104 35.2334 12.3276 35.3251 12.3622 35.4109C12.3967 35.4966 12.4479 35.5747 12.5128 35.6408C12.5777 35.7068 12.655 35.7594 12.7404 35.7956C12.8257 35.8318 12.9174 35.8509 13.0101 35.8518C13.1983 35.8487 13.378 35.7728 13.5111 35.6402C13.6442 35.5075 13.7203 35.3286 13.7234 35.141V32.0855H16.9861V35.141C16.982 35.236 16.9972 35.3308 17.0308 35.4197C17.0644 35.5086 17.1157 35.5899 17.1817 35.6585C17.2476 35.7272 17.3269 35.7818 17.4146 35.8191C17.5023 35.8564 17.5967 35.8757 17.6921 35.8757C17.7875 35.8757 17.8819 35.8564 17.9696 35.8191C18.0573 35.7818 18.1366 35.7272 18.2025 35.6585C18.2685 35.5899 18.3198 35.5086 18.3534 35.4197C18.3871 35.3308 18.4022 35.236 18.3981 35.141V32.0855H21.6608V35.141C21.6618 35.3292 21.7373 35.5094 21.8709 35.6424C22.0044 35.7755 22.1852 35.8507 22.3741 35.8518C22.4668 35.8509 22.5585 35.8318 22.6438 35.7956C22.7292 35.7594 22.8065 35.7068 22.8714 35.6408C22.9363 35.5747 22.9875 35.4966 23.022 35.4109C23.0566 35.3251 23.0738 35.2334 23.0728 35.141V32.0855H26.2541V35.141C26.25 35.236 26.2652 35.3308 26.2988 35.4197C26.3324 35.5086 26.3837 35.5899 26.4497 35.6585C26.5156 35.7272 26.5949 35.7818 26.6826 35.8191C26.7703 35.8564 26.8647 35.8757 26.9601 35.8757C27.0555 35.8757 27.1499 35.8564 27.2376 35.8191C27.3253 35.7818 27.4046 35.7272 27.4705 35.6585C27.5365 35.5899 27.5878 35.5086 27.6214 35.4197C27.6551 35.3308 27.6702 35.236 27.6661 35.141V32.0855H29.7914C30.4313 32.0848 31.0447 31.8313 31.4971 31.3805C31.9496 30.9297 32.2041 30.3185 32.2048 29.681V27.5634H35.2714C35.3667 27.5675 35.4619 27.5524 35.5511 27.5189C35.6404 27.4854 35.722 27.4343 35.7908 27.3686C35.8597 27.3028 35.9146 27.2239 35.952 27.1365C35.9895 27.0491 36.0088 26.955 36.0088 26.86C36.0088 26.765 35.9895 26.6709 35.952 26.5835C35.9146 26.4961 35.8597 26.4172 35.7908 26.3514C35.722 26.2857 35.6404 26.2346 35.5511 26.2011C35.4619 26.1676 35.3667 26.1525 35.2714 26.1566H32.2048V22.9058H35.2714C35.3667 22.9099 35.4619 22.8948 35.5511 22.8613C35.6404 22.8278 35.722 22.7767 35.7908 22.7109C35.8597 22.6452 35.9146 22.5663 35.952 22.4789C35.9895 22.3915 36.0088 22.2974 36.0088 22.2024C36.0088 22.1073 35.9895 22.0133 35.952 21.9259C35.9146 21.8385 35.8597 21.7596 35.7908 21.6938C35.722 21.6281 35.6404 21.5769 35.5511 21.5435C35.4619 21.51 35.3667 21.4948 35.2714 21.499H32.2048V18.2482L35.4781 18.2588ZM30.8581 29.6837H30.8034C30.8052 29.9463 30.7023 30.1989 30.5173 30.3859C30.3323 30.573 30.0803 30.6792 29.8168 30.6813H10.1968C10.0651 30.6819 9.93468 30.6564 9.81295 30.6065C9.69123 30.5565 9.58063 30.4831 9.48754 30.3903C9.39445 30.2976 9.32072 30.1874 9.27058 30.0661C9.22045 29.9448 9.19491 29.8148 9.19544 29.6837V10.1551C9.19349 10.0248 9.21758 9.8954 9.26629 9.77444C9.315 9.65348 9.38737 9.54337 9.47919 9.45053C9.571 9.35769 9.68043 9.28399 9.8011 9.23368C9.92178 9.18336 10.0513 9.15744 10.1821 9.15746H29.8568C30.1196 9.15811 30.3717 9.26144 30.5589 9.44524C30.7462 9.62905 30.8536 9.87869 30.8581 10.1405V29.6837Z" fill="#6E00E5"/>
</g>
</svg>