<svg id="view" xmlns="http://www.w3.org/2000/svg" width="27" height="17" viewBox="0 0 27 17">
    <g id="Сгруппировать_3676" data-name="Сгруппировать 3676" transform="translate(0 0)">
        <g id="Сгруппировать_3675" data-name="Сгруппировать 3675">
            <path id="Контур_4123" data-name="Контур 4123" d="M26.828,100.816c-.241-.326-5.988-7.981-13.329-7.981S.412,100.49.171,100.816a.872.872,0,0,0,0,1.038c.241.326,5.988,7.981,13.329,7.981s13.087-7.655,13.329-7.981A.871.871,0,0,0,26.828,100.816ZM13.5,108.076c-5.407,0-10.09-5.081-11.476-6.742,1.384-1.663,6.058-6.741,11.476-6.741s10.089,5.08,11.476,6.742C23.591,103,18.918,108.076,13.5,108.076Z" transform="translate(0 -92.835)" fill="$black"/>
        </g>
    </g>
    <g id="Сгруппировать_3678" data-name="Сгруппировать 3678" transform="translate(8.19 3.19)">
        <g id="Сгруппировать_3677" data-name="Сгруппировать 3677" transform="translate(0 0)">
            <path id="Контур_4124" data-name="Контур 4124" d="M160.032,154.725a5.31,5.31,0,1,0,5.31,5.31A5.316,5.316,0,0,0,160.032,154.725Zm0,8.85a3.54,3.54,0,1,1,3.54-3.54A3.544,3.544,0,0,1,160.032,163.575Z" transform="translate(-154.722 -154.725)" fill="$black"/>
        </g>
    </g>
</svg>