<svg xmlns="http://www.w3.org/2000/svg" width="100%" height="100%" viewBox="0 0 23 20" fill="#2463BF" preserveAspectRatio="xMidYMid meet">
  <path d="M20.8696 1.94815C20.3009 1.28474 19.5844 0.764176 18.7777 0.428393C17.971 0.0926101 17.0967 -0.0489986 16.2252 0.0149731C15.3538 0.0789448 14.5096 0.346713 13.7606 0.796698C13.0116 1.24668 12.3787 1.8663 11.913 2.60565C11.7058 2.89633 11.5185 3.20063 11.3522 3.51647L11.2514 3.71064L11.1505 3.51647C10.9842 3.20065 10.7968 2.89635 10.5897 2.60565C10.124 1.8663 9.49115 1.24668 8.74214 0.796698C7.99312 0.346713 7.1489 0.0789448 6.27746 0.0149731C5.40602 -0.0489986 4.53173 0.0926101 3.72504 0.428393C2.91834 0.764176 2.2018 1.28474 1.63313 1.94815C0.557904 3.21298 -0.0221165 4.82484 0.000645366 6.48477C0.0687976 8.53641 0.88439 10.4924 2.29395 11.9847C4.08089 13.9477 6.01751 15.769 8.08638 17.4322L8.27888 17.5988C9.09888 18.3072 9.95304 19.0405 10.8572 19.8421L10.8905 19.8671C10.9909 19.9529 11.1185 20 11.2505 20C11.3825 20 11.5102 19.9529 11.6105 19.8671L11.6438 19.8421C12.5563 19.033 13.418 18.2905 14.2555 17.5738L14.398 17.4472C16.4703 15.776 18.4123 13.9493 20.2071 11.983C21.6167 10.4907 22.4323 8.53474 22.5004 6.48311C22.5232 4.82396 21.9438 3.21278 20.8696 1.94815ZM13.688 16.6038C12.938 17.2613 12.1563 17.928 11.3272 18.6447L11.2522 18.7205L11.1772 18.6447C10.3489 17.928 9.56971 17.2613 8.81638 16.6038C4.16226 12.6155 1.09896 9.98473 1.09896 6.48477C1.07223 5.09413 1.55438 3.74162 2.45478 2.68148C2.8832 2.18283 3.41508 1.78349 4.01346 1.51121C4.61184 1.23893 5.26235 1.10026 5.91975 1.10483C6.67577 1.12312 7.41564 1.32731 8.07402 1.69937C8.73241 2.07144 9.28903 2.59992 9.69471 3.23814C10.137 3.87703 10.4866 4.57534 10.733 5.31229C10.7682 5.42237 10.8374 5.51843 10.9307 5.58659C11.0241 5.65474 11.1366 5.69148 11.2522 5.69148C11.3677 5.69148 11.4803 5.65474 11.5736 5.58659C11.6669 5.51843 11.7362 5.42237 11.7714 5.31229C12.0178 4.57534 12.3674 3.87703 12.8097 3.23814C13.2154 2.59992 13.772 2.07144 14.4303 1.69937C15.0887 1.32731 15.8286 1.12312 16.5846 1.10483C17.242 1.10026 17.8925 1.23893 18.4909 1.51121C19.0893 1.78349 19.6212 2.18283 20.0496 2.68148C20.95 3.74162 21.4322 5.09413 21.4054 6.48477C21.4063 9.9839 18.3429 12.6147 13.6888 16.6038H13.688Z" fill="#2463BF"/>
</svg>
