<svg xmlns="http://www.w3.org/2000/svg" width="24" height="24" viewBox="0 0 24 24">
    <defs>
        <clipPath id="clip-path">
            <rect id="Прямоугольник_149842" width="24" height="24"
                  transform="translate(889 508)" fill="#222222"/>
        </clipPath>
    </defs>
    <g id="export" transform="translate(-889 -508)" clip-path="url(#clip-path)">
        <path id="Контур_12554"
              d="M14.516,29.694V25.311a.718.718,0,0,0-.15-.459l-.071-.071L8.357,18.843,8.313,18.8l-.106-.071a.117.117,0,0,0-.062-.027l-.053-.027a.257.257,0,0,1-.071-.018,1383.966,1383.966,0,0,0-.141-.018H.829a.69.69,0,0,0-.689.689V35.579a.69.69,0,0,0,.689.689h13a.69.69,0,0,0,.689-.689V29.694Zm-5.955-8.7L12.175,24.6H8.561Zm4.586,8.7c0,.583-.005.66,0,1.066v4.13H1.518V20.018H7.182v5.266a.69.69,0,0,0,.689.689h5.275Z"
              transform="translate(893.672 492.546)" fill="#222222"/>
    </g>
</svg>
