<svg width="26" height="20" viewBox="0 0 26 20" fill="none" xmlns="http://www.w3.org/2000/svg">
<g clip-path="url(#clip0_1246_6190)">
<path d="M25.3323 4.32205H8.52986C8.17012 4.32205 7.86182 4.01375 7.86182 3.65401C7.86182 3.29426 8.17012 2.98596 8.52986 2.98596H25.3323C25.692 2.98596 26.0003 3.29426 26.0003 3.65401C26.0001 4.01375 25.6918 4.32205 25.3323 4.32205Z" fill="#1D1D1D"/>
<path d="M3.2886 4.32206H0.668045C0.308301 4.32206 0 4.01376 0 3.65419C0 3.29445 0.308301 2.98615 0.668045 2.98615H3.2886C3.64835 2.98615 3.95665 3.29445 3.95665 3.65419C3.95647 4.01376 3.69961 4.32206 3.2886 4.32206Z" fill="#1D1D1D"/>
<path d="M25.3321 10.6422H20.9132C20.5534 10.6422 20.2451 10.3339 20.2451 9.97418C20.2451 9.61444 20.5534 9.30614 20.9132 9.30614H25.3321C25.6918 9.30614 26.0001 9.61444 26.0001 9.97418C26.0001 10.3339 25.6917 10.6422 25.3321 10.6422Z" fill="#1D1D1D"/>
<path d="M15.6719 10.6422H0.668045C0.308301 10.6422 0 10.3339 0 9.97436C0 9.6148 0.308301 9.30632 0.668045 9.30632H15.6721C16.0318 9.30632 16.3401 9.61462 16.3401 9.97436C16.3401 10.3341 16.0317 10.6422 15.6719 10.6422Z" fill="#1D1D1D"/>
<path d="M25.3323 17.0138H8.52986C8.17012 17.0138 7.86182 16.7055 7.86182 16.3458C7.86182 15.9861 8.17012 15.6777 8.52986 15.6777H25.3323C25.692 15.6777 26.0003 15.9861 26.0003 16.3458C26.0001 16.7055 25.6918 17.0138 25.3323 17.0138Z" fill="#1D1D1D"/>
<path d="M3.2886 17.0139H0.668045C0.308301 17.0139 0 16.7055 0 16.3458C0 15.9348 0.308301 15.6265 0.668045 15.6265H3.2886C3.64835 15.6265 3.95665 15.9348 3.95665 16.2945C4.00791 16.7055 3.69961 17.0139 3.2886 17.0139Z" fill="#1D1D1D"/>
<path d="M5.90921 6.94262C4.11085 6.94262 2.62061 5.45255 2.62061 3.65401C2.62061 1.85547 4.11067 0.365585 5.90921 0.365585C7.70775 0.365585 9.19764 1.85565 9.19764 3.65419C9.19764 5.45273 7.75902 6.94262 5.90921 6.94262ZM5.90921 1.7015C4.83016 1.7015 3.9567 2.57496 3.9567 3.65401C3.9567 4.73307 4.83016 5.60653 5.90921 5.60653C6.98826 5.60653 7.86172 4.73307 7.86172 3.65401C7.86172 2.57496 6.98826 1.7015 5.90921 1.7015Z" fill="#1D1D1D"/>
<path d="M18.2925 13.2628C16.4941 13.2628 15.0039 11.7727 15.0039 9.97418C15.0039 8.17564 16.494 6.68558 18.2925 6.68558C20.0911 6.68558 21.5811 8.17564 21.5811 9.97418C21.5811 11.7727 20.1423 13.2628 18.2925 13.2628ZM18.2925 8.02167C17.2135 8.02167 16.34 8.89513 16.34 9.97418C16.34 11.0532 17.2135 11.9267 18.2925 11.9267C19.3716 11.9267 20.245 11.0532 20.245 9.97418C20.2452 8.8953 19.3716 8.02167 18.2925 8.02167Z" fill="#1D1D1D"/>
<path d="M5.90921 19.6344C4.11085 19.6344 2.62061 18.1443 2.62061 16.3458C2.62061 14.496 4.11067 13.0572 5.90921 13.0572C7.70775 13.0572 9.19781 14.5473 9.19781 16.3458C9.24908 18.1443 7.75902 19.6344 5.90921 19.6344ZM5.90921 14.3933C4.83016 14.3933 3.9567 15.2667 3.9567 16.3458C3.9567 17.4248 4.83016 18.2983 5.90921 18.2983C6.98826 18.2983 7.86172 17.4248 7.86172 16.3458C7.86172 15.2667 6.98826 14.3933 5.90921 14.3933Z" fill="#1D1D1D"/>
</g>
<defs>
<clipPath id="clip0_1246_6190">
<rect width="26" height="19.2688" fill="white" transform="translate(0 0.365585)"/>
</clipPath>
</defs>
</svg>
