<svg xmlns="http://www.w3.org/2000/svg" xmlns:xlink="http://www.w3.org/1999/xlink" width="36" height="30" viewBox="0 0 36 30">
  <defs>
    <clipPath id="clip-path">
      <rect id="Прямоугольник_149841" data-name="Прямоугольник 149841" width="36" height="30" transform="translate(4719 -23317)" fill="$black"/>
    </clipPath>
  </defs>
  <g id="gift" transform="translate(-4719 23317)" clip-path="url(#clip-path)">
    <g id="Layer_2" data-name="Layer 2" transform="translate(4725 -23313.168)">
      <path id="Вычитание_12" data-name="Вычитание 12" d="M-4687.738,23355.922h-16.28a2.667,2.667,0,0,1-1.892-.773,2.663,2.663,0,0,1-.789-1.881v-12.736a2.662,2.662,0,0,1,.782-1.889,2.691,2.691,0,0,1,1.905-.781h2.228l-.271-.273a5.069,5.069,0,0,1-.64-.811,3.868,3.868,0,0,1-.1-3.809,3.072,3.072,0,0,1,2.638-1.5c.029,0,.059,0,.088,0h.007c.044,0,.088,0,.132,0a4.268,4.268,0,0,1,3.123,1.357,4.826,4.826,0,0,1,.774,1.148l.148.3.148-.293a5.025,5.025,0,0,1,.82-1.154,4.268,4.268,0,0,1,3.123-1.357c.044,0,.088,0,.132,0h.007c.029,0,.058,0,.087,0a3.04,3.04,0,0,1,2.632,1.5,3.868,3.868,0,0,1-.1,3.809,4.448,4.448,0,0,1-.64.811l-.271.275h2.2a2.682,2.682,0,0,1,2.68,2.662v12.736A2.67,2.67,0,0,1-4687.738,23355.922Zm-7.4-16.705h0l-.059,15.357h7.459a1.317,1.317,0,0,0,1.324-1.307v-12.736a1.315,1.315,0,0,0-1.3-1.314Zm-8.873,0a1.324,1.324,0,0,0-1.331,1.314v12.736a1.3,1.3,0,0,0,.395.932,1.325,1.325,0,0,0,.93.375h7.4l.059-15.357Zm12.192-6.408a2.959,2.959,0,0,0-2.164.943,6.278,6.278,0,0,0-1.214,3.982v.16h1.228c2.387,0,3.379-1.1,3.758-1.748a2.484,2.484,0,0,0,.116-2.465l-.006-.006a1.678,1.678,0,0,0-1.389-.83v-.018l-.154-.014c-.03,0-.059,0-.088,0S-4691.791,23332.809-4691.819,23332.809Zm-8.373,0a1.675,1.675,0,0,0-1.456.826l-.007.012a2.485,2.485,0,0,0,.116,2.463c.381.656,1.374,1.756,3.759,1.756h1.228l-.007-.172a6.257,6.257,0,0,0-1.26-4,2.98,2.98,0,0,0-2.118-.893c-.023,0-.05,0-.076,0a.729.729,0,0,1-.092,0l-.043,0Z" transform="translate(4707.742 -23332.414)" fill="$black"/>
    </g>
  </g>
</svg>
