<svg xmlns="http://www.w3.org/2000/svg" xmlns:xlink="http://www.w3.org/1999/xlink" width="36" height="30" viewBox="0 0 36 30">
  <defs>
    <clipPath id="clip-path">
      <rect id="Прямоугольник_149840" data-name="Прямоугольник 149840" width="36" height="30" transform="translate(4695 -23290)" fill="$black"/>
    </clipPath>
  </defs>
  <g id="gift-card" transform="translate(-4695 23290)" clip-path="url(#clip-path)">
    <path id="gift-card-2" data-name="gift-card" d="M12710.225,24108a3.171,3.171,0,0,1-3.226-3.1v-13.775a3.172,3.172,0,0,1,3.226-3.094c4.251-.045,4.392-.045,23.549,0a3.172,3.172,0,0,1,3.226,3.094v13.775a3.171,3.171,0,0,1-3.226,3.1Zm4.937-1.174h18.612a1.965,1.965,0,0,0,2-1.922v-3.611h-19.76l1.852,1.824a.565.565,0,0,1,0,.824.611.611,0,0,1-.43.174.62.62,0,0,1-.437-.174l-1.84-1.811Zm-6.938-1.922a1.975,1.975,0,0,0,2.008,1.922h3.7v-4.7l-1.9,1.818a.625.625,0,0,1-.865,0,.569.569,0,0,1,0-.828l1.895-1.82h-4.84Zm11.294-6.545a2.377,2.377,0,0,1-.83,1.766h17.089v-9a1.963,1.963,0,0,0-2-1.92h-18.612v7.508a2.571,2.571,0,0,1,1.827-.748A2.465,2.465,0,0,1,12719.517,24098.355Zm-11.294-7.23v9h2.177a2.364,2.364,0,0,1-.824-1.766,2.466,2.466,0,0,1,2.528-2.391,2.594,2.594,0,0,1,1.266.33,2.4,2.4,0,0,1,.564.418v-7.508h-3.709A1.972,1.972,0,0,0,12708.223,24091.125Zm7.486,7.006-.354,1.756,1.878-.34a1.246,1.246,0,0,0,1.055-1.2,1.27,1.27,0,0,0-1.18-1.207c-.043,0-.08-.006-.125-.006A1.3,1.3,0,0,0,12715.709,24098.131Zm-4.909.225a1.241,1.241,0,0,0,1.055,1.191l1.877.34-.355-1.756a1.2,1.2,0,0,0-.612-.82,1.34,1.34,0,0,0-.66-.174h-.018A1.269,1.269,0,0,0,12710.8,24098.355Z" transform="translate(-8008.999 -47372.996)" fill="$black"/>
  </g>
</svg>
