<svg id="home" xmlns="http://www.w3.org/2000/svg" width="26" height="26" viewBox="0 0 26 26">
  <path id="Контур_6762" data-name="Контур 6762" d="M21.125,26H4.875A4.875,4.875,0,0,1,0,21.125V4.875A4.875,4.875,0,0,1,4.875,0h16.25A4.875,4.875,0,0,1,26,4.875v16.25A4.875,4.875,0,0,1,21.125,26Zm0,0" fill="#f5f5f6"/>
  <path id="Контур_6763" data-name="Контур 6763" d="M140.832,133.9l-6.03-5.78a.408.408,0,0,0-.564,0L128.2,133.9a.69.69,0,0,0-.2.483.679.679,0,0,0,.679.679h.951v4.889a1.087,1.087,0,0,0,1.086,1.087h7.6a1.087,1.087,0,0,0,1.087-1.086v-4.889h.951a.679.679,0,0,0,.679-.679.7.7,0,0,0-.207-.491Zm0,0" transform="translate(-121.52 -121.524)" fill="#dcdada"/>
</svg>
