<svg width="40" height="40" viewBox="0 0 40 40" fill="none" xmlns="http://www.w3.org/2000/svg">
<mask id="mask0_1547_7448" style="mask-type:luminance" maskUnits="userSpaceOnUse" x="0" y="-1" width="40" height="41">
<path d="M40 -0.0839844H0V39.7701H40V-0.0839844Z" fill="white"/>
</mask>
<g mask="url(#mask0_1547_7448)">
<path d="M35.7848 21.4878L35.7715 21.4625L20.5502 6.77496C20.4018 6.63597 20.2058 6.55859 20.0022 6.55859C19.7985 6.55859 19.6025 6.63597 19.4541 6.77496L4.24616 21.4625C4.17109 21.5286 4.11049 21.6094 4.06818 21.6998C4.02587 21.7902 4.00273 21.8884 4.00023 21.9881C3.99772 22.0879 4.01591 22.1871 4.05363 22.2795C4.09136 22.3719 4.14782 22.4556 4.21949 22.5253C4.36173 22.666 4.55248 22.7472 4.75281 22.7525C4.95399 22.7535 5.14873 22.6818 5.30083 22.5506L8.48348 19.4951V32.3945C8.48416 32.4939 8.50471 32.5921 8.54391 32.6835C8.58311 32.7748 8.64019 32.8575 8.71182 32.9266C8.78344 32.9958 8.86817 33.05 8.96106 33.0861C9.05395 33.1223 9.15312 33.1396 9.25281 33.1371H30.7715C30.9721 33.1396 31.1656 33.063 31.3098 32.9238C31.4539 32.7847 31.537 32.5944 31.5408 32.3945V19.4951L34.6715 22.5306C34.8166 22.6731 35.0108 22.755 35.2145 22.7597C35.4181 22.7644 35.6159 22.6915 35.7675 22.5559C35.8414 22.4883 35.9007 22.4064 35.9418 22.3152C35.9829 22.2241 36.005 22.1255 36.0066 22.0255C36.0082 21.9256 35.9894 21.8264 35.9513 21.7339C35.9131 21.6415 35.8565 21.5577 35.7848 21.4878ZM22.8195 31.6413H17.1982V22.7405H22.8195V31.6413ZM29.9928 31.6413H24.3715V21.9926C24.3656 21.7934 24.2819 21.6043 24.1382 21.4656C23.9945 21.3269 23.8022 21.2496 23.6022 21.25H16.4288C16.2267 21.2467 16.0313 21.3228 15.8849 21.4617C15.7385 21.6006 15.6528 21.7913 15.6462 21.9926V31.6413H10.0248V17.9992L20.0035 8.35054L29.9942 17.9992L29.9928 31.6413Z" fill="#6E00E5"/>
</g>
</svg>
