<svg xmlns="http://www.w3.org/2000/svg" xmlns:xlink="http://www.w3.org/1999/xlink" width="36" height="30" viewBox="0 0 36 30">
  <defs>
    <clipPath id="clip-path">
      <rect id="Прямоугольник_149868" width="36" height="30" fill="#000000"/>
    </clipPath>
  </defs>
  <g id="job" clip-path="url(#clip-path)">
    <path id="Объединение_81" d="M2.7,21.466A1.857,1.857,0,0,1,.85,19.615V10.968l-.4-.1A.6.6,0,0,1,0,10.284V5.173A1.86,1.86,0,0,1,1.854,3.318H7.079V2.068A2.073,2.073,0,0,1,9.147,0h6a2.073,2.073,0,0,1,2.068,2.068v1.25h5.273a1.859,1.859,0,0,1,1.854,1.856v5.109a.6.6,0,0,1-.454.584l-.4.1v8.646a1.857,1.857,0,0,1-1.851,1.852Zm-.65-1.851a.652.652,0,0,0,.65.65H21.64a.651.651,0,0,0,.65-.65V11.27l-8.4,2.13v.889a.592.592,0,0,1-.009.111,1.224,1.224,0,0,1-1.222,1.122H11.637A1.223,1.223,0,0,1,10.415,14.4a.588.588,0,0,1-.011-.112v-.9l-.205-.051L2.051,11.272Zm9.554-7.563v2.237a.032.032,0,0,0,.032.031h1.017a.032.032,0,0,0,.032-.031V12.051a.032.032,0,0,0-.032-.031H11.637A.032.032,0,0,0,11.606,12.052Zm1.049-1.234a1.237,1.237,0,0,1,1.232,1.233v.11l9.254-2.344V5.173a.656.656,0,0,0-.653-.653H1.854a.655.655,0,0,0-.653.654V9.817l9.2,2.329v-.1a1.236,1.236,0,0,1,1.233-1.233ZM8.28,2.069V3.318h7.732V2.068a.869.869,0,0,0-.867-.867h-6A.87.87,0,0,0,8.28,2.069Z" transform="translate(5.83 4.267)" fill="#000000"/>
  </g>
</svg>
