<svg xmlns="http://www.w3.org/2000/svg" xmlns:xlink="http://www.w3.org/1999/xlink" width="36" height="30" viewBox="0 0 36 30">
  <defs>
    <clipPath id="clip-path">
      <rect id="Прямоугольник_149868" data-name="Прямоугольник 149868" width="36" height="30" fill="$black"/>
    </clipPath>
  </defs>
  <g id="language" clip-path="url(#clip-path)">
    <g id="global" transform="translate(6.469 3.469)">
      <g id="Сгруппировать_13748" data-name="Сгруппировать 13748">
        <path id="Вычитание_24" data-name="Вычитание 24" d="M2400.213,983.594a11.381,11.381,0,1,1,11.382-11.381A11.394,11.394,0,0,1,2400.213,983.594Zm4.23-6.79h0l-.04.13a16.13,16.13,0,0,1-2.629,5.125l-.232.3.376-.064a10.194,10.194,0,0,0,6.58-4.093l.114-.156-.18-.072a22.192,22.192,0,0,0-3.856-1.148l-.133-.026Zm-8.462,0h0l-.133.026a22.034,22.034,0,0,0-3.854,1.148l-.18.072.114.156a10.185,10.185,0,0,0,6.579,4.093l.375.064-.231-.3a16.1,16.1,0,0,1-2.629-5.125Zm4.231-.386a22.759,22.759,0,0,0-2.909.187l-.178.023.055.171a14.952,14.952,0,0,0,2.919,5.219l.114.133.114-.133a14.988,14.988,0,0,0,2.92-5.219l.054-.171-.178-.023A22.782,22.782,0,0,0,2400.212,976.418Zm-9.01-9.055h0l-.064.121a10.184,10.184,0,0,0,0,9.461l.064.121.126-.052a22.938,22.938,0,0,1,4.221-1.289l.148-.03-.031-.149a16.177,16.177,0,0,1,0-6.658l.031-.148-.148-.03a23.218,23.218,0,0,1-4.219-1.3l-.126-.051Zm18.021,0h0l-.127.052a23.042,23.042,0,0,1-4.22,1.3l-.148.03.031.148a16.135,16.135,0,0,1,0,6.656l-.031.148.148.03a23.123,23.123,0,0,1,4.222,1.289l.127.052.063-.122a10.178,10.178,0,0,0,0-9.459l-.064-.121Zm-12.4,1.552-.029.136a15.015,15.015,0,0,0,0,6.337l.029.136.139-.019a23.874,23.874,0,0,1,6.487,0l.138.019.029-.136a15.023,15.023,0,0,0,0-6.337l-.03-.136-.138.018a21.343,21.343,0,0,1-6.494,0Zm3.386-6.64-.114.132a14.97,14.97,0,0,0-2.92,5.22l-.054.171.178.023a22.707,22.707,0,0,0,5.819,0l.178-.023-.054-.171a14.979,14.979,0,0,0-2.92-5.22Zm1.329-.211.232.3a16.137,16.137,0,0,1,2.629,5.126l.04.13.132-.026a21.956,21.956,0,0,0,3.857-1.148l.18-.071-.114-.157a10.2,10.2,0,0,0-6.58-4.092l-.376-.064Zm-2.663,0h0l-.375.064a10.186,10.186,0,0,0-6.577,4.092l-.114.157.18.071a21.972,21.972,0,0,0,3.854,1.148l.133.026.04-.13a16.112,16.112,0,0,1,2.627-5.126Z" transform="translate(-2388.681 -960.681)" fill="$black"/>
      </g>
    </g>
  </g>
</svg>
