<svg xmlns="http://www.w3.org/2000/svg" viewBox="0 0 20 18">
  <g id="heart" transform="translate(-102 -7.5)">
    <g id="Сгруппировать_13666" data-name="Сгруппировать 13666" transform="translate(14.757 -170.419)">
      <g id="like" transform="translate(87.243 177.919)">
        <g id="Сгруппировать_3823" data-name="Сгруппировать 3823">
          <path id="Контур_4129" data-name="Контур 4129" d="M18.541,31.6a4.983,4.983,0,0,0-8.043.59,7.839,7.839,0,0,0-.5.822,7.833,7.833,0,0,0-.5-.822,5.059,5.059,0,0,0-4.19-2.358A5.028,5.028,0,0,0,1.459,31.6,6.245,6.245,0,0,0,0,35.706a7.638,7.638,0,0,0,2.045,4.962,45.876,45.876,0,0,0,5.117,4.871c.774.672,1.574,1.367,2.426,2.126l.026.023a.578.578,0,0,0,.772,0l.026-.023c.852-.759,1.652-1.454,2.426-2.126a45.87,45.87,0,0,0,5.117-4.871A7.638,7.638,0,0,0,20,35.706,6.246,6.246,0,0,0,18.541,31.6ZM12.078,44.631c-.667.579-1.354,1.175-2.078,1.816-.724-.641-1.411-1.237-2.078-1.817-4.065-3.529-6.75-5.86-6.75-8.924a5.041,5.041,0,0,1,1.166-3.313A3.881,3.881,0,0,1,5.313,31.03a3.938,3.938,0,0,1,3.233,1.854,7.133,7.133,0,0,1,.9,1.817.583.583,0,0,0,1.114,0,7.133,7.133,0,0,1,.9-1.817,3.938,3.938,0,0,1,3.233-1.854,3.88,3.88,0,0,1,2.974,1.364,5.041,5.041,0,0,1,1.167,3.313C18.828,38.771,16.143,41.1,12.078,44.631Z" transform="translate(0 -29.836)" fill="#fff"/>
        </g>
      </g>
    </g>
    <g id="Сгруппировать_13668" data-name="Сгруппировать 13668" transform="translate(19.814 -165.867)">
      <g id="like-2" data-name="like" transform="translate(82.186 173.367)">
        <g id="Сгруппировать_3823-2" data-name="Сгруппировать 3823">
          <path id="Path_4129" data-name="Path 4129" d="M10,35.113a.587.587,0,0,0,.557-.412,7.133,7.133,0,0,1,.9-1.817,3.938,3.938,0,0,1,3.233-1.854,3.88,3.88,0,0,1,2.974,1.364,5.041,5.041,0,0,1,1.167,3.313c0,3.064-2.685,5.4-6.75,8.924-.667.579-1.354,1.175-2.078,1.816-.724-.641-1.411-1.237-2.078-1.817-4.065-3.529-6.75-5.86-6.75-8.924a5.041,5.041,0,0,1,1.166-3.313A3.881,3.881,0,0,1,5.313,31.03a3.938,3.938,0,0,1,3.233,1.854,7.133,7.133,0,0,1,.9,1.817.587.587,0,0,0,.557.412m0,.8a1.383,1.383,0,0,1-1.319-.968,6.3,6.3,0,0,0-.792-1.6A3.087,3.087,0,0,0,5.313,31.83a3.092,3.092,0,0,0-2.369,1.087,4.243,4.243,0,0,0-.971,2.789c0,2.7,2.576,4.936,6.475,8.32.5.436,1.018.884,1.554,1.354.536-.471,1.051-.918,1.553-1.354,3.9-3.385,6.475-5.621,6.475-8.32a4.242,4.242,0,0,0-.972-2.789,3.029,3.029,0,0,0-4.946.424,6.3,6.3,0,0,0-.792,1.6A1.383,1.383,0,0,1,10,35.913Z" transform="translate(0 -29.836)" fill="$black"/>
        </g>
      </g>
    </g>
  </g>
</svg>
