<svg width="100%" height="100%" viewBox="0 0 76 32" fill="none" xmlns="http://www.w3.org/2000/svg" preserveAspectRatio="xMidYMid meet">
<g id="LOGO_OF_LOGO 1" clip-path="url(#clip0_1139_11396)">
<g id="layer1">
<path id="path36291" d="M75.0292 13.7069C75.0292 19.6571 70.9825 23.8507 65.39 23.8507C59.7974 23.8507 55.7507 19.6571 55.7507 13.7069C55.7507 8.14627 60.3723 4.24332 65.39 4.24332C70.4076 4.24332 75.0292 8.14627 75.0292 13.7069ZM60.4649 13.7292C60.4649 16.9008 62.6847 19.2164 65.39 19.2164C68.0952 19.2164 70.315 16.9008 70.315 13.7292C70.315 11.1933 68.0952 8.87767 65.39 8.87767C62.6847 8.87767 60.4649 11.1933 60.4649 13.7292Z" fill="#0C9FB5"/>
<path id="path36295" d="M12.6713 16.561V16.6376C12.7096 17.4105 13.2494 17.8705 14.1724 17.9088H15.2519H24.0927C24.8337 16.3022 25.2489 14.5105 25.2489 12.626C25.2489 5.66971 19.6212 0.0260706 12.6713 0.000518799V15.4047V16.561Z" fill="#B7D52B"/>
<path id="path36299" d="M12.6319 23.8459C8.43193 23.4978 6.69763 21.5335 6.69763 17.1004V1.47897C2.71482 3.59973 0 7.79653 0 12.6257C0 19.5948 5.65322 25.2481 12.6255 25.2481C14.6824 25.2481 16.6243 24.7562 18.3394 23.8843H13.6348C13.325 23.8843 12.9801 23.8843 12.6319 23.8459Z" fill="#EDAC09"/>
<path id="path36303" d="M24.0911 17.9097H15.2535H14.174C13.2477 17.8714 12.708 17.4083 12.6696 16.6385V16.5619V15.4057V0.00146484C12.6537 0.00146484 12.6409 0.00146484 12.6249 0.00146484C10.4818 0.00146484 8.46325 0.534848 6.69702 1.47705V17.1017C6.69702 21.5316 8.43132 23.4991 12.6313 23.8472C12.9794 23.8823 13.3244 23.8823 13.6342 23.8823H18.3388C20.8652 22.5984 22.8997 20.4904 24.0911 17.9097Z" fill="#0C9FB5"/>
<path id="path36307" d="M42.8221 13.7232C42.8221 19.7181 38.7467 23.9469 33.1094 23.9469C27.4722 23.9469 23.3967 19.7181 23.3967 13.7232C23.3967 8.12103 28.0566 4.18933 33.1094 4.18933C38.1654 4.18933 42.8221 8.12103 42.8221 13.7232ZM28.1493 13.7487C28.1493 16.9426 30.385 19.2774 33.1094 19.2774C35.8338 19.2774 38.0696 16.9426 38.0696 13.7487C38.0696 11.1936 35.8338 8.85563 33.1094 8.85563C30.385 8.85563 28.1493 11.1936 28.1493 13.7487Z" fill="#0C9FB5"/>
<path id="path36311" d="M58.8376 26.3276V14.2738C58.8471 14.0598 58.8535 13.8458 58.8535 13.6286C58.8535 13.4402 58.8471 13.2517 58.8376 13.0633V13.0122C58.8344 13.0122 58.8344 13.009 58.8344 13.009C58.5054 7.78375 54.0403 4.16824 49.2143 4.16824C44.1999 4.16824 39.5751 8.0712 39.5751 13.6286C39.5751 19.5821 43.6218 23.7757 49.2143 23.7757C51.0732 23.7757 52.7595 23.3125 54.184 22.4757V26.0976C54.1553 26.7268 53.7145 27.1037 52.9608 27.1325H44.8802C45.8511 29.2372 47.5087 30.9556 49.5688 32L54.216 31.9712C57.6398 31.687 59.0515 30.0868 58.8376 26.3276ZM49.2143 19.1413C46.5091 19.1413 44.2925 16.8257 44.2925 13.6542C44.2925 11.1182 46.5091 8.8026 49.2143 8.8026C51.9195 8.8026 54.1393 11.1182 54.1393 13.6542C54.1393 16.8257 51.9195 19.1413 49.2143 19.1413Z" fill="#0C9FB5"/>
<path id="path36315" d="M11.0235 11.6938L11.0203 11.6618C11.0139 11.5979 11.0363 11.5277 11.0938 11.4574C11.1481 11.3935 11.1768 11.3488 11.1768 11.2945C11.1768 11.237 11.1417 11.1955 11.065 11.1955C11.0235 11.1955 10.9756 11.2083 10.9468 11.2306L10.9181 11.1572C10.9564 11.1252 11.0235 11.1061 11.0874 11.1061C11.2247 11.1061 11.2854 11.1923 11.2854 11.2817C11.2854 11.3616 11.2407 11.4223 11.1832 11.4894C11.1321 11.55 11.1129 11.6011 11.1161 11.6618V11.6938H11.0235ZM11.0682 11.9333C11.0267 11.9333 10.9979 11.9014 10.9979 11.8598C10.9979 11.8151 11.0299 11.7864 11.0682 11.7864C11.1129 11.7864 11.1385 11.8151 11.1385 11.8598C11.1385 11.9014 11.1129 11.9333 11.0682 11.9333Z" fill="#221E1F"/>
<path id="path36319" d="M70.5065 23.3937V23.8312H70.4458V23.3937H70.2893V23.3362H70.663V23.3937H70.5065Z" fill="#0C9FB5"/>
<path id="path36323" d="M71.314 23.8309H71.2533V23.4892C71.2533 23.4317 71.2086 23.3806 71.1479 23.3806C71.0872 23.3806 71.0425 23.4317 71.0425 23.4892V23.8309H70.9818V23.4892C70.9818 23.4317 70.9371 23.3806 70.8732 23.3806C70.8158 23.3806 70.7678 23.4317 70.7678 23.4892V23.8309H70.7072V23.4892C70.7072 23.3997 70.7806 23.3231 70.8732 23.3231C70.9339 23.3231 70.985 23.355 71.0106 23.3997C71.0393 23.355 71.0872 23.3231 71.1479 23.3231C71.2405 23.3231 71.314 23.3997 71.314 23.4892V23.8309Z" fill="#0C9FB5"/>
<path id="path3023" d="M12.6728 23.8212C9.95645 23.5853 8.29509 22.6752 7.4561 20.9633C7.19384 20.4282 7.07613 20.07 6.90513 19.2868C6.771 18.6725 6.7701 18.6197 6.74858 10.078L6.72693 1.48714L7.27356 1.23335C8.77203 0.537653 10.3006 0.152686 11.9418 0.0576486L12.6417 0.0171204V8.44939V16.8817L12.8158 17.2149C12.9622 17.4952 13.048 17.5779 13.3557 17.7353L13.7215 17.9224L18.8739 17.94L24.0262 17.9576L23.8039 18.3991C22.7649 20.4623 20.903 22.3909 18.7965 23.5863L18.3074 23.8637L15.6146 23.8533C14.1335 23.8475 12.8097 23.8331 12.6728 23.8212ZM11.1366 11.6372C11.1174 11.618 11.0826 11.6526 11.0593 11.7139C11.0255 11.8026 11.0327 11.8097 11.0941 11.7488C11.1366 11.7066 11.1557 11.6564 11.1366 11.6372ZM11.3343 11.2811C11.3348 11.2555 11.3072 11.2345 11.273 11.2345C11.2388 11.2345 11.2112 11.2975 11.2118 11.3744C11.2125 11.4876 11.2243 11.4966 11.273 11.4211C11.3062 11.3698 11.3338 11.3068 11.3343 11.2811ZM11.1486 11.1722C11.1486 11.138 11.1206 11.11 11.0864 11.11C11.0522 11.11 11.0242 11.138 11.0242 11.1722C11.0242 11.2065 11.0522 11.2345 11.0864 11.2345C11.1206 11.2345 11.1486 11.2065 11.1486 11.1722Z" fill="#0C9FB5"/>
<path id="path3025" d="M12.3618 23.7907C11.5985 23.7139 10.5795 23.4786 9.99259 23.2435C8.23598 22.5402 7.32655 21.3506 6.87577 19.1666C6.78387 18.7214 6.77061 17.7634 6.74999 10.078L6.72693 1.48714L7.27356 1.23335C8.76502 0.540909 10.3092 0.149746 11.9107 0.0586846L12.6417 0.0171204L12.6431 8.44094C12.6444 16.5076 12.6493 16.8753 12.7597 17.1136C12.9011 17.4191 13.1529 17.662 13.4816 17.8102C13.7139 17.9149 14.0735 17.9236 18.8783 17.94L24.0261 17.9576L23.784 18.4377C22.7652 20.4586 20.9168 22.3735 18.8258 23.5744L18.322 23.8637L15.6218 23.8554C14.1368 23.8507 12.6697 23.8216 12.3618 23.7907ZM11.2484 11.3135C11.2277 11.2929 11.213 11.3296 11.2157 11.3952C11.2187 11.4677 11.2335 11.4824 11.2533 11.4328C11.2713 11.3879 11.2691 11.3342 11.2484 11.3135Z" fill="#0C9FB5"/>
<path id="path3027" d="M12.3928 23.7939C8.85759 23.4375 7.13189 21.7928 6.79632 18.4602C6.7549 18.0488 6.73145 14.8639 6.73145 9.65046V1.48503L7.27581 1.2323C8.76486 0.540973 10.3101 0.149691 11.9107 0.0586846L12.6417 0.0171204L12.642 8.37873C12.6423 14.0215 12.6636 16.8167 12.7076 16.9753C12.7946 17.2885 13.0794 17.6017 13.4376 17.7782L13.7304 17.9224L18.8775 17.9415L24.0247 17.9607L23.8004 18.4081C22.8031 20.3986 21.0455 22.2494 18.9889 23.4749L18.3364 23.8637L15.629 23.8555C14.14 23.8509 12.6837 23.8232 12.3928 23.7939Z" fill="#0C9FB5"/>
</g>
</g>
<defs>
<clipPath id="clip0_1139_11396">
<rect width="75.0291" height="32" fill="white"/>
</clipPath>
</defs>
</svg>
