<svg xmlns="http://www.w3.org/2000/svg" xmlns:xlink="http://www.w3.org/1999/xlink" width="24" height="24" viewBox="0 0 24 24">
  <defs>
    <clipPath id="clip-path">
      <rect id="Прямоугольник_2246" data-name="Прямоугольник 2246" width="24" height="24" transform="translate(1343 306)" fill="#fff"/>
    </clipPath>
  </defs>
  <g id="mail" transform="translate(-1343 -306)" clip-path="url(#clip-path)">
    <g id="envelope" transform="translate(1345.86 246.529)">
      <g id="Сгруппировать_5103" data-name="Сгруппировать 5103" transform="translate(0 64)">
        <path id="Контур_6063" data-name="Контур 6063" d="M17.377,64H1.58A1.579,1.579,0,0,0,0,65.575V76.6a1.579,1.579,0,0,0,1.58,1.575h15.8a1.579,1.579,0,0,0,1.58-1.575V65.575A1.579,1.579,0,0,0,17.377,64Zm-15.8.788h15.8a.753.753,0,0,1,.164.033c-1.368,1.248-5.9,5.386-7.49,6.812a.794.794,0,0,1-1.147,0c-1.587-1.426-6.122-5.564-7.49-6.811A.756.756,0,0,1,1.58,64.788ZM.79,76.6V65.575a.759.759,0,0,1,.044-.218c1.047.955,4.211,3.842,6.263,5.7-2.045,1.752-5.21,4.745-6.265,5.748A.757.757,0,0,1,.79,76.6Zm16.588.788H1.58a.758.758,0,0,1-.178-.036c1.09-1.037,4.276-4.046,6.285-5.761l.69.622a1.581,1.581,0,0,0,2.2,0l.69-.623c2.009,1.714,5.194,4.724,6.285,5.761A.757.757,0,0,1,17.377,77.392Zm.79-.788a.759.759,0,0,1-.042.205c-1.056-1-4.22-4-6.265-5.748,2.052-1.861,5.216-4.747,6.263-5.7a.759.759,0,0,1,.044.218Z" transform="translate(0 -64)" fill="$black"/>
      </g>
    </g>
  </g>
</svg>
