<svg width="343" height="26" viewBox="0 0 343 26" fill="none" xmlns="http://www.w3.org/2000/svg">
<path d="M8.646 7.844C8.01533 7.844 7.45067 7.96867 6.952 8.218C6.468 8.46733 6.05733 8.82667 5.72 9.296C5.38267 9.75067 5.126 10.308 4.95 10.968C4.78867 11.628 4.708 12.3687 4.708 13.19C4.708 14.3047 4.84 15.258 5.104 16.05C5.38267 16.8273 5.81533 17.4213 6.402 17.832C6.98867 18.2427 7.73667 18.448 8.646 18.448C9.29133 18.448 9.92933 18.3747 10.56 18.228C11.2053 18.0813 11.902 17.876 12.65 17.612V20.406C11.9607 20.6847 11.2787 20.89 10.604 21.022C9.92933 21.154 9.174 21.22 8.338 21.22C6.72467 21.22 5.39 20.89 4.334 20.23C3.29267 19.5553 2.52267 18.6167 2.024 17.414C1.52533 16.1967 1.276 14.7813 1.276 13.168C1.276 11.98 1.43733 10.8947 1.76 9.912C2.08267 8.91467 2.552 8.05667 3.168 7.338C3.79867 6.61933 4.56867 6.062 5.478 5.666C6.402 5.27 7.458 5.072 8.646 5.072C9.42333 5.072 10.2007 5.17467 10.978 5.38C11.77 5.57067 12.5253 5.83467 13.244 6.172L12.166 8.878C11.5793 8.59933 10.9853 8.35733 10.384 8.152C9.79733 7.94667 9.218 7.844 8.646 7.844ZM22.0378 21H18.7158V8.064H14.4478V5.292H26.3058V8.064H22.0378V21ZM36.472 16.402C36.032 17.3993 35.5627 18.2647 35.064 18.998C34.58 19.7167 33.9567 20.2667 33.194 20.648C32.4314 21.0293 31.434 21.22 30.202 21.22C29.8207 21.22 29.4027 21.1907 28.948 21.132C28.4934 21.0733 28.0754 20.9927 27.694 20.89V18.03C28.046 18.1767 28.4347 18.2793 28.86 18.338C29.2854 18.3967 29.6814 18.426 30.048 18.426C30.532 18.426 30.9207 18.3453 31.214 18.184C31.522 18.0227 31.764 17.8027 31.94 17.524C32.1307 17.2307 32.2847 16.9153 32.402 16.578L26.968 5.292H30.488L33.414 12.09C33.4874 12.2367 33.5754 12.4273 33.678 12.662C33.7807 12.8967 33.8834 13.1387 33.986 13.388C34.0887 13.6373 34.1694 13.8573 34.228 14.048H34.338C34.3967 13.872 34.47 13.6593 34.558 13.41C34.6607 13.146 34.7634 12.882 34.866 12.618C34.9834 12.3393 35.086 12.0973 35.174 11.892L37.902 5.292H41.334L36.472 16.402ZM54.6502 21H51.3282V8.064H47.4782C47.3902 8.73867 47.2949 9.472 47.1922 10.264C47.1042 11.056 47.0016 11.8627 46.8842 12.684C46.7816 13.4907 46.6716 14.2607 46.5542 14.994C46.4369 15.7127 46.3196 16.3507 46.2022 16.908C46.0116 17.8173 45.7549 18.5947 45.4322 19.24C45.1242 19.8853 44.6916 20.3767 44.1342 20.714C43.5916 21.0513 42.8802 21.22 42.0002 21.22C41.7069 21.22 41.4282 21.198 41.1642 21.154C40.9002 21.11 40.6509 21.0513 40.4162 20.978V18.25C40.6069 18.3087 40.7902 18.36 40.9662 18.404C41.1569 18.448 41.3622 18.47 41.5822 18.47C41.8756 18.47 42.1176 18.3747 42.3082 18.184C42.4989 17.9933 42.6676 17.6707 42.8142 17.216C42.9609 16.7467 43.1076 16.1013 43.2542 15.28C43.3276 14.928 43.4156 14.4293 43.5182 13.784C43.6209 13.124 43.7382 12.354 43.8702 11.474C44.0169 10.5793 44.1636 9.61133 44.3102 8.57C44.4569 7.514 44.5962 6.42133 44.7282 5.292H54.6502V21ZM58.6128 21V5.292H61.9348V11.32H63.2548C64.7361 11.32 65.9461 11.5253 66.8848 11.936C67.8381 12.3467 68.5421 12.9113 68.9968 13.63C69.4515 14.3487 69.6788 15.17 69.6788 16.094C69.6788 17.1207 69.4515 18.0007 68.9968 18.734C68.5421 19.4673 67.8381 20.032 66.8848 20.428C65.9315 20.8093 64.6995 21 63.1888 21H58.6128ZM63.0568 18.272C64.0688 18.272 64.8608 18.1107 65.4328 17.788C66.0195 17.4653 66.3128 16.9007 66.3128 16.094C66.3128 15.5367 66.1661 15.1113 65.8728 14.818C65.5941 14.5247 65.1908 14.3267 64.6628 14.224C64.1495 14.1067 63.5261 14.048 62.7928 14.048H61.9348V18.272H63.0568ZM77.9221 14.972L74.2481 21H70.5521L75.0181 14.092C74.5928 13.916 74.1674 13.6593 73.7421 13.322C73.3168 12.97 72.9648 12.508 72.6861 11.936C72.4074 11.3493 72.2681 10.6307 72.2681 9.78C72.2681 8.328 72.7888 7.22067 73.8301 6.458C74.8714 5.68067 76.3308 5.292 78.2081 5.292H83.3121V21H79.9901V14.972H77.9221ZM78.3401 8.02C77.7681 8.02 77.2768 8.086 76.8661 8.218C76.4701 8.35 76.1621 8.56267 75.9421 8.856C75.7368 9.14933 75.6341 9.538 75.6341 10.022C75.6341 10.7113 75.8614 11.2613 76.3161 11.672C76.7854 12.068 77.4894 12.266 78.4281 12.266H79.9901V8.02H78.3401Z" fill="#1D1D1D"/>
<path d="M100.109 16.2156L105.152 11.0647C105.268 10.9446 105.333 10.7841 105.333 10.617C105.333 10.45 105.268 10.2894 105.152 10.1694L104.78 9.78971C104.723 9.73111 104.655 9.68453 104.58 9.65272C104.504 9.62092 104.423 9.60454 104.342 9.60454C104.26 9.60454 104.179 9.62092 104.104 9.65272C104.028 9.68453 103.96 9.73111 103.903 9.78971L99.6666 14.1156L95.4269 9.78518C95.3699 9.72658 95.3017 9.68 95.2263 9.64819C95.151 9.61639 95.0701 9.60001 94.9883 9.60001C94.9065 9.60001 94.8256 9.61639 94.7502 9.64819C94.6749 9.68 94.6067 9.72658 94.5497 9.78518L94.178 10.1648C94.0618 10.2849 93.9968 10.4454 93.9968 10.6125C93.9968 10.7796 94.0618 10.9401 94.178 11.0602L99.2258 16.2156C99.2831 16.274 99.3516 16.3204 99.4271 16.352C99.5026 16.3837 99.5836 16.4 99.6655 16.4C99.7473 16.4 99.8284 16.3837 99.9039 16.352C99.9794 16.3204 100.048 16.274 100.105 16.2156H100.109Z" fill="#1D1D1D"/>
<g clip-path="url(#clip0_1246_6210)">
<path d="M342.332 7.32205H325.53C325.17 7.32205 324.862 7.01375 324.862 6.65401C324.862 6.29426 325.17 5.98596 325.53 5.98596H342.332C342.692 5.98596 343 6.29426 343 6.65401C343 7.01375 342.692 7.32205 342.332 7.32205Z" fill="#1D1D1D"/>
<path d="M320.289 7.32206H317.668C317.308 7.32206 317 7.01376 317 6.65419C317 6.29445 317.308 5.98615 317.668 5.98615H320.289C320.648 5.98615 320.957 6.29445 320.957 6.65419C320.956 7.01376 320.7 7.32206 320.289 7.32206Z" fill="#1D1D1D"/>
<path d="M342.332 13.6422H337.913C337.553 13.6422 337.245 13.3339 337.245 12.9742C337.245 12.6144 337.553 12.3061 337.913 12.3061H342.332C342.692 12.3061 343 12.6144 343 12.9742C343 13.3339 342.692 13.6422 342.332 13.6422Z" fill="#1D1D1D"/>
<path d="M332.672 13.6422H317.668C317.308 13.6422 317 13.3339 317 12.9744C317 12.6148 317.308 12.3063 317.668 12.3063H332.672C333.032 12.3063 333.34 12.6146 333.34 12.9744C333.34 13.3341 333.032 13.6422 332.672 13.6422Z" fill="#1D1D1D"/>
<path d="M342.332 20.0138H325.53C325.17 20.0138 324.862 19.7055 324.862 19.3458C324.862 18.9861 325.17 18.6777 325.53 18.6777H342.332C342.692 18.6777 343 18.9861 343 19.3458C343 19.7055 342.692 20.0138 342.332 20.0138Z" fill="#1D1D1D"/>
<path d="M320.289 20.0139H317.668C317.308 20.0139 317 19.7055 317 19.3458C317 18.9348 317.308 18.6265 317.668 18.6265H320.289C320.648 18.6265 320.957 18.9348 320.957 19.2945C321.008 19.7055 320.7 20.0139 320.289 20.0139Z" fill="#1D1D1D"/>
<path d="M322.909 9.94262C321.111 9.94262 319.621 8.45255 319.621 6.65401C319.621 4.85547 321.111 3.36559 322.909 3.36559C324.708 3.36559 326.198 4.85565 326.198 6.65419C326.198 8.45273 324.759 9.94262 322.909 9.94262ZM322.909 4.7015C321.83 4.7015 320.957 5.57496 320.957 6.65401C320.957 7.73307 321.83 8.60653 322.909 8.60653C323.988 8.60653 324.862 7.73307 324.862 6.65401C324.862 5.57496 323.988 4.7015 322.909 4.7015Z" fill="#1D1D1D"/>
<path d="M335.293 16.2628C333.494 16.2628 332.004 14.7727 332.004 12.9742C332.004 11.1756 333.494 9.68558 335.293 9.68558C337.091 9.68558 338.581 11.1756 338.581 12.9742C338.581 14.7727 337.142 16.2628 335.293 16.2628ZM335.293 11.0217C334.213 11.0217 333.34 11.8951 333.34 12.9742C333.34 14.0532 334.213 14.9267 335.293 14.9267C336.372 14.9267 337.245 14.0532 337.245 12.9742C337.245 11.8953 336.372 11.0217 335.293 11.0217Z" fill="#1D1D1D"/>
<path d="M322.909 22.6344C321.111 22.6344 319.621 21.1443 319.621 19.3458C319.621 17.496 321.111 16.0572 322.909 16.0572C324.708 16.0572 326.198 17.5473 326.198 19.3458C326.249 21.1443 324.759 22.6344 322.909 22.6344ZM322.909 17.3933C321.83 17.3933 320.957 18.2667 320.957 19.3458C320.957 20.4248 321.83 21.2983 322.909 21.2983C323.988 21.2983 324.862 20.4248 324.862 19.3458C324.862 18.2667 323.988 17.3933 322.909 17.3933Z" fill="#1D1D1D"/>
</g>
<defs>
<clipPath id="clip0_1246_6210">
<rect width="26" height="19.2688" fill="white" transform="translate(317 3.36559)"/>
</clipPath>
</defs>
</svg>
