<svg xmlns="http://www.w3.org/2000/svg" xmlns:xlink="http://www.w3.org/1999/xlink" width="36" height="30" viewBox="0 0 36 30">
  <defs>
    <clipPath id="clip-path">
      <rect id="Прямоугольник_147727" data-name="Прямоугольник 147727" width="36" height="30" transform="translate(160 360)" fill="$black"/>
    </clipPath>
  </defs>
  <g id="orders" transform="translate(-160 -360)" clip-path="url(#clip-path)">
    <path id="Контур_6449" data-name="Контур 6449" d="M1036.236,96.1l-2.6-6.364c-.09-.257-.316-.417-.77-.417H1017.9a.6.6,0,0,0-.391.394l-2.559,6.4-.02.05v.047a.5.5,0,0,0-.024.173v16.134a.548.548,0,0,0,.137.408.634.634,0,0,0,.472.217h20.157a.6.6,0,0,0,.609-.609V96.359A.565.565,0,0,0,1036.236,96.1Zm-12.36,5.717a.575.575,0,0,0,.419-.163l1.276-.854.474.369.837.494a.6.6,0,0,0,.45.128.611.611,0,0,0,.422-.257l.005-.007a.658.658,0,0,0,.118-.367V96.921h7.141V111.9l-18.892-.046V96.968h7.141v4.243A.6.6,0,0,0,1023.876,101.821Zm2.758-1.885-.676-.387a.629.629,0,0,0-.754-.014l-.7.4V96.968h2.125Zm1.2-4.21-.407-5.184h5.193l2.1,5.184Zm-11.407,0,2.078-5.184h5.193l-.385,5.184Zm8.13,0,.386-5.184h1.264l.385,5.184Z" transform="translate(-847.905 273.677)" fill="$black"/>
  </g>
</svg>
