<svg width="40" height="40" viewBox="0 0 40 40" fill="none" xmlns="http://www.w3.org/2000/svg">
<path d="M20.0014 6.69336C17.3694 6.69316 14.7966 7.47344 12.6081 8.93551C10.4197 10.3976 8.71392 12.4758 7.70659 14.9073C6.69926 17.3388 6.43559 20.0144 6.94893 22.5958C7.46227 25.1772 8.72956 27.5484 10.5905 29.4095C12.4515 31.2706 14.8226 32.5381 17.4039 33.0516C19.9853 33.5651 22.6609 33.3017 25.0925 32.2945C27.5241 31.2874 29.6024 29.5818 31.0647 27.3934C32.5269 25.2051 33.3074 22.6323 33.3074 20.0004C33.3052 16.4719 31.9027 13.0886 29.4078 10.5936C26.913 8.09852 23.5298 6.69574 20.0014 6.69336ZM20.0014 32.1524C17.5979 32.1524 15.2485 31.4397 13.2501 30.1044C11.2517 28.7691 9.69414 26.8712 8.77438 24.6507C7.85462 22.4302 7.61398 19.9869 8.08286 17.6296C8.55175 15.2724 9.70912 13.1071 11.4086 11.4076C13.1081 9.70811 15.2734 8.55074 17.6306 8.08186C19.9879 7.61297 22.4312 7.85362 24.6517 8.77338C26.8722 9.69313 28.7701 11.2507 30.1054 13.2491C31.4407 15.2475 32.1534 17.5969 32.1534 20.0004C32.1499 23.2222 30.8685 26.3111 28.5903 28.5893C26.3121 30.8675 23.2232 32.1489 20.0014 32.1524Z" fill="#6E00E5"/>
<path d="M26.9271 17.115H22.8871V13.075C22.8873 12.9992 22.8726 12.9241 22.8437 12.8539C22.8148 12.7838 22.7723 12.7201 22.7186 12.6665C22.665 12.6128 22.6013 12.5703 22.5312 12.5414C22.461 12.5125 22.3859 12.4978 22.31 12.4981H17.6921C17.6162 12.4978 17.5411 12.5125 17.4709 12.5414C17.4008 12.5703 17.3371 12.6128 17.2835 12.6665C17.2298 12.7201 17.1873 12.7838 17.1584 12.8539C17.1295 12.9241 17.1148 12.9992 17.115 13.075V17.115H13.075C12.9992 17.1148 12.9241 17.1295 12.8539 17.1584C12.7838 17.1873 12.7201 17.2298 12.6665 17.2835C12.6128 17.3371 12.5703 17.4008 12.5414 17.4709C12.5125 17.5411 12.4978 17.6162 12.4981 17.6921V22.309C12.4978 22.3849 12.5125 22.46 12.5414 22.5302C12.5703 22.6003 12.6128 22.664 12.6665 22.7176C12.7201 22.7713 12.7838 22.8138 12.8539 22.8427C12.9241 22.8716 12.9992 22.8863 13.075 22.8861H17.115V26.9261C17.1148 27.0019 17.1295 27.077 17.1584 27.1472C17.1873 27.2173 17.2298 27.281 17.2835 27.3346C17.3371 27.3883 17.4008 27.4308 17.4709 27.4597C17.5411 27.4886 17.6162 27.5033 17.6921 27.503H22.309C22.3849 27.5033 22.46 27.4886 22.5302 27.4597C22.6003 27.4308 22.664 27.3883 22.7176 27.3346C22.7713 27.281 22.8138 27.2173 22.8427 27.1472C22.8716 27.077 22.8863 27.0019 22.8861 26.9261V22.8861H26.9261C27.0019 22.8863 27.077 22.8716 27.1472 22.8427C27.2173 22.8138 27.281 22.7713 27.3346 22.7176C27.3883 22.664 27.4308 22.6003 27.4597 22.5302C27.4886 22.46 27.5033 22.3849 27.503 22.309V17.6921C27.493 17.5425 27.4291 17.4016 27.3232 17.2956C27.2173 17.1895 27.0766 17.1253 26.9271 17.115ZM26.382 21.7321H22.31C22.2342 21.7318 22.1591 21.7465 22.0889 21.7754C22.0188 21.8043 21.9551 21.8468 21.9015 21.9005C21.8478 21.9541 21.8053 22.0178 21.7764 22.0879C21.7475 22.158 21.7328 22.2332 21.7331 22.309V26.349H18.27V22.309C18.2703 22.2332 18.2556 22.158 18.2267 22.0879C18.1978 22.0178 18.1553 21.9541 18.1016 21.9005C18.048 21.8468 17.9843 21.8043 17.9142 21.7754C17.844 21.7465 17.7689 21.7318 17.693 21.7321H13.653V18.27H17.693C17.7689 18.2703 17.844 18.2556 17.9142 18.2267C17.9843 18.1978 18.048 18.1553 18.1016 18.1016C18.1553 18.048 18.1978 17.9843 18.2267 17.9142C18.2556 17.844 18.2703 17.7689 18.27 17.693V13.653H21.765V17.693C21.7648 17.7689 21.7795 17.844 21.8084 17.9142C21.8373 17.9843 21.8798 18.048 21.9335 18.1016C21.9871 18.1553 22.0508 18.1978 22.1209 18.2267C22.1911 18.2556 22.2662 18.2703 22.3421 18.27H26.382V21.7321Z" fill="#6E00E5"/>
</svg>
