<svg xmlns="http://www.w3.org/2000/svg" width="40" height="40" viewBox="0 0 40 40" fill="none">
<mask id="mask0_1547_7492" style="mask-type:luminance" maskUnits="userSpaceOnUse" x="0" y="-1" width="40" height="41">
<path d="M40 -0.0839844H0V39.7701H40V-0.0839844Z" fill="white"/>
</mask>
<g mask="url(#mask0_1547_7492)">
<path d="M35.2533 7.88676C35.0567 7.88675 34.868 7.96404 34.7282 8.10184C34.5884 8.23963 34.5088 8.42681 34.5067 8.62274V9.75991H10.4533C10.2396 9.74686 10.0303 9.69414 9.836 9.60447C9.64792 9.51469 9.4935 9.36747 9.39518 9.18422C9.29686 9.00096 9.25977 8.79123 9.28933 8.58554C9.28467 8.49623 9.26196 8.40878 9.22255 8.32842C9.18315 8.24807 9.12785 8.17648 9.06 8.11793C8.90638 7.99069 8.71309 7.9207 8.51333 7.91999C8.32626 7.92677 8.14858 8.00331 8.01548 8.13445C7.88238 8.26559 7.80356 8.44175 7.79466 8.62805C7.79461 8.95668 7.85285 9.28275 7.96667 9.5912L8.02401 9.80376L7.82267 9.86088C7.27447 10.0154 6.79159 10.3434 6.44692 10.7954C6.10225 11.2473 5.91451 11.7987 5.91201 12.3664V13.4996H4.74666C4.55001 13.4995 4.3613 13.5768 4.2215 13.7146C4.0817 13.8524 4.00211 14.0396 4 14.2355V17.9725C4.00211 18.1684 4.0817 18.3556 4.2215 18.4934C4.3613 18.6312 4.55001 18.7085 4.74666 18.7085C4.87216 18.7109 4.99588 18.7385 5.11043 18.7896C5.22498 18.8407 5.328 18.9144 5.41333 19.0061C5.49774 19.1017 5.55963 19.2149 5.59446 19.3374C5.6293 19.4599 5.6362 19.5886 5.61466 19.7141C5.61466 19.7141 5.572 20.0542 4.37866 28.7889C4.32542 29.129 4.3401 29.4763 4.42187 29.8107C4.50365 30.1451 4.6509 30.4602 4.85518 30.7378C5.05946 31.0154 5.31675 31.25 5.61228 31.4283C5.90781 31.6066 6.23577 31.725 6.57733 31.7767C6.71588 31.793 6.85517 31.8023 6.99467 31.8045H14.2507C14.3484 31.8058 14.4454 31.7876 14.536 31.7512C14.6266 31.7147 14.7091 31.6607 14.7786 31.5922C14.848 31.5237 14.9032 31.4422 14.9407 31.3523C14.9783 31.2624 14.9975 31.1659 14.9973 31.0686V24.316H16.1467C17.187 24.3194 18.197 23.9668 19.0079 23.3174C19.8187 22.6679 20.3812 21.7608 20.6013 20.7477L20.6307 20.5777H29.564C29.6617 20.5787 29.7586 20.5605 29.8491 20.5239C29.9397 20.4874 30.022 20.4334 30.0915 20.3649C30.1609 20.2965 30.2161 20.215 30.2537 20.1252C30.2913 20.0354 30.3107 19.939 30.3107 19.8417V18.7085H35.2533C35.351 18.7095 35.4479 18.6913 35.5385 18.6548C35.629 18.6182 35.7114 18.5642 35.7808 18.4958C35.8503 18.4273 35.9054 18.3458 35.943 18.256C35.9806 18.1662 36 18.0698 36 17.9725V8.62805C36.0007 8.53028 35.9819 8.43335 35.9446 8.34292C35.9073 8.25248 35.8522 8.17036 35.7827 8.10135C35.7132 8.03234 35.6306 7.97783 35.5397 7.94099C35.4488 7.90414 35.3515 7.8857 35.2533 7.88676ZM19.0133 20.8407C18.8008 21.43 18.4107 21.9394 17.8963 22.2993C17.3819 22.6591 16.7685 22.8517 16.14 22.8507H14.9907V20.571H19.1147L19.0133 20.8407ZM28.8133 19.0991H14.2453C14.0487 19.099 13.86 19.1763 13.7202 19.3141C13.5804 19.4519 13.5008 19.6391 13.4987 19.835V30.3299H6.97467C6.8087 30.3289 6.64484 30.2928 6.49386 30.2241C6.34287 30.1554 6.20819 30.0557 6.09867 29.9314C5.99228 29.8054 5.91522 29.6576 5.87303 29.4984C5.83084 29.3392 5.82458 29.1727 5.85468 29.0108C5.86934 28.8779 6.01332 27.8497 7.09066 19.936C7.14303 19.6015 7.12124 19.2596 7.02679 18.9344C6.93235 18.6092 6.76756 18.3085 6.54401 18.0535C6.29468 17.7656 5.97899 17.5423 5.624 17.4026L5.49066 17.3601V14.9689H28.812L28.8133 19.0991ZM34.504 17.2392H30.308V14.9595H34.504V17.2392ZM34.504 13.4876H7.39067V12.3544C7.39313 12.0526 7.5154 11.764 7.73075 11.5516C7.9461 11.3393 8.23703 11.2205 8.54 11.2212H34.5053L34.504 13.4876Z" fill="rgb(102, 34, 224)"/>
</g>
</svg>