<svg id="Сгруппировать_3583" data-name="Сгруппировать 3583" xmlns="http://www.w3.org/2000/svg" width="20" height="20" viewBox="0 0 20 20">
  <path id="Контур_4107" d="M10,0A10,10,0,1,0,20,10,10.011,10.011,0,0,0,10,0Zm0,18.688A8.688,8.688,0,1,1,18.688,10,8.7,8.7,0,0,1,10,18.688Z" fill="$grey-2"/>
  <path id="Контур_4108" d="M139.4,91.382a3.193,3.193,0,0,0-3.189,3.19.656.656,0,1,0,1.312,0A1.878,1.878,0,1,1,139.4,96.45a.656.656,0,0,0-.656.656V99.39a.656.656,0,1,0,1.311,0v-1.7a3.19,3.19,0,0,0-.656-6.311Z" transform="translate(-129.397 -86.813)" fill="$grey-2"/>
  <path id="Контур_4109" d="M184.362,273.738a.823.823,0,1,0,.823.823A.823.823,0,0,0,184.362,273.738Z" transform="translate(-174.362 -260.051)" fill="$grey-2"/>
</svg>
