<svg width="40" height="40" viewBox="0 0 40 40" fill="none" xmlns="http://www.w3.org/2000/svg">
<mask id="mask0_1547_7546" style="mask-type:luminance" maskUnits="userSpaceOnUse" x="0" y="-1" width="40" height="41">
<path d="M40 -0.0839844H0V39.7701H40V-0.0839844Z" fill="white"/>
</mask>
<g mask="url(#mask0_1547_7546)">
<path d="M32.8692 10.1721L20.2265 4.00002C20.0953 3.93859 19.9528 3.90469 19.8079 3.90039C19.669 3.90516 19.5327 3.93911 19.4079 4.00002L7.12122 10.1721C6.98993 10.2326 6.87826 10.3285 6.79885 10.4489C6.71944 10.5694 6.67545 10.7096 6.67188 10.8536V19.5936C6.75755 22.9754 7.85739 26.2542 9.82972 29.0078C11.8021 31.7614 14.5566 33.8636 17.7385 35.0437L19.4452 35.708C19.5523 35.7571 19.6687 35.7825 19.7866 35.7825C19.9044 35.7825 20.0208 35.7571 20.1279 35.708L22.0519 34.956C25.2931 33.8127 28.1089 31.7146 30.1258 28.9401C32.1427 26.1656 33.2655 22.8458 33.3452 19.4209V10.851C33.3388 10.7044 33.2906 10.5628 33.2063 10.4425C33.122 10.3223 33.0051 10.2285 32.8692 10.1721ZM31.6279 19.4222C31.5612 22.5332 30.5439 25.5499 28.7116 28.0698C26.8794 30.5897 24.3193 32.4928 21.3732 33.5253L19.7905 34.1497L18.4252 33.6103C15.5315 32.5483 13.0255 30.6435 11.2328 28.1435C9.44009 25.6435 8.44373 22.664 8.37321 19.5923V11.3212L19.8212 5.57559L31.6265 11.3212L31.6279 19.4222Z" fill="rgb(102, 34, 224)"/>
<path d="M26.5548 17.7119L18.5441 24.1962C18.3647 24.3427 18.1348 24.4131 17.9038 24.3922C17.6729 24.3713 17.4594 24.2608 17.3094 24.0846L13.8628 20.0593C13.7118 19.8793 13.6388 19.6469 13.6598 19.4132C13.6808 19.1795 13.7941 18.9637 13.9748 18.8132C14.16 18.6699 14.3938 18.6037 14.627 18.6285C14.8602 18.6532 15.0747 18.7671 15.2254 18.9461L18.0948 22.3005L25.4361 16.3596C25.5967 16.2354 25.7942 16.1681 25.9974 16.1682C26.1292 16.1649 26.26 16.192 26.3796 16.2473C26.4991 16.3026 26.6043 16.3846 26.6868 16.4871C26.8295 16.6681 26.8956 16.8974 26.8709 17.1263C26.8463 17.3551 26.7328 17.5653 26.5548 17.7119Z" fill="rgb(102, 34, 224)"/>
</g>
</svg>
