<svg xmlns="http://www.w3.org/2000/svg" viewBox="0 0 62.79 69.299">
    <g id="employee" transform="translate(-24.048)">
        <g id="Сгруппировать_11067" data-name="Сгруппировать 11067" transform="translate(24.048 0)">
            <g id="Сгруппировать_11066" data-name="Сгруппировать 11066" transform="translate(0 0)">
                <path id="Контур_6866" data-name="Контур 6866" d="M62.847,35.215l-5.171-1.994-2.968-2.968a1.012,1.012,0,0,0-.7-.3V27.531a10.943,10.943,0,0,0,2.8-5.522l0,0a2.994,2.994,0,0,0,.777-.056,3.1,3.1,0,0,0,2.407-3.079v-.777a3.144,3.144,0,0,0-.947-2.254c.952-5.126.183-9.3-2.232-12.09C54.485,1.059,50.731-.225,45.956.032a14.211,14.211,0,0,0-8.18,3.026c-1.233.16-4.751,1.049-4.751,5.967a26.537,26.537,0,0,0,.753,6.244A3.105,3.105,0,0,0,32.028,18.1v.766a3.1,3.1,0,0,0,2.408,3.079,2.993,2.993,0,0,0,.777.056l0,0a10.943,10.943,0,0,0,2.8,5.522v2.425a1.012,1.012,0,0,0-.7.3l-2.968,2.968-5.816,2.243a7,7,0,0,0-4.475,6.811L24.88,62.9a1.015,1.015,0,0,0,1.014.975h.041a1.015,1.015,0,0,0,.974-1.055l-.826-20.624a4.964,4.964,0,0,1,.2-1.591l3.3,3.3a4.937,4.937,0,0,1,1.456,3.514V62.859a1.015,1.015,0,1,0,2.03,0V47.415a6.954,6.954,0,0,0-2.05-4.95L27.29,38.744a4.961,4.961,0,0,1,1.97-1.386l5.426-2.093,4.143,6.214A3,3,0,0,0,41.037,42.8q.15.015.3.015a2.992,2.992,0,0,0,1.557-.439L42,62.815a1.015,1.015,0,0,0,.97,1.058h.045a1.015,1.015,0,0,0,1.013-.971l.825-18.948h2.307L47.989,62.9A1.015,1.015,0,0,0,49,63.874h.045a1.015,1.015,0,0,0,.97-1.058l-.89-20.435a2.991,2.991,0,0,0,1.557.439c.1,0,.2,0,.3-.015a3,3,0,0,0,2.207-1.326l4.143-6.214,4.781,1.844a1.015,1.015,0,0,0,.731-1.895ZM37.21,21.629a2.026,2.026,0,0,0-2.105-1.65.97.97,0,0,1-.262-.018,1.085,1.085,0,0,1-.784-1.09V18.1a1.062,1.062,0,0,1,.795-1.064.977.977,0,0,1,.962.369,1.436,1.436,0,0,0,1.973.31,7.737,7.737,0,0,0,2.078-2.2,1.015,1.015,0,0,0-1.715-1.087,5.782,5.782,0,0,1-1.127,1.307,3,3,0,0,0-1.192-.642,24.407,24.407,0,0,1-.777-6.075,3.78,3.78,0,0,1,1.523-3.455A3.51,3.51,0,0,1,38.2,5.054a1.025,1.025,0,0,0,.7-.281A12.055,12.055,0,0,1,46.065,2.06c4.125-.223,7.311.821,9.214,3.018C57.206,7.3,57.842,10.723,57.132,15a4.542,4.542,0,0,0-.98.067l-1.017-2.443a1.015,1.015,0,0,0-1.195-.592c-.1.026-9.965,2.543-14.126-2.636a1.015,1.015,0,1,0-1.583,1.271c4.22,5.254,12.623,4.076,15.357,3.524l.791,1.9A1.7,1.7,0,0,0,56.346,17.1a2.37,2.37,0,0,1,.82-.059,1.058,1.058,0,0,1,.8,1.051v.777a1.085,1.085,0,0,1-.784,1.09.96.96,0,0,1-.262.018,2.026,2.026,0,0,0-2.1,1.65,8.948,8.948,0,0,1-17.6,0ZM42.026,40.5a.98.98,0,0,1-1.508-.149l-4.173-6.26,1.732-1.732L44.525,38Zm2.919,1.423.067-1.539,1-1,1,1,.067,1.539ZM46.01,36.6l-5.967-5.221V29.225a10.976,10.976,0,0,0,11.935,0v2.158ZM51.5,40.353a.976.976,0,0,1-.719.432A.965.965,0,0,1,50,40.5L47.5,38l6.449-5.642,1.732,1.732Z" transform="translate(-24.048 0)"/>
            </g>
        </g>
        <g id="Сгруппировать_11069" data-name="Сгруппировать 11069" transform="translate(52.258 37.975)">
            <g id="Сгруппировать_11068" data-name="Сгруппировать 11068">
                <path id="Контур_6867" data-name="Контур 6867" d="M267.047,290.26a4.275,4.275,0,0,0-4.27-4.27H256.2v-2.24a3.189,3.189,0,0,0-3.185-3.185H246.5a3.189,3.189,0,0,0-3.185,3.185v2.24h-6.58a4.275,4.275,0,0,0-4.27,4.27v3.014a5.365,5.365,0,0,0,1.085,3.165V307.73a4.164,4.164,0,0,0,4.16,4.16H261.8a4.164,4.164,0,0,0,4.16-4.16V296.438a5.365,5.365,0,0,0,1.085-3.165V290.26Zm-21.7-6.51h0A1.156,1.156,0,0,1,246.5,282.6h6.51a1.156,1.156,0,0,1,1.155,1.155v2.24h-8.82Zm19.67,9.524c0,1.743-1.649,3.471-4.48,4.761v-.18a1.015,1.015,0,0,0-1.015-1.015h-4.34a1.015,1.015,0,0,0-1.015,1.015v3.255a3.185,3.185,0,0,0,6.37,0v-.868a15.706,15.706,0,0,0,3.395-1.823v9.311a2.131,2.131,0,0,1-2.129,2.129h-24.09a2.132,2.132,0,0,1-2.129-2.129v-9.311a15.71,15.71,0,0,0,3.395,1.823v.868a3.185,3.185,0,0,0,6.287.72,33.985,33.985,0,0,0,4.493.295c.371,0,.747-.006,1.117-.018a1.015,1.015,0,1,0-.064-2.029c-.349.011-.7.017-1.053.017a31.873,31.873,0,0,1-4.41-.3v-1.938a1.015,1.015,0,0,0-1.015-1.015h-4.34a1.015,1.015,0,0,0-1.015,1.015v.18c-2.831-1.291-4.48-3.019-4.48-4.761V290.26a2.242,2.242,0,0,1,2.24-2.24h26.04a2.242,2.242,0,0,1,2.24,2.24Zm-6.51,5.6v2.24a1.155,1.155,0,0,1-2.31,0v-2.24Zm-17.5,2.24v-2.24h2.31v2.24a1.155,1.155,0,1,1-2.31,0Z" transform="translate(-232.467 -280.565)"/>
            </g>
        </g>
    </g>
</svg>