<svg width="40" height="40" viewBox="0 0 40 40" fill="none" xmlns="http://www.w3.org/2000/svg">
<mask id="mask0_1547_7584" style="mask-type:luminance" maskUnits="userSpaceOnUse" x="0" y="-1" width="40" height="41">
<path d="M40 -0.0839844H0V39.7701H40V-0.0839844Z" fill="white"/>
</mask>
<g mask="url(#mask0_1547_7584)">
<path d="M35.233 12.7052L33.0663 10.5331L35.233 8.36105C35.302 8.29674 35.3567 8.21868 35.3934 8.13193C35.4302 8.04519 35.4482 7.95171 35.4463 7.85757C35.4483 7.76145 35.4303 7.66597 35.3936 7.57706C35.3569 7.48815 35.3023 7.40773 35.233 7.3408L32.5476 4.66525C32.411 4.53154 32.2272 4.45662 32.0356 4.45662C31.8441 4.45662 31.6603 4.53154 31.5237 4.66525L29.3436 6.83731L27.1637 4.66525C26.6719 4.17551 26.005 3.90039 25.3097 3.90039C24.6143 3.90039 23.9475 4.17551 23.4556 4.66525L22.5517 5.56597L22.405 5.48624C21.9129 5.25917 21.363 5.18698 20.8287 5.27932C20.2943 5.37165 19.8009 5.62411 19.4143 6.00303L18.077 7.34212C17.9428 7.47825 17.8676 7.66144 17.8676 7.85225C17.8676 8.04307 17.9428 8.22626 18.077 8.36239L22.9423 13.21L13.3423 22.775L8.49032 17.9274C8.35111 17.7934 8.16517 17.7186 7.97166 17.7186C7.77815 17.7186 7.59219 17.7934 7.45298 17.9274L6.11031 19.2652C5.72821 19.6494 5.47459 20.1419 5.38414 20.6753C5.29368 21.2087 5.37081 21.7569 5.60498 22.2449L5.67165 22.391L4.76766 23.2917C4.27612 23.7817 4 24.4462 4 25.139C4 25.8318 4.27612 26.4962 4.76766 26.9862L6.94765 29.1583L4.76766 31.3303C4.63346 31.4665 4.55827 31.6496 4.55827 31.8405C4.55827 32.0313 4.63346 32.2144 4.76766 32.3506L7.45298 35.0261C7.59219 35.1601 7.77815 35.2349 7.97166 35.2349C8.16517 35.2349 8.35111 35.1601 8.49032 35.0261L10.657 32.8541L12.837 35.0261C13.3316 35.5157 14.0005 35.7905 14.6977 35.7905C15.3948 35.7905 16.0637 35.5157 16.5583 35.0261L17.449 34.1254L17.5957 34.2051C18.0875 34.4335 18.6377 34.5064 19.1723 34.414C19.707 34.3217 20.2004 34.0684 20.5863 33.6884L21.929 32.3506C21.9984 32.2835 22.0536 32.2031 22.0913 32.1144C22.129 32.0256 22.1484 31.9302 22.1484 31.8338C22.1484 31.7374 22.129 31.642 22.0913 31.5532C22.0536 31.4645 21.9984 31.3841 21.929 31.317L17.0637 26.4695L26.6637 16.9204L31.529 21.768C31.6656 21.9017 31.8495 21.9766 32.041 21.9766C32.2325 21.9766 32.4163 21.9017 32.553 21.768L33.8957 20.4302C34.2794 20.0471 34.5352 19.5554 34.6281 19.0221C34.7209 18.4888 34.6462 17.9399 34.4143 17.4505L34.3477 17.3043L35.2383 16.4036C35.4818 16.1605 35.6748 15.8719 35.8063 15.5544C35.9378 15.2369 36.0053 14.8968 36.0048 14.5533C36.0043 14.2098 35.9359 13.8698 35.8034 13.5527C35.671 13.2356 35.4772 12.9476 35.233 12.7052ZM32.033 6.20229L33.7077 7.85757L32.033 9.51284L30.3716 7.85757L32.033 6.20229ZM7.97166 33.4838L6.31032 31.8285L7.97166 30.1732L9.633 31.8285L7.97166 33.4838ZM15.521 34.0005C15.4134 34.1094 15.2851 34.1959 15.1437 34.255C15.0022 34.3141 14.8504 34.3445 14.697 34.3446C14.3837 34.3421 14.0837 34.2187 13.8597 34.0005L5.79165 25.962C5.57453 25.7408 5.45296 25.4437 5.45296 25.1343C5.45296 24.825 5.57453 24.5279 5.79165 24.3067L6.62899 23.4724L16.3623 33.1702L15.521 34.0005ZM20.3997 31.8285L19.5623 32.6628C19.4535 32.7719 19.3241 32.8586 19.1815 32.9177C19.039 32.9768 18.8861 33.0073 18.7316 33.0073C18.5772 33.0073 18.4243 32.9768 18.2818 32.9177C18.1392 32.8586 18.0098 32.7719 17.901 32.6628L7.13432 21.9354C6.91721 21.7142 6.79563 21.4171 6.79563 21.1077C6.79563 20.7984 6.91721 20.5013 7.13432 20.2801L7.97166 19.4591L8.13165 19.6185L20.3997 31.8285ZM16.0397 25.4518L14.3783 23.7966L23.9623 14.2475L25.6237 15.9028L16.0397 25.4518ZM32.881 19.3993L32.0303 20.2336L19.6157 7.86421L20.4397 7.02993C20.6616 6.81361 20.9598 6.69248 21.2703 6.69248C21.5808 6.69248 21.879 6.81361 22.101 7.02993L32.8677 17.7573C32.9763 17.8641 33.0628 17.9911 33.1221 18.1312C33.1813 18.2713 33.2123 18.4217 33.2132 18.5737C33.214 18.7258 33.1848 18.8765 33.1271 19.0173C33.0694 19.158 32.9844 19.286 32.877 19.394L32.881 19.3993ZM34.2143 15.386L33.829 15.7699L33.3903 16.2203L33.2303 16.0609L23.6463 6.52512L24.4836 5.69083C24.5927 5.58214 24.7222 5.49591 24.8648 5.43708C25.0073 5.37826 25.16 5.34799 25.3143 5.34799C25.4686 5.34799 25.6213 5.37826 25.7639 5.43708C25.9064 5.49591 26.0359 5.58214 26.145 5.69083L34.213 13.7294C34.322 13.8374 34.4084 13.9658 34.4673 14.1073C34.5262 14.2488 34.5564 14.4005 34.5562 14.5536C34.5559 14.7068 34.5252 14.8584 34.4659 14.9996C34.4065 15.1409 34.3197 15.2691 34.2103 15.3767L34.2143 15.386Z" fill="#6E00E5"/>
</g>
</svg>
