<svg id="login" xmlns="http://www.w3.org/2000/svg" width="20" height="20" viewBox="0 0 20 20">
  <g id="Sign_In">
    <path id="Path_3767" data-name="Path 3767" d="M201.334,0h-8.259a.608.608,0,0,0-.59.625.608.608,0,0,0,.59.625h7.669v17.5h-7.669a.626.626,0,0,0,0,1.25h8.259a.608.608,0,0,0,.59-.625V.625A.608.608,0,0,0,201.334,0Z" transform="translate(-181.924)" fill="#fff"/>
    <path id="Path_3768" data-name="Path 3768" d="M9.671,104.737a.6.6,0,0,0,0,.842.585.585,0,0,0,.834,0l4.07-4.129a.6.6,0,0,0,0-.843L10.5,96.479a.586.586,0,0,0-.834,0,.6.6,0,0,0,0,.842l3.068,3.112H.59a.6.6,0,0,0,0,1.192H12.738Z" transform="translate(0 -91.02)" fill="#fff"/>
  </g>
</svg>
