<svg xmlns="http://www.w3.org/2000/svg" width="40" height="40" viewBox="0 0 40 40" fill="none">
<mask id="mask0_1547_7505" style="mask-type:luminance" maskUnits="userSpaceOnUse" x="0" y="-1" width="40" height="41">
<path d="M40 -0.0839844H0V39.7701H40V-0.0839844Z" fill="white"/>
</mask>
<g mask="url(#mask0_1547_7505)">
<path d="M37.0972 13.0171L29.9826 7.13865C29.8991 7.06973 29.8032 7.0174 29.6999 6.98453L24.5799 5.27878C24.3655 5.20583 24.1313 5.21578 23.9239 5.30667C23.8233 5.34854 23.7322 5.41009 23.656 5.48767C23.5797 5.56526 23.5198 5.65732 23.4799 5.75837C23.4495 5.83554 23.4323 5.91728 23.4292 6.00014C23.3639 6.86993 22.9707 7.68289 22.3286 8.27574C21.6864 8.8686 20.843 9.19744 19.9676 9.19626C19.0921 9.19509 18.2496 8.86398 17.6091 8.2694C16.9686 7.67482 16.5776 6.86082 16.5146 5.99085C16.5079 5.88443 16.4792 5.78052 16.4303 5.68566C16.3814 5.59079 16.3134 5.50699 16.2306 5.43953C16.0584 5.29364 15.8361 5.22027 15.6106 5.23495C15.529 5.23904 15.4483 5.25377 15.3706 5.27878L10.2586 6.99915C10.1546 7.03266 10.0582 7.0859 9.97457 7.15592L2.93858 12.9866C2.85807 13.0564 2.79284 13.1419 2.74697 13.2379C2.70109 13.3339 2.67554 13.4383 2.67191 13.5445C2.6708 13.6572 2.69404 13.7688 2.74005 13.8717C2.78606 13.9746 2.85377 14.0665 2.93858 14.141L8.48258 19.3486V33.6576C8.49092 33.8765 8.58592 34.0833 8.74682 34.2327C8.90773 34.382 9.12145 34.4618 9.34125 34.4547H30.6746C30.8945 34.4618 31.1084 34.3821 31.2695 34.2327C31.4306 34.0834 31.5259 33.8766 31.5346 33.6576V19.35L37.0759 14.145C37.1563 14.0751 37.2211 13.9893 37.2661 13.893C37.3112 13.7967 37.3355 13.692 37.3375 13.5858C37.3395 13.4795 37.3191 13.3741 37.2778 13.2761C37.2364 13.1782 37.1749 13.0899 37.0972 13.0171ZM31.2306 14.0347C31.0584 13.8893 30.8373 13.8143 30.6119 13.8248C30.4023 13.8264 30.2011 13.9068 30.0486 14.0499C29.896 14.1931 29.8034 14.3884 29.7892 14.5967V32.8286H10.1639V14.5887C10.1442 14.3699 10.0392 14.1675 9.87144 14.025C9.70368 13.8824 9.48654 13.811 9.26658 13.8262C9.05716 13.8277 8.85608 13.9082 8.70373 14.0513C8.55138 14.1945 8.45903 14.3898 8.44523 14.598V17.0823L4.76924 13.611L10.9999 8.42992L14.9772 7.10145C15.3447 8.33658 16.1631 9.38981 17.2712 10.0537C18.3793 10.7176 19.6967 10.944 20.9639 10.6883C21.9099 10.5393 22.7928 10.1217 23.5068 9.48553C24.2207 8.84937 24.7354 8.02163 24.9892 7.10145L28.9692 8.42992L35.1786 13.611L31.5012 17.0743V14.5887C31.4965 14.4828 31.47 14.3791 31.4235 14.2838C31.3769 14.1885 31.3113 14.1038 31.2306 14.0347Z" fill="#6E00E5"/>
</g>
</svg>