<svg xmlns="http://www.w3.org/2000/svg" width="28" height="30" viewBox="0 0 28 30" fill="none">
<path d="M25.888 0.230545H2.11464C1.73575 0.226642 1.37076 0.372514 1.09961 0.636205C0.828453 0.899897 0.67324 1.25992 0.667969 1.6374V27.3593C0.67532 27.7361 0.831187 28.0949 1.10189 28.3581C1.37258 28.6214 1.73637 28.7679 2.11464 28.7661H3.81597L3.85597 28.9096C3.89377 29.088 4.00107 29.2441 4.15431 29.3437C4.30755 29.4434 4.49421 29.4783 4.6733 29.441C4.80805 29.4181 4.93268 29.3551 5.03075 29.2602C5.12882 29.1654 5.19573 29.0431 5.22264 28.9096L5.26264 28.7661H22.7346L22.7746 28.9096C22.7932 28.998 22.8291 29.0819 22.8802 29.1565C22.9314 29.231 22.9968 29.2948 23.0727 29.3442C23.1486 29.3936 23.2335 29.4275 23.3226 29.4441C23.4118 29.4607 23.5033 29.4596 23.592 29.441C23.7267 29.4181 23.8514 29.3551 23.9494 29.2602C24.0475 29.1654 24.1144 29.0431 24.1413 28.9096L24.1813 28.7661H25.8826C26.2609 28.7679 26.6247 28.6214 26.8954 28.3581C27.1661 28.0949 27.322 27.7361 27.3293 27.3593V1.6374C27.324 1.26085 27.1696 0.901631 26.8996 0.638091C26.6296 0.374551 26.2659 0.228054 25.888 0.230545ZM25.928 27.3978H2.06797V7.77095H25.9346L25.928 27.3978ZM25.928 6.40794H2.06797V1.58559H25.9346L25.928 6.40794Z" fill="rgb(102, 34, 224)"/>
<path d="M23.9486 4.33473C23.9505 4.51869 23.8975 4.69907 23.7964 4.85303C23.6954 5.007 23.5507 5.12763 23.3808 5.19967C23.2109 5.2717 23.0234 5.2919 22.842 5.25772C22.6605 5.22354 22.4933 5.13651 22.3616 5.00763C22.2298 4.87875 22.1393 4.71383 22.1017 4.53373C22.064 4.35362 22.0808 4.16643 22.1499 3.99583C22.219 3.82523 22.3374 3.6789 22.49 3.57535C22.6427 3.4718 22.8227 3.41568 23.0073 3.4141C23.2546 3.41197 23.4927 3.50773 23.6692 3.68034C23.8457 3.85296 23.9462 4.08832 23.9486 4.33473Z" fill="rgb(102, 34, 224)"/>
<path d="M20.2823 4.33602C20.2798 4.57944 20.1817 4.81219 20.0089 4.98432C19.8362 5.15645 19.6026 5.25422 19.3583 5.25664C19.113 5.25664 18.8778 5.15958 18.7044 4.98681C18.531 4.81403 18.4336 4.5797 18.4336 4.33535C18.4336 4.09101 18.531 3.85667 18.7044 3.6839C18.8778 3.51112 19.113 3.41406 19.3583 3.41406C19.6028 3.41649 19.8366 3.51444 20.0094 3.68686C20.1822 3.85927 20.2802 4.09237 20.2823 4.33602Z" fill="rgb(102, 34, 224)"/>
<path d="M9.57066 4.33469C9.57066 4.51678 9.51647 4.69477 9.41494 4.84617C9.31341 4.99756 9.1691 5.11556 9.00026 5.18524C8.83142 5.25492 8.64563 5.27315 8.46639 5.23763C8.28716 5.20211 8.12252 5.11442 7.99329 4.98567C7.86407 4.85692 7.77606 4.69288 7.74041 4.51429C7.70476 4.33571 7.72306 4.1506 7.79299 3.98238C7.86293 3.81415 7.98136 3.67038 8.13331 3.56922C8.28527 3.46806 8.46391 3.41406 8.64666 3.41406C8.89097 3.41648 9.12458 3.51425 9.29734 3.68638C9.4701 3.85851 9.56823 4.09128 9.57066 4.33469Z" fill="rgb(102, 34, 224)"/>
<path d="M5.91507 4.33602C5.91264 4.57944 5.81451 4.81219 5.64175 4.98432C5.46899 5.15645 5.23538 5.25422 4.99107 5.25664C4.74584 5.25664 4.51064 5.15958 4.33723 4.98681C4.16383 4.81403 4.06641 4.5797 4.06641 4.33535C4.06641 4.09101 4.16383 3.85667 4.33723 3.6839C4.51064 3.51112 4.74584 3.41406 4.99107 3.41406C5.23561 3.41649 5.46942 3.51444 5.64222 3.68686C5.81501 3.85927 5.91299 4.09237 5.91507 4.33602Z" fill="rgb(102, 34, 224)"/>
<path d="M23.7491 16.9424C23.6851 16.8763 23.6085 16.8234 23.5238 16.7869C23.4391 16.7504 23.348 16.731 23.2558 16.7299H22.3491L22.3358 16.5572C22.1154 14.5255 21.1524 12.6457 19.6302 11.2762C18.1081 9.90659 16.1334 9.14303 14.0824 9.13104C13.7882 9.12887 13.4942 9.14663 13.2024 9.18418C11.6403 9.34668 10.1563 9.94663 8.92218 10.9146C7.68806 11.8825 6.7543 13.1789 6.22896 14.6537C5.70363 16.1285 5.60821 17.7213 5.95374 19.2479C6.29927 20.7744 7.07162 22.1723 8.18141 23.2796C9.2912 24.387 10.693 25.1586 12.2247 25.5051C13.7563 25.8516 15.3551 25.7588 16.8361 25.2375C18.317 24.7163 19.6195 23.7878 20.5928 22.5596C21.5661 21.3314 22.1704 19.8537 22.3358 18.2975L22.3491 18.1248H23.2558C23.347 18.1255 23.4375 18.1081 23.5219 18.0736C23.6064 18.0392 23.6831 17.9883 23.7476 17.924C23.8121 17.8597 23.8632 17.7833 23.8978 17.6992C23.9324 17.615 23.9498 17.5249 23.9491 17.434C23.9514 17.3428 23.9349 17.252 23.9005 17.1675C23.8661 17.0829 23.8145 17.0063 23.7491 16.9424ZM20.3758 20.2503C19.7737 21.5882 18.7591 22.7 17.4794 23.424C16.1998 24.148 14.7217 24.4465 13.2601 24.2761C11.7984 24.1057 10.4294 23.4754 9.35202 22.4766C8.27461 21.4779 7.54496 20.1628 7.26911 18.7226L7.24244 18.603L7.34911 18.5366C8.73577 17.6997 10.5891 18.2975 12.7358 19.0149V19.0016L12.8158 19.0414C14.5649 19.7154 16.4098 20.1099 18.2824 20.2105H18.3091C18.9336 20.2074 19.5556 20.1317 20.1624 19.9846L20.5358 19.9049L20.3758 20.2503ZM20.9491 18.1514L20.9358 18.2576L20.8291 18.2975C20.0216 18.647 19.1494 18.8235 18.2691 18.8156C16.5457 18.7143 14.8492 18.3422 13.2424 17.713C12.1158 17.2901 10.9502 16.9786 9.76244 16.783C8.97601 16.6721 8.17471 16.7356 7.41577 16.969L7.14911 17.062L7.17577 16.7697C7.33616 15.0776 8.11976 13.5045 9.37545 12.354C10.6311 11.2035 12.2699 10.557 13.9758 10.5392H14.0691C15.8998 10.5427 17.6545 11.2689 18.949 12.5586C20.2435 13.8484 20.9722 15.5967 20.9758 17.4207C20.9758 17.6598 20.9624 17.9122 20.9491 18.1514Z" fill="rgb(102, 34, 224)"/>
</svg>