<svg xmlns="http://www.w3.org/2000/svg" width="37" height="25" viewBox="0 0 37 25">
  <path id="Gift_Card_1_" d="M12.711,25.831a4.185,4.185,0,0,0,0,3.119l-3.665,1.1V24.728ZM14.3,30.912a4.23,4.23,0,0,1-.613-.495l-1.8.541-1.6,4.026h2.393Zm3.15-7.655a4.192,4.192,0,0,1,2.082,1.107l5.245-1.579a.841.841,0,0,1,1.082.808v2.953H41V21.219A4.216,4.216,0,0,0,36.8,17H17.455Zm-.841,6.665a2.531,2.531,0,1,0-2.523-2.531A2.53,2.53,0,0,0,16.614,29.922Zm-.841,1.85-1.742,4.37a.841.841,0,0,1-.781.53h-4.2a.844.844,0,0,1-.781-1.157l1.569-3.937L8.446,32a.83.83,0,0,1-.241.035.842.842,0,0,1-.841-.844V28.234H4v9.547A4.216,4.216,0,0,0,8.2,42h7.568Zm10.091-3.537v2.953a.842.842,0,0,1-.841.844A.83.83,0,0,1,24.781,32l-1.388-.418,1.57,3.937a.844.844,0,0,1-.781,1.157h-4.2a.841.841,0,0,1-.781-.53l-1.742-4.37V42H36.8A4.216,4.216,0,0,0,41,37.781V28.234Zm-2.924,6.75-1.6-4.026-1.8-.541a4.23,4.23,0,0,1-.613.495l1.623,4.072ZM7.364,26.547V23.594a.842.842,0,0,1,1.083-.808l5.245,1.579a4.192,4.192,0,0,1,2.082-1.107V17H8.2A4.216,4.216,0,0,0,4,21.219v5.328Zm16.818-1.819-3.665,1.1a4.185,4.185,0,0,1,0,3.119l3.665,1.1Z" transform="translate(-4 -17)" fill="#6E00E5"/>
</svg>
