<svg xmlns="http://www.w3.org/2000/svg" width="28" height="25.001" viewBox="0 0 28 25.001">
  <g id="portfolio" transform="translate(0)">
    <path id="Path_12520" data-name="Path 12520" d="M211,240h5v1.667h-5Zm0,0" transform="translate(-199.5 -226.666)"/>
    <path id="Path_12521" data-name="Path 12521" d="M22.716,88.11H18.1v.833a.827.827,0,0,1-.82.833H10.719a.827.827,0,0,1-.82-.833V88.11H5.284A2.462,2.462,0,0,1,2.95,86.4L0,77.41v18.2a2.484,2.484,0,0,0,2.461,2.5H25.539A2.484,2.484,0,0,0,28,95.61v-18.2L25.05,86.4a2.461,2.461,0,0,1-2.334,1.709Zm0,0" transform="translate(0 -73.11)"/>
    <path id="Path_12522" data-name="Path 12522" d="M41.651,0H35.1a2.481,2.481,0,0,0-2.457,2.5v.833H25.809L28.9,12.764a.82.82,0,0,0,.777.57h4.606V12.5a.826.826,0,0,1,.819-.833h6.551a.826.826,0,0,1,.819.833v.833h4.606a.82.82,0,0,0,.777-.57l3.089-9.431H44.107V2.5A2.481,2.481,0,0,0,41.651,0Zm-7.37,3.333V2.5a.827.827,0,0,1,.819-.833h6.551a.827.827,0,0,1,.819.833v.833Zm0,0" transform="translate(-24.375)"/>
  </g>
</svg>
