<svg xmlns="http://www.w3.org/2000/svg" width="17" height="20" viewBox="0 0 17 20">
    <g id="apple" transform="translate(-37.336)" style="isolation: isolate">
        <g id="Сгруппировать_2757" data-name="Сгруппировать 2757" transform="translate(45.497)">
            <g id="Сгруппировать_2756" data-name="Сгруппировать 2756" transform="translate(0)">
                <path id="Контур_2097" data-name="Контур 2097" d="M251.6,0a4.688,4.688,0,0,0-3.035,1.643,4.071,4.071,0,0,0-.994,3.164,3.956,3.956,0,0,0,3.063-1.564A4.4,4.4,0,0,0,251.6,0Z" transform="translate(-247.522)" fill="#2b2b2b"/>
            </g>
        </g>
        <g id="Сгруппировать_2759" data-name="Сгруппировать 2759" transform="translate(37.336 4.676)">
            <g id="Сгруппировать_2758" data-name="Сгруппировать 2758" transform="translate(0)">
                <path id="Контур_2098" data-name="Контур 2098" d="M53.76,121.869a5.03,5.03,0,0,0-3.8-2.029c-1.785,0-2.54.859-3.78.859-1.279,0-2.25-.857-3.794-.857a5.158,5.158,0,0,0-4.155,2.525c-1.439,2.243-1.193,6.461,1.139,10.054.835,1.286,1.949,2.731,3.407,2.744,1.3.012,1.663-.837,3.421-.845s2.091.857,3.386.843c1.459-.011,2.635-1.613,3.469-2.9a14.44,14.44,0,0,0,1.285-2.426A4.421,4.421,0,0,1,53.76,121.869Z" transform="translate(-37.336 -119.84)" fill="#2b2b2b"/>
            </g>
        </g>
    </g>
</svg>