<svg id="google" xmlns="http://www.w3.org/2000/svg" width="20" height="20" viewBox="0 0 20 20">
    <path id="Контур_2092" data-name="Контур 2092" d="M4.476,145.019l-.7,2.624L1.2,147.7a10.116,10.116,0,0,1-.074-9.43h0l2.288.419,1,2.274a6.027,6.027,0,0,0,.057,4.058Z" transform="translate(0 -132.913)" fill="#fbbb00"/>
    <path id="Контур_2093" data-name="Контур 2093" d="M271.328,208.176a10.094,10.094,0,0,1-3.6,9.761h0l-2.881-.147-.408-2.546a6.018,6.018,0,0,0,2.589-3.073h-5.4v-3.995h9.7Z" transform="translate(-251.504 -200.161)" fill="#518ef8"/>
    <path id="Контур_2094" data-name="Контур 2094" d="M45.725,315.177h0a10.1,10.1,0,0,1-15.217-3.089l3.272-2.679a6.006,6.006,0,0,0,8.654,3.075Z" transform="translate(-29.306 -297.4)" fill="#28b446"/>
    <path id="Контур_2095" data-name="Контур 2095" d="M44.039,2.325,40.767,5a6,6,0,0,0-8.853,3.144l-3.29-2.693h0A10.1,10.1,0,0,1,44.039,2.325Z" transform="translate(-27.495)" fill="#f14336"/>
</svg>