<svg xmlns="http://www.w3.org/2000/svg" viewBox="0 0 24 24">
  <g id="Linkedin" transform="translate(-261 -512)">
    <path id="Контур_12637" data-name="Контур 12637" d="M17.5,0H6.5A6.5,6.5,0,0,0,0,6.5V17.5A6.5,6.5,0,0,0,6.5,24H17.5A6.5,6.5,0,0,0,24,17.5V6.5A6.5,6.5,0,0,0,17.5,0Zm5.09,17.5a5.1,5.1,0,0,1-5.09,5.089H6.5A5.1,5.1,0,0,1,1.406,17.5V6.5A5.1,5.1,0,0,1,6.5,1.407H17.5A5.1,5.1,0,0,1,22.592,6.5Zm0,0" transform="translate(261.001 512)" fill="$black"/>
    <path id="linkedin-2" data-name="linkedin" d="M6.782,16.578H4.171V8.151h2.61Zm.26-11.112A1.529,1.529,0,1,0,5.514,7,1.529,1.529,0,0,0,7.042,5.466Zm9.509,6.476C16.551,9.68,16.073,8,13.43,8a2.709,2.709,0,0,0-2.47,1.3h0V8.151H8.422v8.427h2.536V12.394c0-1.1.279-2.157,1.637-2.157,1.34,0,1.383,1.253,1.383,2.227v4.114h2.573Z" transform="translate(262.732 512.625)" fill="$black"/>
  </g>
</svg>
