<svg id="t-buy-logo" xmlns="http://www.w3.org/2000/svg" viewBox="0 0 159 28">
  <g id="_2417831866240" transform="translate(0 0)">
    <path id="Path_8012" data-name="Path 8012" d="M0,.02v9.1H13.66V27.333h9.093V9.118h13.66V.02Z" transform="translate(0 0.02)" fill="rgb(102, 34, 224)"/>
    <path id="Path_8013" data-name="Path 8013" d="M45.227,20.823a1.827,1.827,0,0,0,0-3.639H30.9v3.659H45.227ZM30.9,6.489v3.679H43.226a1.836,1.836,0,0,0,1.657-1.86,1.812,1.812,0,0,0-1.657-1.82H30.9Zm25.987,13.5c.061,4.771-3.961,7.339-8.649,7.339H20.27V.02H46.237c4.729-.02,8.73,2.568,8.669,7.318a6.7,6.7,0,0,1-3.173,5.883,6.886,6.886,0,0,1,5.153,6.793Z" transform="translate(20.659 0.02)" fill="rgb(102, 34, 224)"/>
    <path id="Path_8014" data-name="Path 8014" d="M66.074,0h10.67V14.677c.04,10.331-8.406,13.3-18.652,13.323C47.847,27.98,39.4,25.008,39.44,14.677V0H50.09V14.01c-.04,4.488,3.637,5.256,8,5.317,4.345-.061,8.043-.829,7.982-5.317V0Z" transform="translate(40.197 0)" fill="rgb(102, 34, 224)"/>
    <path id="Path_8015" data-name="Path 8015" d="M78.952,9.825l8-9.805h12.63L84.267,18.013v9.32H73.617v-9.32L58.3.02H70.97Z" transform="translate(59.416 0.02)" fill="rgb(102, 34, 224)"/>
  </g>
</svg>
