<svg xmlns="http://www.w3.org/2000/svg" viewBox="0 0 50 50">
  <g id="Сгруппировать_11329" data-name="Сгруппировать 11329" transform="translate(-364 -205)">
    <circle id="Эллипс_382" data-name="Эллипс 382" cx="25" cy="25" r="25" transform="translate(364 205)" fill="#1c91da"/>
    <g id="t-buy-logo" transform="translate(369 226)">
      <g id="_2417831866240" transform="translate(0 0)">
        <path id="Контур_8012" data-name="Контур 8012" d="M0,.02V2.311H3.517V6.9H5.858V2.311H9.374V.02Z" transform="translate(0 -0.01)" fill="#fff"/>
        <path id="Контур_8013" data-name="Контур 8013" d="M26.695,5.258a.459.459,0,0,0,0-.916H23.006v.921h3.688ZM23.006,1.649v.926H26.18a.466.466,0,0,0,.427-.468.46.46,0,0,0-.427-.458Zm6.69,3.4c.016,1.2-1.02,1.848-2.227,1.848h-7.2V.02h6.685C28.172.015,29.2.666,29.186,1.863a1.679,1.679,0,0,1-.817,1.481A1.74,1.74,0,0,1,29.7,5.054Z" transform="translate(-9.781 -0.01)" fill="#fff"/>
        <path id="Контур_8014" data-name="Контур 8014" d="M46.3,0h2.747V3.7c.01,2.6-2.164,3.351-4.8,3.356S39.43,6.3,39.44,3.7V0h2.742V3.529c-.01,1.131.936,1.324,2.06,1.339,1.118-.015,2.07-.209,2.055-1.339V0Z" transform="translate(-19.033 0)" fill="#fff"/>
        <path id="Контур_8015" data-name="Контур 8015" d="M63.617,2.489,65.677.02h3.251L64.985,4.55V6.9H62.243V4.55L58.3.02h3.262Z" transform="translate(-28.139 -0.01)" fill="#fff"/>
      </g>
    </g>
  </g>
</svg>
