<svg id="viber" xmlns="http://www.w3.org/2000/svg" width="24" height="24" viewBox="0 0 24 24">
  <path id="Контур_4081" data-name="Контур 4081" d="M691.661,370.021a.344.344,0,0,1-.362-.343,3.6,3.6,0,0,0-.067-.459,1.3,1.3,0,0,0-.477-.747,1.226,1.226,0,0,0-.392-.19c-.177-.049-.355-.037-.532-.08a.329.329,0,0,1-.269-.379.351.351,0,0,1,.342-.281h.025a1.969,1.969,0,0,1,2.02,1.97.844.844,0,0,1,0,.276.288.288,0,0,1-.233.233.107.107,0,0,0-.025.005C691.557,370.026,691.606,370.026,691.661,370.021Z" transform="translate(-677.087 -359.937)" fill="#7268f7"/>
  <path id="Контур_4082" data-name="Контур 4082" d="M692.327,368.164a3.253,3.253,0,0,0-1.365-1.273,3.92,3.92,0,0,0-1.089-.337c-.159-.025-.325-.043-.49-.067a.311.311,0,0,1-.3-.325v-.025a.3.3,0,0,1,.313-.305h.031a4.461,4.461,0,0,1,1.885.489,3.812,3.812,0,0,1,2.074,2.962c.006.054.018.116.025.178.012.146.018.3.03.5a1.083,1.083,0,0,1-.03.2.324.324,0,0,1-.612.03,1.044,1.044,0,0,1-.037-.275A3.5,3.5,0,0,0,692.327,368.164Z" transform="translate(-677.04 -359.777)" fill="#7268f7"/>
  <path id="Контур_4083" data-name="Контур 4083" d="M693.954,373.957a.773.773,0,0,1,.238.973,3.344,3.344,0,0,1-1.443,1.567,4.214,4.214,0,0,1-.631.2c-.244-.074-.475-.122-.694-.208a15.856,15.856,0,0,1-5.943-3.893,15.248,15.248,0,0,1-2.275-3.409c-.287-.581-.537-1.181-.788-1.781a1.541,1.541,0,0,1,.463-1.524,3.611,3.611,0,0,1,1.225-.9.793.793,0,0,1,.981.227,12.19,12.19,0,0,1,1.524,2.087.973.973,0,0,1-.288,1.34c-.112.08-.219.166-.325.251a1.256,1.256,0,0,0-.25.257.7.7,0,0,0-.043.613,5.577,5.577,0,0,0,3.181,3.452,1.647,1.647,0,0,0,.818.2c.494-.055.657-.594,1.007-.876a.982.982,0,0,1,1.149-.049c.363.233.725.477,1.076.722A11.4,11.4,0,0,1,693.954,373.957Z" transform="translate(-676.651 -359.761)" fill="#7268f7"/>
  <path id="Контур_4084" data-name="Контур 4084" d="M694.766,368.991a14.761,14.761,0,0,1,.159,1.469.353.353,0,0,1-.325.409c-.233,0-.337-.19-.349-.4-.03-.41-.049-.82-.11-1.224a5.129,5.129,0,0,0-4.132-4.3c-.324-.055-.648-.068-.973-.1-.208-.025-.477-.037-.52-.288a.349.349,0,0,1,.342-.4h.2A5.83,5.83,0,0,1,694.766,368.991Z" transform="translate(-676.984 -359.616)" fill="#7268f7"/>
  <path id="Контур_4085" data-name="Контур 4085" d="M699.616,364.833l-.007-.024a8.15,8.15,0,0,0-5.591-5.2l-.024-.006a31.92,31.92,0,0,0-11.681,0l-.032.006a8.152,8.152,0,0,0-5.583,5.2l-.007.024a21.387,21.387,0,0,0,0,9.533l.007.031a8.216,8.216,0,0,0,5.28,5.122v2.531a.98.98,0,0,0,.322.73,1.071,1.071,0,0,0,1.484-.03l2.647-2.663q.862.054,1.725.054a33.022,33.022,0,0,0,5.838-.539l.024-.006a8.162,8.162,0,0,0,5.591-5.2l.007-.031A21.387,21.387,0,0,0,699.616,364.833Zm-2.1,9.078a6.151,6.151,0,0,1-3.946,3.65,29.616,29.616,0,0,1-6.209.485.156.156,0,0,0-.11.048l-1.936,1.915-2.053,2.047a.253.253,0,0,1-.174.072.238.238,0,0,1-.241-.234V377.7a.144.144,0,0,0-.123-.143,6.151,6.151,0,0,1-3.94-3.65,19.492,19.492,0,0,1,0-8.618,6.15,6.15,0,0,1,3.94-3.65,29.78,29.78,0,0,1,10.852,0,6.154,6.154,0,0,1,3.939,3.65A19.492,19.492,0,0,1,697.519,373.911Z" transform="translate(-676.154 -359.064)" fill="#7268f7"/>
</svg>
